{"glyphs":{"a":{"x_min":0,"x_max":554,"ha":554,"o":"m 601 143 q 582 121 556 96 q 531 71 502 50 q 473 28 441 14 q 409 0 378 0 q 340 0 314 11 q 287 22 269 38 q 251 54 240 73 q 230 92 225 109 q 207 91 187 74 q 167 57 146 44 q 124 30 102 22 q 80 14 59 14 q 26 14 6 24 q -13 34 -23 48 q -33 63 -36 79 q -40 95 -40 106 q -42 154 -26 202 q -9 249 22 291 q 52 333 92 369 q 132 405 176 432 q 221 458 267 473 q 313 488 354 489 q 396 489 418 467 q 441 445 437 414 q 437 393 424 372 q 410 350 390 332 q 370 313 346 298 q 323 284 304 276 q 284 269 270 270 q 257 271 257 284 q 257 298 256 316 q 256 333 252 348 q 247 364 236 374 q 225 385 203 384 q 161 382 135 365 q 109 348 96 323 q 82 298 78 270 q 75 243 78 220 q 83 187 100 162 q 117 137 157 135 q 178 134 198 142 q 218 149 237 161 q 249 170 262 181 q 275 192 288 203 l 338 257 l 338 256 l 341 260 q 339 256 339 254 q 342 248 335 236 q 334 213 344 188 q 353 162 371 142 q 389 121 414 111 q 440 101 470 110 q 508 120 532 135 q 555 150 575 173 z"},"L":{"x_min":0,"x_max":545,"ha":545,"o":"m 672 -158 q 612 -134 553 -126 q 494 -119 440 -122 q 386 -124 339 -132 q 292 -140 254 -148 q 217 -155 191 -158 q 165 -161 155 -153 q 118 -126 103 -56 q 88 15 88 115 q 88 215 100 336 q 112 457 130 585 q 147 713 168 840 q 188 967 204 1079 q 205 1088 220 1103 q 236 1118 258 1133 q 280 1148 306 1160 q 331 1173 352 1178 q 372 1182 385 1176 q 398 1170 395 1147 q 394 1066 384 972 q 374 879 360 781 q 347 683 332 584 q 317 484 304 392 q 291 300 283 219 q 275 138 276 76 q 277 13 289 -26 q 301 -66 329 -74 q 340 -77 372 -68 q 404 -58 458 -51 q 511 -44 586 -47 q 661 -50 758 -78 q 779 -77 788 -84 q 796 -91 788 -103 q 779 -115 752 -130 q 724 -145 672 -158 z"},"3":{"x_min":0,"x_max":813,"ha":813,"o":"m 572 568 l 481 485 l 505 361 l 398 424 l 288 361 l 314 482 l 222 568 l 346 581 l 398 695 l 448 582 z m 443 431 l 414 603 l 379 603 l 349 431 l 364 422 l 377 431 l 383 470 l 409 470 l 416 431 l 430 422 z m 407 495 l 387 495 l 396 563 z m 395 61 l 409 61 l 404 73 q 403 75 403 76 q 403 78 401 80 q 401 77 399 73 z m 223 44 l 223 49 l 230 49 l 230 44 z m 551 44 l 551 86 l 556 86 l 556 48 l 577 48 l 577 44 z m 513 44 l 513 86 l 543 86 l 543 80 l 518 80 l 518 67 l 541 67 l 541 62 l 518 62 l 518 48 l 543 48 l 543 44 z m 365 44 l 365 61 l 349 86 l 356 86 l 364 73 q 366 67 368 66 q 369 67 370 69 q 371 71 373 73 l 381 86 l 387 86 l 370 61 l 370 44 z m 239 44 l 239 86 l 255 86 q 257 86 258 85 q 260 84 261 84 q 265 83 266 80 q 268 78 268 74 q 268 71 266 70 q 265 66 262 66 q 265 65 268 62 q 270 58 270 56 q 270 54 270 53 q 269 52 269 51 q 268 47 265 47 q 264 45 263 45 q 262 45 261 44 l 255 44 z m 125 44 l 113 86 l 119 86 l 125 58 q 126 55 126 53 q 126 51 127 49 q 128 54 128 57 l 136 86 l 143 86 l 149 64 q 152 55 152 49 q 153 51 153 53 q 153 55 154 58 l 161 86 l 166 86 l 154 44 l 149 44 l 141 75 q 140 78 140 80 q 139 78 139 75 l 130 44 z m 70 44 l 58 86 l 65 86 l 70 58 q 71 55 71 53 q 71 51 73 49 q 74 54 74 57 l 82 86 l 88 86 l 95 64 q 96 59 96 56 q 97 53 97 49 q 99 51 99 53 q 99 55 100 58 l 106 86 l 112 86 l 100 44 l 95 44 l 87 75 q 86 78 86 80 q 84 78 84 75 l 75 44 z m 244 67 l 253 67 q 257 67 258 69 q 261 69 261 70 q 262 71 262 74 q 262 77 261 78 l 260 78 q 259 78 259 78 q 259 79 258 79 q 257 80 252 80 l 244 80 z m 178 44 l 167 86 l 173 86 l 179 58 q 180 55 180 53 q 180 51 182 49 q 182 53 182 54 q 183 56 183 57 l 191 86 l 197 86 l 204 64 q 205 59 206 56 q 206 53 206 49 q 208 51 208 53 q 208 55 209 58 l 216 86 l 221 86 l 209 44 l 204 44 l 196 75 q 195 78 195 80 q 193 78 193 75 l 184 44 z m 431 66 l 443 66 q 445 66 446 66 q 448 67 450 67 q 452 67 452 70 q 453 71 453 74 q 453 77 451 79 q 450 80 444 80 l 431 80 z m 244 48 l 255 48 q 257 48 258 49 l 261 49 q 262 51 264 52 l 264 56 q 264 58 262 60 q 262 62 260 62 l 253 62 l 244 62 z m 278 44 l 278 86 l 283 86 l 283 44 z m 645 64 q 645 55 648 52 q 652 48 659 48 q 666 48 669 52 q 673 55 673 65 q 673 70 672 73 q 670 78 667 79 q 664 80 659 80 q 653 80 650 77 q 645 73 645 64 z m 639 64 q 639 75 645 80 q 649 86 659 86 q 662 86 664 85 q 667 84 669 83 q 672 82 674 80 q 675 78 677 75 q 678 73 678 65 q 678 56 676 53 q 673 48 669 45 q 665 43 659 43 q 656 43 654 44 q 651 44 648 45 q 646 47 644 49 q 643 51 642 53 q 641 56 640 58 q 639 61 639 64 z m 383 44 l 399 86 l 405 86 l 422 44 l 416 44 l 411 56 l 394 56 l 388 44 z m 294 44 l 294 86 l 299 86 l 299 48 l 318 48 l 318 44 z m 583 44 l 583 49 l 590 49 l 590 44 z m 487 60 l 487 65 l 504 65 l 504 49 q 500 45 496 44 q 494 44 492 44 q 489 43 487 43 q 481 43 477 45 q 474 47 472 48 q 470 50 469 53 q 468 56 467 58 q 466 61 466 64 q 466 68 467 70 q 468 72 469 75 q 471 81 476 83 q 478 84 481 85 q 484 86 487 86 q 492 86 495 84 q 499 83 500 80 q 503 77 504 74 l 499 73 q 499 74 496 77 q 496 79 492 80 l 487 80 l 481 80 q 478 79 476 77 q 476 76 473 73 q 473 71 472 69 q 472 67 472 65 q 472 58 474 56 q 478 50 479 49 q 482 48 487 48 q 491 48 494 49 q 496 51 497 51 q 498 51 499 52 l 499 60 z m 426 44 l 426 86 l 444 86 q 447 86 449 85 q 451 84 453 84 q 456 83 457 80 q 459 78 459 74 q 459 69 456 66 q 455 65 452 64 q 450 64 447 62 q 449 62 450 62 q 450 61 451 61 q 452 59 455 54 l 463 44 l 456 44 l 450 52 q 448 54 448 56 q 447 57 446 58 q 446 60 445 60 q 444 60 443 61 l 442 61 q 441 61 441 62 q 441 62 440 62 l 438 62 l 431 62 l 431 44 z m 325 44 l 325 86 l 331 86 l 331 48 l 351 48 l 351 44 z m 629 58 l 634 57 q 632 49 628 47 q 624 43 617 43 q 611 43 607 45 q 604 47 603 49 q 602 51 600 53 q 598 61 598 65 q 598 69 600 77 q 605 82 607 83 q 610 84 612 85 q 614 86 617 86 q 620 86 623 85 q 626 84 628 83 q 630 81 632 79 q 633 77 634 74 l 628 73 q 628 77 624 79 q 622 80 617 80 q 611 80 609 79 q 607 78 606 76 q 606 75 604 73 q 604 71 604 69 q 603 67 603 65 q 603 59 606 56 q 606 54 607 52 q 608 51 609 49 q 612 48 617 48 q 622 48 625 51 q 628 54 629 58 z m 686 44 l 686 86 l 694 86 l 704 56 q 704 54 705 52 q 706 51 706 49 q 706 50 708 56 l 717 86 l 725 86 l 725 44 l 720 44 l 720 78 l 708 44 l 703 44 l 691 79 l 691 44 z m 395 61 l 409 61 l 404 73 q 403 75 403 76 q 403 78 401 80 q 401 77 399 73 z m 223 44 l 223 49 l 230 49 l 230 44 z m 551 44 l 551 86 l 556 86 l 556 48 l 577 48 l 577 44 z m 513 44 l 513 86 l 543 86 l 543 80 l 518 80 l 518 67 l 541 67 l 541 62 l 518 62 l 518 48 l 543 48 l 543 44 z m 365 44 l 365 61 l 349 86 l 356 86 l 364 73 q 366 67 368 66 q 369 67 370 69 q 371 71 373 73 l 381 86 l 387 86 l 370 61 l 370 44 z m 239 44 l 239 86 l 255 86 q 257 86 258 85 q 260 84 261 84 q 265 83 266 80 q 268 78 268 74 q 268 71 266 70 q 265 66 262 66 q 265 65 268 62 q 270 58 270 56 q 270 54 270 53 q 269 52 269 51 q 268 47 265 47 q 264 45 263 45 q 262 45 261 44 l 255 44 z m 125 44 l 113 86 l 119 86 l 125 58 q 126 55 126 53 q 126 51 127 49 q 128 54 128 57 l 136 86 l 143 86 l 149 64 q 152 55 152 49 q 153 51 153 53 q 153 55 154 58 l 161 86 l 166 86 l 154 44 l 149 44 l 141 75 q 140 78 140 80 q 139 78 139 75 l 130 44 z m 70 44 l 58 86 l 65 86 l 70 58 q 71 55 71 53 q 71 51 73 49 q 74 54 74 57 l 82 86 l 88 86 l 95 64 q 96 59 96 56 q 97 53 97 49 q 99 51 99 53 q 99 55 100 58 l 106 86 l 112 86 l 100 44 l 95 44 l 87 75 q 86 78 86 80 q 84 78 84 75 l 75 44 z m 244 67 l 253 67 q 257 67 258 69 q 261 69 261 70 q 262 71 262 74 q 262 77 261 78 l 260 78 q 259 78 259 78 q 259 79 258 79 q 257 80 252 80 l 244 80 z m 178 44 l 167 86 l 173 86 l 179 58 q 180 55 180 53 q 180 51 182 49 q 182 53 182 54 q 183 56 183 57 l 191 86 l 197 86 l 204 64 q 205 59 206 56 q 206 53 206 49 q 208 51 208 53 q 208 55 209 58 l 216 86 l 221 86 l 209 44 l 204 44 l 196 75 q 195 78 195 80 q 193 78 193 75 l 184 44 z m 431 66 l 443 66 q 445 66 446 66 q 448 67 450 67 q 452 67 452 70 q 453 71 453 74 q 453 77 451 79 q 450 80 444 80 l 431 80 z m 244 48 l 255 48 q 257 48 258 49 l 261 49 q 262 51 264 52 l 264 56 q 264 58 262 60 q 262 62 260 62 l 253 62 l 244 62 z m 278 44 l 278 86 l 283 86 l 283 44 z m 645 64 q 645 55 648 52 q 652 48 659 48 q 666 48 669 52 q 673 55 673 65 q 673 70 672 73 q 670 78 667 79 q 664 80 659 80 q 653 80 650 77 q 645 73 645 64 z m 639 64 q 639 75 645 80 q 649 86 659 86 q 662 86 664 85 q 667 84 669 83 q 672 82 674 80 q 675 78 677 75 q 678 73 678 65 q 678 56 676 53 q 673 48 669 45 q 665 43 659 43 q 656 43 654 44 q 651 44 648 45 q 646 47 644 49 q 643 51 642 53 q 641 56 640 58 q 639 61 639 64 z m 383 44 l 399 86 l 405 86 l 422 44 l 416 44 l 411 56 l 394 56 l 388 44 z m 294 44 l 294 86 l 299 86 l 299 48 l 318 48 l 318 44 z m 583 44 l 583 49 l 590 49 l 590 44 z m 487 60 l 487 65 l 504 65 l 504 49 q 500 45 496 44 q 494 44 492 44 q 489 43 487 43 q 481 43 477 45 q 474 47 472 48 q 470 50 469 53 q 468 56 467 58 q 466 61 466 64 q 466 68 467 70 q 468 72 469 75 q 471 81 476 83 q 478 84 481 85 q 484 86 487 86 q 492 86 495 84 q 499 83 500 80 q 503 77 504 74 l 499 73 q 499 74 496 77 q 496 79 492 80 l 487 80 l 481 80 q 478 79 476 77 q 476 76 473 73 q 473 71 472 69 q 472 67 472 65 q 472 58 474 56 q 478 50 479 49 q 482 48 487 48 q 491 48 494 49 q 496 51 497 51 q 498 51 499 52 l 499 60 z m 426 44 l 426 86 l 444 86 q 447 86 449 85 q 451 84 453 84 q 456 83 457 80 q 459 78 459 74 q 459 69 456 66 q 455 65 452 64 q 450 64 447 62 q 449 62 450 62 q 450 61 451 61 q 452 59 455 54 l 463 44 l 456 44 l 450 52 q 448 54 448 56 q 447 57 446 58 q 446 60 445 60 q 444 60 443 61 l 442 61 q 441 61 441 62 q 441 62 440 62 l 438 62 l 431 62 l 431 44 z m 325 44 l 325 86 l 331 86 l 331 48 l 351 48 l 351 44 z m 629 58 l 634 57 q 632 49 628 47 q 624 43 617 43 q 611 43 607 45 q 604 47 603 49 q 602 51 600 53 q 598 61 598 65 q 598 69 600 77 q 605 82 607 83 q 610 84 612 85 q 614 86 617 86 q 620 86 623 85 q 626 84 628 83 q 630 81 632 79 q 633 77 634 74 l 628 73 q 628 77 624 79 q 622 80 617 80 q 611 80 609 79 q 607 78 606 76 q 606 75 604 73 q 604 71 604 69 q 603 67 603 65 q 603 59 606 56 q 606 54 607 52 q 608 51 609 49 q 612 48 617 48 q 622 48 625 51 q 628 54 629 58 z m 686 44 l 686 86 l 694 86 l 704 56 q 704 54 705 52 q 706 51 706 49 q 706 50 708 56 l 717 86 l 725 86 l 725 44 l 720 44 l 720 78 l 708 44 l 703 44 l 691 79 l 691 44 z m 395 61 l 409 61 l 404 73 q 403 75 403 76 q 403 78 401 80 q 401 77 399 73 z m 223 44 l 223 49 l 230 49 l 230 44 z m 551 44 l 551 86 l 556 86 l 556 48 l 577 48 l 577 44 z m 513 44 l 513 86 l 543 86 l 543 80 l 518 80 l 518 67 l 541 67 l 541 62 l 518 62 l 518 48 l 543 48 l 543 44 z m 365 44 l 365 61 l 349 86 l 356 86 l 364 73 q 366 67 368 66 q 369 67 370 69 q 371 71 373 73 l 381 86 l 387 86 l 370 61 l 370 44 z m 239 44 l 239 86 l 255 86 q 257 86 258 85 q 260 84 261 84 q 265 83 266 80 q 268 78 268 74 q 268 71 266 70 q 265 66 262 66 q 265 65 268 62 q 270 58 270 56 q 270 54 270 53 q 269 52 269 51 q 268 47 265 47 q 264 45 263 45 q 262 45 261 44 l 255 44 z m 125 44 l 113 86 l 119 86 l 125 58 q 126 55 126 53 q 126 51 127 49 q 128 54 128 57 l 136 86 l 143 86 l 149 64 q 152 55 152 49 q 153 51 153 53 q 153 55 154 58 l 161 86 l 166 86 l 154 44 l 149 44 l 141 75 q 140 78 140 80 q 139 78 139 75 l 130 44 z m 70 44 l 58 86 l 65 86 l 70 58 q 71 55 71 53 q 71 51 73 49 q 74 54 74 57 l 82 86 l 88 86 l 95 64 q 96 59 96 56 q 97 53 97 49 q 99 51 99 53 q 99 55 100 58 l 106 86 l 112 86 l 100 44 l 95 44 l 87 75 q 86 78 86 80 q 84 78 84 75 l 75 44 z m 244 67 l 253 67 q 257 67 258 69 q 261 69 261 70 q 262 71 262 74 q 262 77 261 78 l 260 78 q 259 78 259 78 q 259 79 258 79 q 257 80 252 80 l 244 80 z m 178 44 l 167 86 l 173 86 l 179 58 q 180 55 180 53 q 180 51 182 49 q 182 53 182 54 q 183 56 183 57 l 191 86 l 197 86 l 204 64 q 205 59 206 56 q 206 53 206 49 q 208 51 208 53 q 208 55 209 58 l 216 86 l 221 86 l 209 44 l 204 44 l 196 75 q 195 78 195 80 q 193 78 193 75 l 184 44 z m 431 66 l 443 66 q 445 66 446 66 q 448 67 450 67 q 452 67 452 70 q 453 71 453 74 q 453 77 451 79 q 450 80 444 80 l 431 80 z m 244 48 l 255 48 q 257 48 258 49 l 261 49 q 262 51 264 52 l 264 56 q 264 58 262 60 q 262 62 260 62 l 253 62 l 244 62 z m 278 44 l 278 86 l 283 86 l 283 44 z m 645 64 q 645 55 648 52 q 652 48 659 48 q 666 48 669 52 q 673 55 673 65 q 673 70 672 73 q 670 78 667 79 q 664 80 659 80 q 653 80 650 77 q 645 73 645 64 z m 639 64 q 639 75 645 80 q 649 86 659 86 q 662 86 664 85 q 667 84 669 83 q 672 82 674 80 q 675 78 677 75 q 678 73 678 65 q 678 56 676 53 q 673 48 669 45 q 665 43 659 43 q 656 43 654 44 q 651 44 648 45 q 646 47 644 49 q 643 51 642 53 q 641 56 640 58 q 639 61 639 64 z m 383 44 l 399 86 l 405 86 l 422 44 l 416 44 l 411 56 l 394 56 l 388 44 z m 294 44 l 294 86 l 299 86 l 299 48 l 318 48 l 318 44 z m 583 44 l 583 49 l 590 49 l 590 44 z m 487 60 l 487 65 l 504 65 l 504 49 q 500 45 496 44 q 494 44 492 44 q 489 43 487 43 q 481 43 477 45 q 474 47 472 48 q 470 50 469 53 q 468 56 467 58 q 466 61 466 64 q 466 68 467 70 q 468 72 469 75 q 471 81 476 83 q 478 84 481 85 q 484 86 487 86 q 492 86 495 84 q 499 83 500 80 q 503 77 504 74 l 499 73 q 499 74 496 77 q 496 79 492 80 l 487 80 l 481 80 q 478 79 476 77 q 476 76 473 73 q 473 71 472 69 q 472 67 472 65 q 472 58 474 56 q 478 50 479 49 q 482 48 487 48 q 491 48 494 49 q 496 51 497 51 q 498 51 499 52 l 499 60 z m 426 44 l 426 86 l 444 86 q 447 86 449 85 q 451 84 453 84 q 456 83 457 80 q 459 78 459 74 q 459 69 456 66 q 455 65 452 64 q 450 64 447 62 q 449 62 450 62 q 450 61 451 61 q 452 59 455 54 l 463 44 l 456 44 l 450 52 q 448 54 448 56 q 447 57 446 58 q 446 60 445 60 q 444 60 443 61 l 442 61 q 441 61 441 62 q 441 62 440 62 l 438 62 l 431 62 l 431 44 z m 325 44 l 325 86 l 331 86 l 331 48 l 351 48 l 351 44 z m 629 58 l 634 57 q 632 49 628 47 q 624 43 617 43 q 611 43 607 45 q 604 47 603 49 q 602 51 600 53 q 598 61 598 65 q 598 69 600 77 q 605 82 607 83 q 610 84 612 85 q 614 86 617 86 q 620 86 623 85 q 626 84 628 83 q 630 81 632 79 q 633 77 634 74 l 628 73 q 628 77 624 79 q 622 80 617 80 q 611 80 609 79 q 607 78 606 76 q 606 75 604 73 q 604 71 604 69 q 603 67 603 65 q 603 59 606 56 q 606 54 607 52 q 608 51 609 49 q 612 48 617 48 q 622 48 625 51 q 628 54 629 58 z m 686 44 l 686 86 l 694 86 l 704 56 q 704 54 705 52 q 706 51 706 49 q 706 50 708 56 l 717 86 l 725 86 l 725 44 l 720 44 l 720 78 l 708 44 l 703 44 l 691 79 l 691 44 z m 105 121 l 113 118 q 111 109 104 103 q 96 97 87 97 q 78 97 70 101 q 62 107 61 113 q 57 120 57 130 q 57 141 61 148 q 64 155 71 158 q 78 162 87 162 q 98 162 102 157 q 109 155 112 144 l 104 143 q 100 151 97 152 q 94 156 87 156 q 79 156 75 152 q 69 148 67 143 q 66 139 66 130 q 66 121 69 117 q 71 110 75 108 q 80 104 86 104 q 94 104 99 109 q 101 111 102 114 q 104 117 105 121 z m 121 129 q 121 137 123 143 q 125 149 130 153 q 134 158 140 160 q 145 162 151 162 q 160 162 167 158 q 173 155 178 147 q 182 137 182 130 q 182 125 181 121 q 180 117 178 113 q 173 105 166 101 q 158 97 151 97 q 146 97 142 98 q 139 99 135 101 q 128 105 125 113 q 121 120 121 129 z m 130 129 q 130 117 135 110 q 142 104 151 104 q 161 104 166 112 q 173 119 173 130 q 173 134 172 137 q 171 140 170 143 q 168 150 162 152 q 159 156 151 156 q 143 156 136 149 q 130 144 130 129 z m 192 99 l 192 161 l 204 161 l 219 117 q 222 111 222 108 q 224 110 226 118 l 242 161 l 252 161 l 252 99 l 244 99 l 244 151 l 226 99 l 218 99 l 200 152 l 200 99 z m 266 99 l 266 161 l 290 161 l 299 161 q 304 161 307 158 q 308 157 312 152 q 313 150 314 148 q 314 146 314 143 q 314 137 309 130 q 304 125 290 125 l 274 125 l 274 99 z m 274 131 l 291 131 q 300 131 301 135 q 305 136 305 143 q 305 148 304 149 q 300 153 297 153 q 296 155 290 155 l 274 155 z m 325 99 l 325 161 l 333 161 l 333 105 l 364 105 l 364 99 z m 374 99 l 374 161 l 420 161 l 420 155 l 382 155 l 382 135 l 417 135 l 417 127 l 382 127 l 382 105 l 421 105 l 421 99 z m 448 99 l 448 155 l 427 155 l 427 161 l 478 161 l 478 155 l 457 155 l 457 99 z m 487 99 l 487 161 l 533 161 l 533 155 l 495 155 l 495 135 l 530 135 l 530 127 l 495 127 l 495 105 l 534 105 l 534 99 z m 568 118 l 576 119 q 576 114 578 112 q 580 108 585 106 q 587 105 594 105 q 596 105 598 105 q 601 105 603 106 q 606 106 608 110 q 609 112 609 116 q 609 119 608 121 q 607 122 606 122 q 604 123 602 125 q 601 125 591 127 q 586 129 583 130 q 580 130 578 131 q 574 133 572 138 q 570 139 570 141 q 569 143 569 145 q 569 151 573 155 q 574 157 576 158 q 578 159 581 161 q 583 162 593 162 q 600 162 604 160 q 607 158 609 157 q 611 156 612 153 q 616 150 616 144 l 608 143 q 606 151 603 152 q 600 155 593 155 q 583 155 581 152 q 578 149 578 145 q 578 142 581 140 q 581 140 593 135 q 598 134 602 133 q 605 132 607 131 q 610 130 612 128 q 613 127 615 125 q 617 122 617 116 q 617 109 615 106 q 611 102 607 100 q 604 99 601 98 q 598 97 594 97 q 590 97 586 98 q 582 99 580 100 q 575 101 570 108 q 568 112 568 118 z m 629 99 l 629 161 l 674 161 l 674 155 l 638 155 l 638 135 l 673 135 l 673 127 l 638 127 l 638 105 l 676 105 l 676 99 z m 704 99 l 704 155 l 684 155 l 684 161 l 733 161 l 733 155 l 712 155 l 712 99 z m 63 174 l 63 236 l 88 236 l 97 236 q 99 236 105 234 q 106 233 108 231 q 109 229 110 227 q 112 225 112 220 q 112 211 106 205 q 103 200 88 200 l 73 200 l 73 174 z m 73 208 l 88 208 q 97 208 100 210 q 104 214 104 218 q 104 220 103 222 q 102 224 101 226 q 98 229 96 229 q 95 230 88 230 l 73 230 z m 122 174 l 122 236 l 167 236 l 167 230 l 131 230 l 131 210 l 165 210 l 165 203 l 131 203 l 131 182 l 169 182 l 169 174 z m 180 174 l 180 236 l 209 236 q 218 236 222 235 q 227 233 229 230 q 231 222 231 220 q 231 213 227 209 q 223 205 213 203 q 215 201 216 201 q 217 201 218 200 q 223 195 225 191 l 236 174 l 226 174 l 217 187 q 216 190 214 192 q 213 194 212 196 q 210 197 210 198 q 209 200 208 200 q 206 201 204 201 q 203 203 199 203 l 190 203 l 190 174 z m 190 209 l 206 209 q 214 209 216 210 q 219 213 221 214 q 222 216 222 220 q 222 224 219 227 q 216 230 209 230 l 190 230 z m 242 195 l 249 195 q 249 193 250 191 q 251 189 252 187 q 253 186 254 184 q 256 183 258 183 q 264 181 268 181 q 270 181 272 181 q 274 181 275 182 q 281 184 282 186 q 282 187 282 188 q 283 190 283 191 q 283 195 282 196 q 279 198 275 200 q 274 201 272 201 q 269 201 265 203 q 256 204 252 207 q 247 211 245 213 q 244 216 244 221 q 244 223 244 226 q 245 228 247 230 q 248 234 255 236 q 257 238 266 238 q 274 238 278 236 q 284 233 286 229 q 290 223 290 220 l 282 218 q 280 225 277 227 q 273 231 266 231 q 258 231 255 227 q 252 225 252 221 q 252 217 255 216 q 256 214 266 212 q 275 208 281 208 q 283 206 285 204 q 287 203 288 201 q 291 198 291 192 q 291 187 288 183 q 286 180 284 178 q 283 177 281 175 q 273 173 268 173 q 261 173 253 175 q 250 177 248 178 q 246 180 244 183 q 243 186 242 188 q 242 191 242 195 z m 300 205 q 300 219 308 229 q 317 238 330 238 q 334 238 338 237 q 341 236 346 234 q 350 232 352 229 q 354 226 356 222 q 360 215 360 205 q 360 196 356 188 q 352 181 346 177 q 338 173 330 173 q 321 173 314 178 q 305 183 304 190 q 300 195 300 205 z m 308 205 q 308 193 314 187 q 320 181 330 181 q 340 181 346 187 q 351 194 351 205 q 351 209 350 213 q 350 217 348 220 q 345 225 342 227 q 337 231 330 231 q 325 231 322 230 q 319 228 314 225 q 308 219 308 205 z m 370 174 l 370 236 l 379 236 l 412 188 l 412 236 l 420 236 l 420 174 l 412 174 l 378 223 l 378 174 z m 427 174 l 451 236 l 460 236 l 486 174 l 476 174 l 469 194 l 443 194 l 435 174 z m 444 200 l 466 200 l 460 217 q 458 221 457 224 q 456 228 455 230 q 455 227 454 224 q 453 221 452 218 z m 491 174 l 491 236 l 500 236 l 500 182 l 531 182 l 531 174 z m 603 236 l 611 236 l 611 201 q 611 190 609 186 q 607 180 602 177 q 597 173 587 173 q 577 173 573 177 q 570 178 568 180 q 566 183 564 186 q 563 188 563 201 l 563 236 l 570 236 l 570 201 q 570 191 572 188 q 574 184 577 183 q 579 182 581 182 q 583 181 586 181 q 594 181 599 184 q 603 188 603 201 z m 622 195 l 630 195 q 630 193 631 191 q 632 189 633 187 q 634 186 636 184 q 637 183 639 183 q 645 181 648 181 q 655 181 658 182 q 660 183 663 186 q 664 187 664 191 q 664 195 663 196 q 661 197 660 198 q 660 199 658 200 q 656 201 653 201 q 650 201 646 203 q 642 204 638 204 q 635 205 634 207 q 629 209 628 213 q 625 216 625 221 q 625 225 628 230 q 629 234 635 236 q 639 238 647 238 q 650 238 654 238 q 657 238 659 236 q 665 233 668 229 q 669 227 670 224 q 671 222 671 220 l 663 218 q 661 221 660 224 q 660 226 658 227 q 655 231 647 231 q 638 231 637 227 q 633 226 633 221 q 633 218 635 216 q 637 214 647 212 q 658 208 661 208 q 664 206 666 204 q 668 203 669 201 q 672 199 672 192 q 672 186 669 183 q 668 180 666 178 q 664 177 661 175 q 655 173 650 173 q 645 173 642 174 q 638 174 635 175 q 633 177 630 178 q 628 180 626 183 q 624 186 623 188 q 622 191 622 195 z m 684 174 l 684 236 l 729 236 l 729 230 l 693 230 l 693 210 l 726 210 l 726 203 l 693 203 l 693 182 l 730 182 l 730 174 z m 192 312 q 192 322 177 324 q 175 324 172 324 q 169 325 165 325 l 159 318 l 143 301 q 139 296 136 292 q 132 288 127 285 q 133 283 142 282 q 144 282 148 282 q 151 282 154 283 q 169 284 177 291 q 192 303 192 312 z m 203 342 q 203 346 198 346 q 196 346 181 341 l 170 331 q 168 329 166 325 l 183 328 q 187 328 194 333 q 203 339 203 342 z m 216 360 q 216 358 213 358 q 211 358 210 358 q 210 359 208 359 q 198 357 185 344 q 187 346 190 347 q 192 348 194 349 q 201 350 207 349 q 211 349 211 344 l 211 340 q 206 331 183 326 q 201 324 201 314 q 201 302 182 289 q 175 285 168 282 q 160 280 152 279 q 139 276 132 277 q 126 277 119 280 q 113 276 108 276 l 106 276 q 100 278 96 279 l 99 279 q 107 279 112 283 l 112 284 q 105 280 97 280 q 86 280 80 286 q 70 293 70 307 q 70 311 71 314 q 72 318 74 323 q 81 338 98 349 q 103 354 108 356 q 114 357 119 358 q 130 358 134 354 q 129 357 124 357 q 118 357 111 353 q 101 349 100 347 q 90 342 80 330 q 71 316 71 306 q 71 301 72 298 q 73 295 75 292 q 79 286 86 284 q 89 283 91 282 q 93 282 95 282 q 99 282 102 283 q 105 284 109 286 q 98 294 98 308 q 100 321 114 331 l 112 328 q 110 328 108 324 q 102 318 102 311 q 102 298 117 289 q 125 294 125 295 q 127 298 129 300 q 131 302 133 304 q 135 306 136 309 q 136 312 138 315 l 138 314 q 138 309 137 306 l 149 320 q 180 355 200 361 q 191 364 186 364 q 173 363 158 355 q 140 346 140 333 q 140 329 143 326 q 144 325 144 324 q 138 328 138 334 q 138 345 151 356 q 167 368 185 366 q 191 366 203 362 l 207 362 q 212 362 215 360 z m 218 295 q 217 291 210 284 q 203 280 198 280 q 193 280 193 286 q 193 291 199 299 l 198 299 q 197 298 194 298 q 194 298 193 299 q 196 299 203 306 l 204 306 l 207 310 q 210 313 210 315 l 213 315 q 216 315 216 314 q 216 310 210 303 l 203 296 q 197 287 197 284 q 197 281 201 281 q 206 281 213 291 q 214 292 215 292 q 216 293 218 295 z m 223 323 q 219 317 213 317 q 210 317 206 320 l 209 320 q 216 320 218 327 l 218 329 l 223 327 q 224 326 223 323 z m 258 342 q 258 337 227 300 l 226 300 q 217 289 217 283 q 217 280 220 280 q 226 280 233 290 q 234 291 235 292 q 236 292 237 294 q 237 289 229 283 q 224 279 218 279 q 212 280 212 285 q 211 290 232 316 l 244 331 l 250 337 q 253 341 255 347 q 258 345 258 342 z m 275 342 q 275 338 243 300 q 233 288 233 283 q 233 280 237 280 q 241 280 250 290 l 254 294 q 253 289 245 283 q 240 279 234 279 q 228 280 228 285 q 228 291 248 316 l 260 331 l 266 337 q 271 343 272 347 q 275 345 275 342 z m 256 275 q 240 272 231 263 q 224 254 224 252 q 224 248 228 248 q 229 247 235 249 q 237 251 240 254 q 242 256 245 259 z m 285 340 q 283 326 272 315 q 272 314 272 314 q 271 314 271 313 q 268 309 264 306 q 261 302 258 297 q 256 295 256 293 q 255 295 257 299 q 251 290 251 285 q 251 282 254 282 q 255 282 259 284 q 274 296 280 318 l 280 315 l 280 312 q 282 310 282 307 q 282 305 277 297 l 269 284 l 260 272 q 263 274 271 278 l 270 277 q 268 275 264 272 q 261 270 258 265 l 250 255 l 246 250 q 240 244 233 242 q 227 242 224 246 q 218 248 222 255 q 223 256 224 258 q 225 260 227 262 l 228 263 l 221 262 q 238 274 249 275 q 250 275 251 276 q 252 276 253 276 l 254 276 l 256 276 l 262 285 q 258 281 255 280 q 252 280 250 280 q 245 280 245 285 q 245 297 266 316 l 268 317 l 278 327 q 280 331 282 334 q 284 337 285 340 z m 399 355 q 393 357 389 357 q 379 357 370 354 q 362 352 353 347 q 349 345 346 342 q 344 340 341 338 q 353 337 373 325 q 395 347 411 353 z m 420 351 q 416 350 412 348 q 407 347 402 342 q 399 340 387 328 l 380 321 l 390 315 q 392 318 396 322 q 400 327 405 333 z m 429 368 q 429 367 428 366 q 428 359 425 352 l 426 351 l 425 351 q 420 339 412 331 l 396 312 q 398 311 399 311 q 400 311 402 310 q 402 308 401 308 q 399 308 398 308 q 397 309 395 310 q 383 297 382 286 q 380 282 380 280 q 380 276 384 276 q 392 276 401 289 l 405 295 q 415 309 418 320 l 418 323 q 418 322 419 321 l 419 320 q 417 306 409 294 l 396 268 q 396 272 399 281 q 387 272 381 272 q 372 272 374 284 q 374 290 378 298 q 382 305 388 314 l 378 319 l 369 310 q 366 306 360 300 q 355 294 347 284 q 331 268 319 268 l 316 268 q 313 268 307 271 q 307 271 309 271 q 318 269 327 278 q 319 274 308 274 q 297 274 290 279 l 291 279 q 281 286 281 300 q 281 310 285 315 q 291 331 308 342 q 314 347 320 348 q 325 350 331 351 q 341 351 345 347 l 344 347 q 342 349 335 349 q 325 349 310 340 q 299 332 291 323 q 282 309 282 298 q 282 282 297 277 q 303 275 306 275 q 327 276 352 303 l 371 323 q 356 332 337 332 l 336 332 q 334 328 334 323 q 335 323 339 317 q 332 321 332 327 q 332 330 333 332 q 323 330 320 328 q 302 321 304 307 q 304 298 310 291 l 312 289 q 300 301 300 310 q 300 323 312 332 q 322 339 337 339 q 351 355 372 358 q 377 359 388 359 q 393 359 403 357 l 415 354 l 421 354 l 422 353 q 426 360 428 370 l 429 370 z m 442 303 q 442 300 441 298 q 436 293 432 289 q 429 285 426 280 l 427 280 l 428 280 q 427 279 426 279 q 425 279 425 278 q 420 278 420 280 q 420 284 429 293 q 436 302 436 304 q 437 307 433 310 q 421 293 412 289 l 408 287 l 406 288 q 410 288 419 298 q 428 306 431 311 q 431 312 430 312 q 430 312 430 313 q 430 314 437 320 q 437 321 438 321 l 439 320 q 439 319 434 312 q 442 309 442 303 z m 471 306 q 471 312 467 310 q 463 310 461 308 q 458 306 452 298 q 446 290 446 285 q 445 283 448 283 q 454 285 458 290 q 462 298 462 301 q 462 303 461 303 q 465 303 465 298 l 464 296 q 466 298 468 300 q 469 303 471 305 z m 490 315 q 486 315 481 310 q 477 305 473 299 q 469 293 464 285 q 459 275 455 270 q 451 264 450 262 q 437 246 430 246 q 424 245 421 250 q 421 255 421 255 q 421 260 425 264 q 423 263 420 263 q 430 273 442 276 q 443 276 444 276 q 444 277 446 277 l 447 276 q 428 270 424 258 q 423 256 423 253 q 423 252 424 251 q 424 250 425 250 q 433 249 444 265 l 451 275 l 455 281 q 452 280 450 280 q 442 280 442 288 q 442 297 455 309 q 461 315 466 315 q 473 315 473 307 l 474 307 l 479 313 q 484 318 488 318 q 491 318 493 315 z m 508 308 q 508 302 497 296 q 496 295 495 295 l 494 295 q 491 295 488 300 q 490 298 493 298 q 500 302 502 309 l 502 311 l 502 312 l 502 313 q 498 313 489 304 l 489 303 q 486 299 486 296 q 485 294 485 292 q 484 293 484 298 q 482 294 481 291 q 479 287 479 284 q 479 283 480 282 q 480 280 484 280 q 494 284 501 290 q 503 292 506 294 q 504 291 502 288 q 500 286 495 283 q 487 278 481 280 q 481 279 480 280 q 474 280 474 286 q 474 296 485 306 q 491 315 501 315 q 503 315 504 314 q 508 311 508 308 z m 548 342 q 548 338 516 300 q 507 289 507 283 q 507 280 510 280 q 516 280 523 290 q 524 291 525 292 q 526 292 527 294 q 527 289 519 283 q 514 279 507 279 q 502 281 502 285 q 502 293 521 316 l 533 331 l 539 337 q 545 343 545 347 q 548 345 548 342 z m 602 311 q 585 317 584 330 q 579 327 574 324 q 569 322 566 319 q 547 301 547 286 q 547 280 550 279 l 552 279 l 554 279 q 569 279 582 289 q 586 293 592 298 q 597 303 602 311 z m 622 340 l 614 340 q 602 339 585 331 q 587 317 604 314 l 611 323 z m 640 358 q 627 358 616 356 q 606 354 598 349 q 603 354 610 357 q 618 360 627 362 q 607 363 592 350 q 589 348 585 340 q 592 342 598 343 q 605 344 613 343 q 615 343 618 343 q 621 343 626 342 q 628 345 632 349 q 635 353 640 358 z m 703 359 q 701 356 698 354 q 696 351 691 349 q 683 344 676 344 l 674 344 q 673 344 672 345 q 673 346 673 347 q 673 348 675 350 q 666 357 650 357 l 646 352 l 636 340 q 644 339 651 338 q 658 337 664 337 q 678 337 683 340 q 679 336 668 334 q 659 332 650 335 l 634 338 q 630 333 626 330 q 623 326 621 322 l 614 312 l 619 312 q 644 314 648 324 l 649 324 q 646 318 636 313 q 631 311 626 310 q 622 309 618 309 l 613 309 q 606 301 602 295 q 597 289 593 285 q 580 271 569 271 q 564 272 558 272 q 568 272 579 282 q 565 276 557 276 l 551 277 l 559 269 q 551 273 546 278 q 545 278 541 280 q 529 289 528 303 q 528 308 528 312 q 528 316 530 320 q 533 329 538 336 q 543 342 550 349 q 567 364 580 364 q 587 364 592 360 l 591 359 q 588 362 582 362 q 569 360 555 349 q 543 339 537 329 q 529 315 529 303 q 531 285 545 280 q 543 286 544 292 q 546 307 555 318 q 566 332 585 340 q 587 342 587 346 l 596 355 q 609 366 630 366 q 635 366 638 366 q 642 366 647 365 l 648 365 q 655 370 660 372 q 666 375 672 374 q 676 374 678 372 q 667 370 667 370 q 665 369 662 368 q 660 367 657 365 q 661 364 665 364 q 669 363 674 361 q 684 358 690 358 q 699 358 703 359 z m 642 289 q 639 292 639 296 q 639 298 640 300 q 640 301 640 303 q 630 290 631 284 q 631 282 633 282 q 635 282 642 289 z m 655 310 q 655 312 653 312 q 651 312 649 311 q 648 310 646 306 q 641 296 641 293 q 641 290 642 289 l 645 292 l 645 293 l 645 292 q 646 293 646 294 q 646 294 647 295 q 649 301 649 303 q 649 304 648 305 q 650 301 650 300 q 653 303 655 310 z m 659 307 q 659 302 652 292 q 643 283 639 280 l 631 280 q 625 280 625 285 q 625 293 636 306 q 643 315 652 315 q 659 315 659 307 z m 692 309 q 693 307 688 298 q 682 290 680 288 l 668 277 q 661 270 659 262 q 660 274 668 283 q 672 287 674 290 q 676 293 678 297 q 679 298 680 301 l 680 298 q 680 298 679 296 q 681 298 685 306 q 685 307 686 308 q 686 308 686 309 q 686 314 681 312 q 681 312 673 306 q 671 301 668 298 q 664 294 660 289 q 655 283 654 280 q 653 279 649 271 q 649 273 648 276 q 648 278 649 280 q 651 287 658 294 l 664 301 q 669 308 669 312 q 669 313 668 314 q 668 315 668 316 q 674 314 674 310 q 680 315 687 315 q 691 313 692 309 z m 731 323 l 716 323 q 715 321 710 315 q 704 309 696 298 q 694 298 692 293 q 688 288 688 283 q 688 280 690 280 q 695 280 704 290 l 705 291 q 706 292 706 292 q 706 293 707 294 q 707 289 700 283 q 695 279 688 279 q 683 281 682 285 q 682 287 686 295 l 698 309 l 709 323 l 692 325 q 688 326 682 326 l 673 326 q 661 326 649 321 l 648 321 q 658 331 679 331 q 680 331 688 330 q 695 328 709 326 l 712 325 q 715 330 718 334 q 720 337 722 340 q 724 339 724 335 q 724 332 722 330 l 718 324 l 726 323 l 732 323 l 733 323 l 736 323 z m 738 310 q 738 307 731 304 l 730 303 q 733 306 733 311 l 733 315 l 730 315 q 725 315 724 311 q 724 309 727 294 q 728 280 711 280 q 702 280 700 286 q 699 287 699 289 q 699 297 711 299 l 715 298 l 713 298 q 709 298 707 296 q 704 291 704 289 q 704 281 712 281 q 720 281 720 292 q 720 297 719 300 q 718 303 718 307 q 718 317 727 317 q 729 317 730 316 q 731 316 733 316 q 737 314 737 313 q 738 312 738 310 z"},"J":{"x_min":0,"x_max":773,"ha":773,"o":"m 395 330 q 406 324 403 310 q 400 297 389 280 q 378 264 360 248 q 342 231 322 220 q 302 208 282 205 q 262 202 246 213 q 185 271 163 348 q 141 424 148 510 q 155 595 186 683 q 217 771 262 852 q 307 933 360 1001 q 414 1069 466 1114 q 519 1159 565 1175 q 611 1191 640 1168 q 642 1162 642 1160 q 654 1145 661 1090 q 668 1036 670 956 q 672 875 670 774 q 668 672 662 563 q 657 454 649 344 q 641 233 631 134 q 621 34 610 -48 q 598 -131 586 -184 q 560 -277 496 -343 q 433 -409 339 -450 q 314 -461 278 -468 q 242 -474 202 -474 q 163 -473 124 -464 q 85 -455 54 -436 q 24 -417 6 -386 q -13 -355 -11 -310 q -10 -280 -4 -250 q 3 -219 14 -192 q 26 -165 42 -144 q 57 -124 77 -115 q 103 -102 134 -88 q 164 -74 193 -66 q 222 -57 246 -58 q 269 -58 281 -74 q 286 -80 278 -94 q 269 -107 255 -126 q 241 -146 224 -169 q 206 -192 193 -218 q 180 -243 174 -268 q 168 -294 177 -318 q 188 -350 222 -370 q 255 -391 300 -389 q 348 -386 374 -356 q 400 -327 414 -287 q 427 -247 432 -205 q 438 -163 445 -136 q 448 -86 454 -6 q 459 73 465 172 q 471 270 476 380 q 480 490 482 602 q 484 713 482 818 q 479 924 470 1013 q 432 971 400 918 q 368 866 346 806 q 323 747 312 684 q 301 621 306 559 q 310 497 331 438 q 352 380 395 330 z"},"V":{"x_min":0,"x_max":1171,"ha":1171,"o":"m 693 1154 q 696 1151 698 1148 q 701 1146 702 1142 q 726 1078 744 994 q 761 909 772 815 q 784 721 792 622 q 799 523 804 430 q 808 337 810 255 q 813 173 815 112 q 817 52 820 18 q 823 -15 828 -12 q 844 -2 860 47 q 875 96 890 171 q 906 246 922 341 q 938 436 956 540 q 973 644 992 750 q 1011 856 1032 952 q 1052 1048 1075 1129 q 1098 1210 1124 1263 q 1132 1279 1152 1288 q 1173 1296 1192 1298 q 1212 1299 1224 1292 q 1237 1285 1228 1270 q 1167 1102 1126 946 q 1084 789 1056 650 q 1028 512 1010 394 q 992 275 980 182 q 967 89 956 25 q 945 -39 931 -68 q 913 -96 886 -122 q 860 -149 831 -169 q 802 -189 773 -200 q 744 -211 721 -206 q 698 -202 683 -180 q 668 -157 668 -111 q 666 5 660 124 q 654 242 644 356 q 635 469 623 574 q 611 679 598 768 q 584 856 570 924 q 556 993 543 1035 q 541 1043 529 1044 q 517 1045 491 1039 q 425 1025 360 1001 q 294 977 241 946 q 188 914 152 878 q 115 841 105 802 q 95 764 118 724 q 140 685 205 649 q 219 641 220 624 q 220 608 212 588 q 203 569 188 549 q 173 529 156 514 q 140 499 124 492 q 108 485 97 491 q 36 525 8 585 q -20 645 -14 716 q -8 787 33 862 q 74 938 152 1003 q 229 1068 344 1115 q 460 1162 615 1177 q 632 1179 654 1175 q 676 1171 692 1154 z"},"7":{"x_min":0,"x_max":813,"ha":813,"o":"m 572 568 l 481 485 l 505 361 l 398 424 l 288 361 l 314 482 l 222 568 l 346 581 l 398 695 l 448 582 z m 443 431 l 414 603 l 379 603 l 349 431 l 364 422 l 377 431 l 383 470 l 409 470 l 416 431 l 430 422 z m 407 495 l 387 495 l 396 563 z m 395 61 l 409 61 l 404 73 q 403 75 403 76 q 403 78 401 80 q 401 77 399 73 z m 223 44 l 223 49 l 230 49 l 230 44 z m 551 44 l 551 86 l 556 86 l 556 48 l 577 48 l 577 44 z m 513 44 l 513 86 l 543 86 l 543 80 l 518 80 l 518 67 l 541 67 l 541 62 l 518 62 l 518 48 l 543 48 l 543 44 z m 365 44 l 365 61 l 349 86 l 356 86 l 364 73 q 366 67 368 66 q 369 67 370 69 q 371 71 373 73 l 381 86 l 387 86 l 370 61 l 370 44 z m 239 44 l 239 86 l 255 86 q 257 86 258 85 q 260 84 261 84 q 265 83 266 80 q 268 78 268 74 q 268 71 266 70 q 265 66 262 66 q 265 65 268 62 q 270 58 270 56 q 270 54 270 53 q 269 52 269 51 q 268 47 265 47 q 264 45 263 45 q 262 45 261 44 l 255 44 z m 125 44 l 113 86 l 119 86 l 125 58 q 126 55 126 53 q 126 51 127 49 q 128 54 128 57 l 136 86 l 143 86 l 149 64 q 152 55 152 49 q 153 51 153 53 q 153 55 154 58 l 161 86 l 166 86 l 154 44 l 149 44 l 141 75 q 140 78 140 80 q 139 78 139 75 l 130 44 z m 70 44 l 58 86 l 65 86 l 70 58 q 71 55 71 53 q 71 51 73 49 q 74 54 74 57 l 82 86 l 88 86 l 95 64 q 96 59 96 56 q 97 53 97 49 q 99 51 99 53 q 99 55 100 58 l 106 86 l 112 86 l 100 44 l 95 44 l 87 75 q 86 78 86 80 q 84 78 84 75 l 75 44 z m 244 67 l 253 67 q 257 67 258 69 q 261 69 261 70 q 262 71 262 74 q 262 77 261 78 l 260 78 q 259 78 259 78 q 259 79 258 79 q 257 80 252 80 l 244 80 z m 178 44 l 167 86 l 173 86 l 179 58 q 180 55 180 53 q 180 51 182 49 q 182 53 182 54 q 183 56 183 57 l 191 86 l 197 86 l 204 64 q 205 59 206 56 q 206 53 206 49 q 208 51 208 53 q 208 55 209 58 l 216 86 l 221 86 l 209 44 l 204 44 l 196 75 q 195 78 195 80 q 193 78 193 75 l 184 44 z m 431 66 l 443 66 q 445 66 446 66 q 448 67 450 67 q 452 67 452 70 q 453 71 453 74 q 453 77 451 79 q 450 80 444 80 l 431 80 z m 244 48 l 255 48 q 257 48 258 49 l 261 49 q 262 51 264 52 l 264 56 q 264 58 262 60 q 262 62 260 62 l 253 62 l 244 62 z m 278 44 l 278 86 l 283 86 l 283 44 z m 645 64 q 645 55 648 52 q 652 48 659 48 q 666 48 669 52 q 673 55 673 65 q 673 70 672 73 q 670 78 667 79 q 664 80 659 80 q 653 80 650 77 q 645 73 645 64 z m 639 64 q 639 75 645 80 q 649 86 659 86 q 662 86 664 85 q 667 84 669 83 q 672 82 674 80 q 675 78 677 75 q 678 73 678 65 q 678 56 676 53 q 673 48 669 45 q 665 43 659 43 q 656 43 654 44 q 651 44 648 45 q 646 47 644 49 q 643 51 642 53 q 641 56 640 58 q 639 61 639 64 z m 383 44 l 399 86 l 405 86 l 422 44 l 416 44 l 411 56 l 394 56 l 388 44 z m 294 44 l 294 86 l 299 86 l 299 48 l 318 48 l 318 44 z m 583 44 l 583 49 l 590 49 l 590 44 z m 487 60 l 487 65 l 504 65 l 504 49 q 500 45 496 44 q 494 44 492 44 q 489 43 487 43 q 481 43 477 45 q 474 47 472 48 q 470 50 469 53 q 468 56 467 58 q 466 61 466 64 q 466 68 467 70 q 468 72 469 75 q 471 81 476 83 q 478 84 481 85 q 484 86 487 86 q 492 86 495 84 q 499 83 500 80 q 503 77 504 74 l 499 73 q 499 74 496 77 q 496 79 492 80 l 487 80 l 481 80 q 478 79 476 77 q 476 76 473 73 q 473 71 472 69 q 472 67 472 65 q 472 58 474 56 q 478 50 479 49 q 482 48 487 48 q 491 48 494 49 q 496 51 497 51 q 498 51 499 52 l 499 60 z m 426 44 l 426 86 l 444 86 q 447 86 449 85 q 451 84 453 84 q 456 83 457 80 q 459 78 459 74 q 459 69 456 66 q 455 65 452 64 q 450 64 447 62 q 449 62 450 62 q 450 61 451 61 q 452 59 455 54 l 463 44 l 456 44 l 450 52 q 448 54 448 56 q 447 57 446 58 q 446 60 445 60 q 444 60 443 61 l 442 61 q 441 61 441 62 q 441 62 440 62 l 438 62 l 431 62 l 431 44 z m 325 44 l 325 86 l 331 86 l 331 48 l 351 48 l 351 44 z m 629 58 l 634 57 q 632 49 628 47 q 624 43 617 43 q 611 43 607 45 q 604 47 603 49 q 602 51 600 53 q 598 61 598 65 q 598 69 600 77 q 605 82 607 83 q 610 84 612 85 q 614 86 617 86 q 620 86 623 85 q 626 84 628 83 q 630 81 632 79 q 633 77 634 74 l 628 73 q 628 77 624 79 q 622 80 617 80 q 611 80 609 79 q 607 78 606 76 q 606 75 604 73 q 604 71 604 69 q 603 67 603 65 q 603 59 606 56 q 606 54 607 52 q 608 51 609 49 q 612 48 617 48 q 622 48 625 51 q 628 54 629 58 z m 686 44 l 686 86 l 694 86 l 704 56 q 704 54 705 52 q 706 51 706 49 q 706 50 708 56 l 717 86 l 725 86 l 725 44 l 720 44 l 720 78 l 708 44 l 703 44 l 691 79 l 691 44 z m 395 61 l 409 61 l 404 73 q 403 75 403 76 q 403 78 401 80 q 401 77 399 73 z m 223 44 l 223 49 l 230 49 l 230 44 z m 551 44 l 551 86 l 556 86 l 556 48 l 577 48 l 577 44 z m 513 44 l 513 86 l 543 86 l 543 80 l 518 80 l 518 67 l 541 67 l 541 62 l 518 62 l 518 48 l 543 48 l 543 44 z m 365 44 l 365 61 l 349 86 l 356 86 l 364 73 q 366 67 368 66 q 369 67 370 69 q 371 71 373 73 l 381 86 l 387 86 l 370 61 l 370 44 z m 239 44 l 239 86 l 255 86 q 257 86 258 85 q 260 84 261 84 q 265 83 266 80 q 268 78 268 74 q 268 71 266 70 q 265 66 262 66 q 265 65 268 62 q 270 58 270 56 q 270 54 270 53 q 269 52 269 51 q 268 47 265 47 q 264 45 263 45 q 262 45 261 44 l 255 44 z m 125 44 l 113 86 l 119 86 l 125 58 q 126 55 126 53 q 126 51 127 49 q 128 54 128 57 l 136 86 l 143 86 l 149 64 q 152 55 152 49 q 153 51 153 53 q 153 55 154 58 l 161 86 l 166 86 l 154 44 l 149 44 l 141 75 q 140 78 140 80 q 139 78 139 75 l 130 44 z m 70 44 l 58 86 l 65 86 l 70 58 q 71 55 71 53 q 71 51 73 49 q 74 54 74 57 l 82 86 l 88 86 l 95 64 q 96 59 96 56 q 97 53 97 49 q 99 51 99 53 q 99 55 100 58 l 106 86 l 112 86 l 100 44 l 95 44 l 87 75 q 86 78 86 80 q 84 78 84 75 l 75 44 z m 244 67 l 253 67 q 257 67 258 69 q 261 69 261 70 q 262 71 262 74 q 262 77 261 78 l 260 78 q 259 78 259 78 q 259 79 258 79 q 257 80 252 80 l 244 80 z m 178 44 l 167 86 l 173 86 l 179 58 q 180 55 180 53 q 180 51 182 49 q 182 53 182 54 q 183 56 183 57 l 191 86 l 197 86 l 204 64 q 205 59 206 56 q 206 53 206 49 q 208 51 208 53 q 208 55 209 58 l 216 86 l 221 86 l 209 44 l 204 44 l 196 75 q 195 78 195 80 q 193 78 193 75 l 184 44 z m 431 66 l 443 66 q 445 66 446 66 q 448 67 450 67 q 452 67 452 70 q 453 71 453 74 q 453 77 451 79 q 450 80 444 80 l 431 80 z m 244 48 l 255 48 q 257 48 258 49 l 261 49 q 262 51 264 52 l 264 56 q 264 58 262 60 q 262 62 260 62 l 253 62 l 244 62 z m 278 44 l 278 86 l 283 86 l 283 44 z m 645 64 q 645 55 648 52 q 652 48 659 48 q 666 48 669 52 q 673 55 673 65 q 673 70 672 73 q 670 78 667 79 q 664 80 659 80 q 653 80 650 77 q 645 73 645 64 z m 639 64 q 639 75 645 80 q 649 86 659 86 q 662 86 664 85 q 667 84 669 83 q 672 82 674 80 q 675 78 677 75 q 678 73 678 65 q 678 56 676 53 q 673 48 669 45 q 665 43 659 43 q 656 43 654 44 q 651 44 648 45 q 646 47 644 49 q 643 51 642 53 q 641 56 640 58 q 639 61 639 64 z m 383 44 l 399 86 l 405 86 l 422 44 l 416 44 l 411 56 l 394 56 l 388 44 z m 294 44 l 294 86 l 299 86 l 299 48 l 318 48 l 318 44 z m 583 44 l 583 49 l 590 49 l 590 44 z m 487 60 l 487 65 l 504 65 l 504 49 q 500 45 496 44 q 494 44 492 44 q 489 43 487 43 q 481 43 477 45 q 474 47 472 48 q 470 50 469 53 q 468 56 467 58 q 466 61 466 64 q 466 68 467 70 q 468 72 469 75 q 471 81 476 83 q 478 84 481 85 q 484 86 487 86 q 492 86 495 84 q 499 83 500 80 q 503 77 504 74 l 499 73 q 499 74 496 77 q 496 79 492 80 l 487 80 l 481 80 q 478 79 476 77 q 476 76 473 73 q 473 71 472 69 q 472 67 472 65 q 472 58 474 56 q 478 50 479 49 q 482 48 487 48 q 491 48 494 49 q 496 51 497 51 q 498 51 499 52 l 499 60 z m 426 44 l 426 86 l 444 86 q 447 86 449 85 q 451 84 453 84 q 456 83 457 80 q 459 78 459 74 q 459 69 456 66 q 455 65 452 64 q 450 64 447 62 q 449 62 450 62 q 450 61 451 61 q 452 59 455 54 l 463 44 l 456 44 l 450 52 q 448 54 448 56 q 447 57 446 58 q 446 60 445 60 q 444 60 443 61 l 442 61 q 441 61 441 62 q 441 62 440 62 l 438 62 l 431 62 l 431 44 z m 325 44 l 325 86 l 331 86 l 331 48 l 351 48 l 351 44 z m 629 58 l 634 57 q 632 49 628 47 q 624 43 617 43 q 611 43 607 45 q 604 47 603 49 q 602 51 600 53 q 598 61 598 65 q 598 69 600 77 q 605 82 607 83 q 610 84 612 85 q 614 86 617 86 q 620 86 623 85 q 626 84 628 83 q 630 81 632 79 q 633 77 634 74 l 628 73 q 628 77 624 79 q 622 80 617 80 q 611 80 609 79 q 607 78 606 76 q 606 75 604 73 q 604 71 604 69 q 603 67 603 65 q 603 59 606 56 q 606 54 607 52 q 608 51 609 49 q 612 48 617 48 q 622 48 625 51 q 628 54 629 58 z m 686 44 l 686 86 l 694 86 l 704 56 q 704 54 705 52 q 706 51 706 49 q 706 50 708 56 l 717 86 l 725 86 l 725 44 l 720 44 l 720 78 l 708 44 l 703 44 l 691 79 l 691 44 z m 395 61 l 409 61 l 404 73 q 403 75 403 76 q 403 78 401 80 q 401 77 399 73 z m 223 44 l 223 49 l 230 49 l 230 44 z m 551 44 l 551 86 l 556 86 l 556 48 l 577 48 l 577 44 z m 513 44 l 513 86 l 543 86 l 543 80 l 518 80 l 518 67 l 541 67 l 541 62 l 518 62 l 518 48 l 543 48 l 543 44 z m 365 44 l 365 61 l 349 86 l 356 86 l 364 73 q 366 67 368 66 q 369 67 370 69 q 371 71 373 73 l 381 86 l 387 86 l 370 61 l 370 44 z m 239 44 l 239 86 l 255 86 q 257 86 258 85 q 260 84 261 84 q 265 83 266 80 q 268 78 268 74 q 268 71 266 70 q 265 66 262 66 q 265 65 268 62 q 270 58 270 56 q 270 54 270 53 q 269 52 269 51 q 268 47 265 47 q 264 45 263 45 q 262 45 261 44 l 255 44 z m 125 44 l 113 86 l 119 86 l 125 58 q 126 55 126 53 q 126 51 127 49 q 128 54 128 57 l 136 86 l 143 86 l 149 64 q 152 55 152 49 q 153 51 153 53 q 153 55 154 58 l 161 86 l 166 86 l 154 44 l 149 44 l 141 75 q 140 78 140 80 q 139 78 139 75 l 130 44 z m 70 44 l 58 86 l 65 86 l 70 58 q 71 55 71 53 q 71 51 73 49 q 74 54 74 57 l 82 86 l 88 86 l 95 64 q 96 59 96 56 q 97 53 97 49 q 99 51 99 53 q 99 55 100 58 l 106 86 l 112 86 l 100 44 l 95 44 l 87 75 q 86 78 86 80 q 84 78 84 75 l 75 44 z m 244 67 l 253 67 q 257 67 258 69 q 261 69 261 70 q 262 71 262 74 q 262 77 261 78 l 260 78 q 259 78 259 78 q 259 79 258 79 q 257 80 252 80 l 244 80 z m 178 44 l 167 86 l 173 86 l 179 58 q 180 55 180 53 q 180 51 182 49 q 182 53 182 54 q 183 56 183 57 l 191 86 l 197 86 l 204 64 q 205 59 206 56 q 206 53 206 49 q 208 51 208 53 q 208 55 209 58 l 216 86 l 221 86 l 209 44 l 204 44 l 196 75 q 195 78 195 80 q 193 78 193 75 l 184 44 z m 431 66 l 443 66 q 445 66 446 66 q 448 67 450 67 q 452 67 452 70 q 453 71 453 74 q 453 77 451 79 q 450 80 444 80 l 431 80 z m 244 48 l 255 48 q 257 48 258 49 l 261 49 q 262 51 264 52 l 264 56 q 264 58 262 60 q 262 62 260 62 l 253 62 l 244 62 z m 278 44 l 278 86 l 283 86 l 283 44 z m 645 64 q 645 55 648 52 q 652 48 659 48 q 666 48 669 52 q 673 55 673 65 q 673 70 672 73 q 670 78 667 79 q 664 80 659 80 q 653 80 650 77 q 645 73 645 64 z m 639 64 q 639 75 645 80 q 649 86 659 86 q 662 86 664 85 q 667 84 669 83 q 672 82 674 80 q 675 78 677 75 q 678 73 678 65 q 678 56 676 53 q 673 48 669 45 q 665 43 659 43 q 656 43 654 44 q 651 44 648 45 q 646 47 644 49 q 643 51 642 53 q 641 56 640 58 q 639 61 639 64 z m 383 44 l 399 86 l 405 86 l 422 44 l 416 44 l 411 56 l 394 56 l 388 44 z m 294 44 l 294 86 l 299 86 l 299 48 l 318 48 l 318 44 z m 583 44 l 583 49 l 590 49 l 590 44 z m 487 60 l 487 65 l 504 65 l 504 49 q 500 45 496 44 q 494 44 492 44 q 489 43 487 43 q 481 43 477 45 q 474 47 472 48 q 470 50 469 53 q 468 56 467 58 q 466 61 466 64 q 466 68 467 70 q 468 72 469 75 q 471 81 476 83 q 478 84 481 85 q 484 86 487 86 q 492 86 495 84 q 499 83 500 80 q 503 77 504 74 l 499 73 q 499 74 496 77 q 496 79 492 80 l 487 80 l 481 80 q 478 79 476 77 q 476 76 473 73 q 473 71 472 69 q 472 67 472 65 q 472 58 474 56 q 478 50 479 49 q 482 48 487 48 q 491 48 494 49 q 496 51 497 51 q 498 51 499 52 l 499 60 z m 426 44 l 426 86 l 444 86 q 447 86 449 85 q 451 84 453 84 q 456 83 457 80 q 459 78 459 74 q 459 69 456 66 q 455 65 452 64 q 450 64 447 62 q 449 62 450 62 q 450 61 451 61 q 452 59 455 54 l 463 44 l 456 44 l 450 52 q 448 54 448 56 q 447 57 446 58 q 446 60 445 60 q 444 60 443 61 l 442 61 q 441 61 441 62 q 441 62 440 62 l 438 62 l 431 62 l 431 44 z m 325 44 l 325 86 l 331 86 l 331 48 l 351 48 l 351 44 z m 629 58 l 634 57 q 632 49 628 47 q 624 43 617 43 q 611 43 607 45 q 604 47 603 49 q 602 51 600 53 q 598 61 598 65 q 598 69 600 77 q 605 82 607 83 q 610 84 612 85 q 614 86 617 86 q 620 86 623 85 q 626 84 628 83 q 630 81 632 79 q 633 77 634 74 l 628 73 q 628 77 624 79 q 622 80 617 80 q 611 80 609 79 q 607 78 606 76 q 606 75 604 73 q 604 71 604 69 q 603 67 603 65 q 603 59 606 56 q 606 54 607 52 q 608 51 609 49 q 612 48 617 48 q 622 48 625 51 q 628 54 629 58 z m 686 44 l 686 86 l 694 86 l 704 56 q 704 54 705 52 q 706 51 706 49 q 706 50 708 56 l 717 86 l 725 86 l 725 44 l 720 44 l 720 78 l 708 44 l 703 44 l 691 79 l 691 44 z m 105 121 l 113 118 q 111 109 104 103 q 96 97 87 97 q 78 97 70 101 q 62 107 61 113 q 57 120 57 130 q 57 141 61 148 q 64 155 71 158 q 78 162 87 162 q 98 162 102 157 q 109 155 112 144 l 104 143 q 100 151 97 152 q 94 156 87 156 q 79 156 75 152 q 69 148 67 143 q 66 139 66 130 q 66 121 69 117 q 71 110 75 108 q 80 104 86 104 q 94 104 99 109 q 101 111 102 114 q 104 117 105 121 z m 121 129 q 121 137 123 143 q 125 149 130 153 q 134 158 140 160 q 145 162 151 162 q 160 162 167 158 q 173 155 178 147 q 182 137 182 130 q 182 125 181 121 q 180 117 178 113 q 173 105 166 101 q 158 97 151 97 q 146 97 142 98 q 139 99 135 101 q 128 105 125 113 q 121 120 121 129 z m 130 129 q 130 117 135 110 q 142 104 151 104 q 161 104 166 112 q 173 119 173 130 q 173 134 172 137 q 171 140 170 143 q 168 150 162 152 q 159 156 151 156 q 143 156 136 149 q 130 144 130 129 z m 192 99 l 192 161 l 204 161 l 219 117 q 222 111 222 108 q 224 110 226 118 l 242 161 l 252 161 l 252 99 l 244 99 l 244 151 l 226 99 l 218 99 l 200 152 l 200 99 z m 266 99 l 266 161 l 290 161 l 299 161 q 304 161 307 158 q 308 157 312 152 q 313 150 314 148 q 314 146 314 143 q 314 137 309 130 q 304 125 290 125 l 274 125 l 274 99 z m 274 131 l 291 131 q 300 131 301 135 q 305 136 305 143 q 305 148 304 149 q 300 153 297 153 q 296 155 290 155 l 274 155 z m 325 99 l 325 161 l 333 161 l 333 105 l 364 105 l 364 99 z m 374 99 l 374 161 l 420 161 l 420 155 l 382 155 l 382 135 l 417 135 l 417 127 l 382 127 l 382 105 l 421 105 l 421 99 z m 448 99 l 448 155 l 427 155 l 427 161 l 478 161 l 478 155 l 457 155 l 457 99 z m 487 99 l 487 161 l 533 161 l 533 155 l 495 155 l 495 135 l 530 135 l 530 127 l 495 127 l 495 105 l 534 105 l 534 99 z m 568 118 l 576 119 q 576 114 578 112 q 580 108 585 106 q 587 105 594 105 q 596 105 598 105 q 601 105 603 106 q 606 106 608 110 q 609 112 609 116 q 609 119 608 121 q 607 122 606 122 q 604 123 602 125 q 601 125 591 127 q 586 129 583 130 q 580 130 578 131 q 574 133 572 138 q 570 139 570 141 q 569 143 569 145 q 569 151 573 155 q 574 157 576 158 q 578 159 581 161 q 583 162 593 162 q 600 162 604 160 q 607 158 609 157 q 611 156 612 153 q 616 150 616 144 l 608 143 q 606 151 603 152 q 600 155 593 155 q 583 155 581 152 q 578 149 578 145 q 578 142 581 140 q 581 140 593 135 q 598 134 602 133 q 605 132 607 131 q 610 130 612 128 q 613 127 615 125 q 617 122 617 116 q 617 109 615 106 q 611 102 607 100 q 604 99 601 98 q 598 97 594 97 q 590 97 586 98 q 582 99 580 100 q 575 101 570 108 q 568 112 568 118 z m 629 99 l 629 161 l 674 161 l 674 155 l 638 155 l 638 135 l 673 135 l 673 127 l 638 127 l 638 105 l 676 105 l 676 99 z m 704 99 l 704 155 l 684 155 l 684 161 l 733 161 l 733 155 l 712 155 l 712 99 z m 63 174 l 63 236 l 88 236 l 97 236 q 99 236 105 234 q 106 233 108 231 q 109 229 110 227 q 112 225 112 220 q 112 211 106 205 q 103 200 88 200 l 73 200 l 73 174 z m 73 208 l 88 208 q 97 208 100 210 q 104 214 104 218 q 104 220 103 222 q 102 224 101 226 q 98 229 96 229 q 95 230 88 230 l 73 230 z m 122 174 l 122 236 l 167 236 l 167 230 l 131 230 l 131 210 l 165 210 l 165 203 l 131 203 l 131 182 l 169 182 l 169 174 z m 180 174 l 180 236 l 209 236 q 218 236 222 235 q 227 233 229 230 q 231 222 231 220 q 231 213 227 209 q 223 205 213 203 q 215 201 216 201 q 217 201 218 200 q 223 195 225 191 l 236 174 l 226 174 l 217 187 q 216 190 214 192 q 213 194 212 196 q 210 197 210 198 q 209 200 208 200 q 206 201 204 201 q 203 203 199 203 l 190 203 l 190 174 z m 190 209 l 206 209 q 214 209 216 210 q 219 213 221 214 q 222 216 222 220 q 222 224 219 227 q 216 230 209 230 l 190 230 z m 242 195 l 249 195 q 249 193 250 191 q 251 189 252 187 q 253 186 254 184 q 256 183 258 183 q 264 181 268 181 q 270 181 272 181 q 274 181 275 182 q 281 184 282 186 q 282 187 282 188 q 283 190 283 191 q 283 195 282 196 q 279 198 275 200 q 274 201 272 201 q 269 201 265 203 q 256 204 252 207 q 247 211 245 213 q 244 216 244 221 q 244 223 244 226 q 245 228 247 230 q 248 234 255 236 q 257 238 266 238 q 274 238 278 236 q 284 233 286 229 q 290 223 290 220 l 282 218 q 280 225 277 227 q 273 231 266 231 q 258 231 255 227 q 252 225 252 221 q 252 217 255 216 q 256 214 266 212 q 275 208 281 208 q 283 206 285 204 q 287 203 288 201 q 291 198 291 192 q 291 187 288 183 q 286 180 284 178 q 283 177 281 175 q 273 173 268 173 q 261 173 253 175 q 250 177 248 178 q 246 180 244 183 q 243 186 242 188 q 242 191 242 195 z m 300 205 q 300 219 308 229 q 317 238 330 238 q 334 238 338 237 q 341 236 346 234 q 350 232 352 229 q 354 226 356 222 q 360 215 360 205 q 360 196 356 188 q 352 181 346 177 q 338 173 330 173 q 321 173 314 178 q 305 183 304 190 q 300 195 300 205 z m 308 205 q 308 193 314 187 q 320 181 330 181 q 340 181 346 187 q 351 194 351 205 q 351 209 350 213 q 350 217 348 220 q 345 225 342 227 q 337 231 330 231 q 325 231 322 230 q 319 228 314 225 q 308 219 308 205 z m 370 174 l 370 236 l 379 236 l 412 188 l 412 236 l 420 236 l 420 174 l 412 174 l 378 223 l 378 174 z m 427 174 l 451 236 l 460 236 l 486 174 l 476 174 l 469 194 l 443 194 l 435 174 z m 444 200 l 466 200 l 460 217 q 458 221 457 224 q 456 228 455 230 q 455 227 454 224 q 453 221 452 218 z m 491 174 l 491 236 l 500 236 l 500 182 l 531 182 l 531 174 z m 603 236 l 611 236 l 611 201 q 611 190 609 186 q 607 180 602 177 q 597 173 587 173 q 577 173 573 177 q 570 178 568 180 q 566 183 564 186 q 563 188 563 201 l 563 236 l 570 236 l 570 201 q 570 191 572 188 q 574 184 577 183 q 579 182 581 182 q 583 181 586 181 q 594 181 599 184 q 603 188 603 201 z m 622 195 l 630 195 q 630 193 631 191 q 632 189 633 187 q 634 186 636 184 q 637 183 639 183 q 645 181 648 181 q 655 181 658 182 q 660 183 663 186 q 664 187 664 191 q 664 195 663 196 q 661 197 660 198 q 660 199 658 200 q 656 201 653 201 q 650 201 646 203 q 642 204 638 204 q 635 205 634 207 q 629 209 628 213 q 625 216 625 221 q 625 225 628 230 q 629 234 635 236 q 639 238 647 238 q 650 238 654 238 q 657 238 659 236 q 665 233 668 229 q 669 227 670 224 q 671 222 671 220 l 663 218 q 661 221 660 224 q 660 226 658 227 q 655 231 647 231 q 638 231 637 227 q 633 226 633 221 q 633 218 635 216 q 637 214 647 212 q 658 208 661 208 q 664 206 666 204 q 668 203 669 201 q 672 199 672 192 q 672 186 669 183 q 668 180 666 178 q 664 177 661 175 q 655 173 650 173 q 645 173 642 174 q 638 174 635 175 q 633 177 630 178 q 628 180 626 183 q 624 186 623 188 q 622 191 622 195 z m 684 174 l 684 236 l 729 236 l 729 230 l 693 230 l 693 210 l 726 210 l 726 203 l 693 203 l 693 182 l 730 182 l 730 174 z m 192 312 q 192 322 177 324 q 175 324 172 324 q 169 325 165 325 l 159 318 l 143 301 q 139 296 136 292 q 132 288 127 285 q 133 283 142 282 q 144 282 148 282 q 151 282 154 283 q 169 284 177 291 q 192 303 192 312 z m 203 342 q 203 346 198 346 q 196 346 181 341 l 170 331 q 168 329 166 325 l 183 328 q 187 328 194 333 q 203 339 203 342 z m 216 360 q 216 358 213 358 q 211 358 210 358 q 210 359 208 359 q 198 357 185 344 q 187 346 190 347 q 192 348 194 349 q 201 350 207 349 q 211 349 211 344 l 211 340 q 206 331 183 326 q 201 324 201 314 q 201 302 182 289 q 175 285 168 282 q 160 280 152 279 q 139 276 132 277 q 126 277 119 280 q 113 276 108 276 l 106 276 q 100 278 96 279 l 99 279 q 107 279 112 283 l 112 284 q 105 280 97 280 q 86 280 80 286 q 70 293 70 307 q 70 311 71 314 q 72 318 74 323 q 81 338 98 349 q 103 354 108 356 q 114 357 119 358 q 130 358 134 354 q 129 357 124 357 q 118 357 111 353 q 101 349 100 347 q 90 342 80 330 q 71 316 71 306 q 71 301 72 298 q 73 295 75 292 q 79 286 86 284 q 89 283 91 282 q 93 282 95 282 q 99 282 102 283 q 105 284 109 286 q 98 294 98 308 q 100 321 114 331 l 112 328 q 110 328 108 324 q 102 318 102 311 q 102 298 117 289 q 125 294 125 295 q 127 298 129 300 q 131 302 133 304 q 135 306 136 309 q 136 312 138 315 l 138 314 q 138 309 137 306 l 149 320 q 180 355 200 361 q 191 364 186 364 q 173 363 158 355 q 140 346 140 333 q 140 329 143 326 q 144 325 144 324 q 138 328 138 334 q 138 345 151 356 q 167 368 185 366 q 191 366 203 362 l 207 362 q 212 362 215 360 z m 218 295 q 217 291 210 284 q 203 280 198 280 q 193 280 193 286 q 193 291 199 299 l 198 299 q 197 298 194 298 q 194 298 193 299 q 196 299 203 306 l 204 306 l 207 310 q 210 313 210 315 l 213 315 q 216 315 216 314 q 216 310 210 303 l 203 296 q 197 287 197 284 q 197 281 201 281 q 206 281 213 291 q 214 292 215 292 q 216 293 218 295 z m 223 323 q 219 317 213 317 q 210 317 206 320 l 209 320 q 216 320 218 327 l 218 329 l 223 327 q 224 326 223 323 z m 258 342 q 258 337 227 300 l 226 300 q 217 289 217 283 q 217 280 220 280 q 226 280 233 290 q 234 291 235 292 q 236 292 237 294 q 237 289 229 283 q 224 279 218 279 q 212 280 212 285 q 211 290 232 316 l 244 331 l 250 337 q 253 341 255 347 q 258 345 258 342 z m 275 342 q 275 338 243 300 q 233 288 233 283 q 233 280 237 280 q 241 280 250 290 l 254 294 q 253 289 245 283 q 240 279 234 279 q 228 280 228 285 q 228 291 248 316 l 260 331 l 266 337 q 271 343 272 347 q 275 345 275 342 z m 256 275 q 240 272 231 263 q 224 254 224 252 q 224 248 228 248 q 229 247 235 249 q 237 251 240 254 q 242 256 245 259 z m 285 340 q 283 326 272 315 q 272 314 272 314 q 271 314 271 313 q 268 309 264 306 q 261 302 258 297 q 256 295 256 293 q 255 295 257 299 q 251 290 251 285 q 251 282 254 282 q 255 282 259 284 q 274 296 280 318 l 280 315 l 280 312 q 282 310 282 307 q 282 305 277 297 l 269 284 l 260 272 q 263 274 271 278 l 270 277 q 268 275 264 272 q 261 270 258 265 l 250 255 l 246 250 q 240 244 233 242 q 227 242 224 246 q 218 248 222 255 q 223 256 224 258 q 225 260 227 262 l 228 263 l 221 262 q 238 274 249 275 q 250 275 251 276 q 252 276 253 276 l 254 276 l 256 276 l 262 285 q 258 281 255 280 q 252 280 250 280 q 245 280 245 285 q 245 297 266 316 l 268 317 l 278 327 q 280 331 282 334 q 284 337 285 340 z m 399 355 q 393 357 389 357 q 379 357 370 354 q 362 352 353 347 q 349 345 346 342 q 344 340 341 338 q 353 337 373 325 q 395 347 411 353 z m 420 351 q 416 350 412 348 q 407 347 402 342 q 399 340 387 328 l 380 321 l 390 315 q 392 318 396 322 q 400 327 405 333 z m 429 368 q 429 367 428 366 q 428 359 425 352 l 426 351 l 425 351 q 420 339 412 331 l 396 312 q 398 311 399 311 q 400 311 402 310 q 402 308 401 308 q 399 308 398 308 q 397 309 395 310 q 383 297 382 286 q 380 282 380 280 q 380 276 384 276 q 392 276 401 289 l 405 295 q 415 309 418 320 l 418 323 q 418 322 419 321 l 419 320 q 417 306 409 294 l 396 268 q 396 272 399 281 q 387 272 381 272 q 372 272 374 284 q 374 290 378 298 q 382 305 388 314 l 378 319 l 369 310 q 366 306 360 300 q 355 294 347 284 q 331 268 319 268 l 316 268 q 313 268 307 271 q 307 271 309 271 q 318 269 327 278 q 319 274 308 274 q 297 274 290 279 l 291 279 q 281 286 281 300 q 281 310 285 315 q 291 331 308 342 q 314 347 320 348 q 325 350 331 351 q 341 351 345 347 l 344 347 q 342 349 335 349 q 325 349 310 340 q 299 332 291 323 q 282 309 282 298 q 282 282 297 277 q 303 275 306 275 q 327 276 352 303 l 371 323 q 356 332 337 332 l 336 332 q 334 328 334 323 q 335 323 339 317 q 332 321 332 327 q 332 330 333 332 q 323 330 320 328 q 302 321 304 307 q 304 298 310 291 l 312 289 q 300 301 300 310 q 300 323 312 332 q 322 339 337 339 q 351 355 372 358 q 377 359 388 359 q 393 359 403 357 l 415 354 l 421 354 l 422 353 q 426 360 428 370 l 429 370 z m 442 303 q 442 300 441 298 q 436 293 432 289 q 429 285 426 280 l 427 280 l 428 280 q 427 279 426 279 q 425 279 425 278 q 420 278 420 280 q 420 284 429 293 q 436 302 436 304 q 437 307 433 310 q 421 293 412 289 l 408 287 l 406 288 q 410 288 419 298 q 428 306 431 311 q 431 312 430 312 q 430 312 430 313 q 430 314 437 320 q 437 321 438 321 l 439 320 q 439 319 434 312 q 442 309 442 303 z m 471 306 q 471 312 467 310 q 463 310 461 308 q 458 306 452 298 q 446 290 446 285 q 445 283 448 283 q 454 285 458 290 q 462 298 462 301 q 462 303 461 303 q 465 303 465 298 l 464 296 q 466 298 468 300 q 469 303 471 305 z m 490 315 q 486 315 481 310 q 477 305 473 299 q 469 293 464 285 q 459 275 455 270 q 451 264 450 262 q 437 246 430 246 q 424 245 421 250 q 421 255 421 255 q 421 260 425 264 q 423 263 420 263 q 430 273 442 276 q 443 276 444 276 q 444 277 446 277 l 447 276 q 428 270 424 258 q 423 256 423 253 q 423 252 424 251 q 424 250 425 250 q 433 249 444 265 l 451 275 l 455 281 q 452 280 450 280 q 442 280 442 288 q 442 297 455 309 q 461 315 466 315 q 473 315 473 307 l 474 307 l 479 313 q 484 318 488 318 q 491 318 493 315 z m 508 308 q 508 302 497 296 q 496 295 495 295 l 494 295 q 491 295 488 300 q 490 298 493 298 q 500 302 502 309 l 502 311 l 502 312 l 502 313 q 498 313 489 304 l 489 303 q 486 299 486 296 q 485 294 485 292 q 484 293 484 298 q 482 294 481 291 q 479 287 479 284 q 479 283 480 282 q 480 280 484 280 q 494 284 501 290 q 503 292 506 294 q 504 291 502 288 q 500 286 495 283 q 487 278 481 280 q 481 279 480 280 q 474 280 474 286 q 474 296 485 306 q 491 315 501 315 q 503 315 504 314 q 508 311 508 308 z m 548 342 q 548 338 516 300 q 507 289 507 283 q 507 280 510 280 q 516 280 523 290 q 524 291 525 292 q 526 292 527 294 q 527 289 519 283 q 514 279 507 279 q 502 281 502 285 q 502 293 521 316 l 533 331 l 539 337 q 545 343 545 347 q 548 345 548 342 z m 602 311 q 585 317 584 330 q 579 327 574 324 q 569 322 566 319 q 547 301 547 286 q 547 280 550 279 l 552 279 l 554 279 q 569 279 582 289 q 586 293 592 298 q 597 303 602 311 z m 622 340 l 614 340 q 602 339 585 331 q 587 317 604 314 l 611 323 z m 640 358 q 627 358 616 356 q 606 354 598 349 q 603 354 610 357 q 618 360 627 362 q 607 363 592 350 q 589 348 585 340 q 592 342 598 343 q 605 344 613 343 q 615 343 618 343 q 621 343 626 342 q 628 345 632 349 q 635 353 640 358 z m 703 359 q 701 356 698 354 q 696 351 691 349 q 683 344 676 344 l 674 344 q 673 344 672 345 q 673 346 673 347 q 673 348 675 350 q 666 357 650 357 l 646 352 l 636 340 q 644 339 651 338 q 658 337 664 337 q 678 337 683 340 q 679 336 668 334 q 659 332 650 335 l 634 338 q 630 333 626 330 q 623 326 621 322 l 614 312 l 619 312 q 644 314 648 324 l 649 324 q 646 318 636 313 q 631 311 626 310 q 622 309 618 309 l 613 309 q 606 301 602 295 q 597 289 593 285 q 580 271 569 271 q 564 272 558 272 q 568 272 579 282 q 565 276 557 276 l 551 277 l 559 269 q 551 273 546 278 q 545 278 541 280 q 529 289 528 303 q 528 308 528 312 q 528 316 530 320 q 533 329 538 336 q 543 342 550 349 q 567 364 580 364 q 587 364 592 360 l 591 359 q 588 362 582 362 q 569 360 555 349 q 543 339 537 329 q 529 315 529 303 q 531 285 545 280 q 543 286 544 292 q 546 307 555 318 q 566 332 585 340 q 587 342 587 346 l 596 355 q 609 366 630 366 q 635 366 638 366 q 642 366 647 365 l 648 365 q 655 370 660 372 q 666 375 672 374 q 676 374 678 372 q 667 370 667 370 q 665 369 662 368 q 660 367 657 365 q 661 364 665 364 q 669 363 674 361 q 684 358 690 358 q 699 358 703 359 z m 642 289 q 639 292 639 296 q 639 298 640 300 q 640 301 640 303 q 630 290 631 284 q 631 282 633 282 q 635 282 642 289 z m 655 310 q 655 312 653 312 q 651 312 649 311 q 648 310 646 306 q 641 296 641 293 q 641 290 642 289 l 645 292 l 645 293 l 645 292 q 646 293 646 294 q 646 294 647 295 q 649 301 649 303 q 649 304 648 305 q 650 301 650 300 q 653 303 655 310 z m 659 307 q 659 302 652 292 q 643 283 639 280 l 631 280 q 625 280 625 285 q 625 293 636 306 q 643 315 652 315 q 659 315 659 307 z m 692 309 q 693 307 688 298 q 682 290 680 288 l 668 277 q 661 270 659 262 q 660 274 668 283 q 672 287 674 290 q 676 293 678 297 q 679 298 680 301 l 680 298 q 680 298 679 296 q 681 298 685 306 q 685 307 686 308 q 686 308 686 309 q 686 314 681 312 q 681 312 673 306 q 671 301 668 298 q 664 294 660 289 q 655 283 654 280 q 653 279 649 271 q 649 273 648 276 q 648 278 649 280 q 651 287 658 294 l 664 301 q 669 308 669 312 q 669 313 668 314 q 668 315 668 316 q 674 314 674 310 q 680 315 687 315 q 691 313 692 309 z m 731 323 l 716 323 q 715 321 710 315 q 704 309 696 298 q 694 298 692 293 q 688 288 688 283 q 688 280 690 280 q 695 280 704 290 l 705 291 q 706 292 706 292 q 706 293 707 294 q 707 289 700 283 q 695 279 688 279 q 683 281 682 285 q 682 287 686 295 l 698 309 l 709 323 l 692 325 q 688 326 682 326 l 673 326 q 661 326 649 321 l 648 321 q 658 331 679 331 q 680 331 688 330 q 695 328 709 326 l 712 325 q 715 330 718 334 q 720 337 722 340 q 724 339 724 335 q 724 332 722 330 l 718 324 l 726 323 l 732 323 l 733 323 l 736 323 z m 738 310 q 738 307 731 304 l 730 303 q 733 306 733 311 l 733 315 l 730 315 q 725 315 724 311 q 724 309 727 294 q 728 280 711 280 q 702 280 700 286 q 699 287 699 289 q 699 297 711 299 l 715 298 l 713 298 q 709 298 707 296 q 704 291 704 289 q 704 281 712 281 q 720 281 720 292 q 720 297 719 300 q 718 303 718 307 q 718 317 727 317 q 729 317 730 316 q 731 316 733 316 q 737 314 737 313 q 738 312 738 310 z"},"S":{"x_min":0,"x_max":955,"ha":955,"o":"m 626 1188 q 671 1188 719 1180 q 767 1172 811 1158 q 855 1145 892 1128 q 929 1110 954 1092 q 978 1075 987 1058 q 996 1041 984 1028 q 972 1016 958 1002 q 944 988 929 976 q 914 965 898 958 q 883 951 869 953 q 854 954 831 967 q 808 980 774 996 q 741 1012 696 1026 q 652 1041 594 1046 q 564 1049 525 1050 q 486 1051 444 1046 q 403 1041 363 1029 q 323 1017 290 994 q 257 971 234 934 q 212 898 207 845 q 203 802 228 766 q 253 729 297 696 q 341 663 398 634 q 455 604 516 576 q 576 547 634 518 q 693 488 739 456 q 785 424 813 388 q 841 352 841 310 q 841 250 816 186 q 790 123 746 64 q 701 5 641 -46 q 581 -98 513 -134 q 445 -170 372 -188 q 300 -205 230 -197 q 201 -194 166 -177 q 130 -160 97 -140 q 64 -119 40 -100 q 15 -82 9 -75 q 3 -68 14 -50 q 25 -31 44 -10 q 63 10 86 27 q 108 44 125 48 q 136 50 166 30 q 195 11 236 -13 q 277 -37 326 -57 q 376 -77 428 -75 q 448 -74 478 -68 q 507 -62 538 -50 q 569 -37 600 -18 q 630 1 654 28 q 677 54 690 88 q 702 122 698 164 q 693 210 666 245 q 639 280 597 309 q 555 338 502 364 q 450 389 396 416 q 342 443 290 474 q 239 505 198 545 q 157 585 131 636 q 105 688 103 756 q 100 843 130 908 q 160 974 209 1022 q 258 1070 319 1102 q 380 1134 439 1153 q 498 1172 548 1180 q 598 1188 626 1188 z"},"}":{"x_min":0,"x_max":492,"ha":492,"o":"m 172 -32 q 154 43 156 100 q 159 156 174 198 q 189 239 213 267 q 237 295 263 312 q 289 330 312 338 q 335 347 349 350 q 336 357 314 369 q 292 381 270 402 q 249 423 232 456 q 214 489 209 537 q 204 585 215 651 q 226 717 261 805 q 265 815 265 833 q 265 851 260 870 q 254 889 242 906 q 229 924 209 933 l 262 933 q 312 933 345 908 q 378 882 396 846 q 413 809 416 769 q 418 729 406 700 q 377 632 358 586 q 338 540 329 508 q 320 476 320 456 q 320 435 329 418 q 338 402 355 386 q 372 371 397 350 q 370 330 350 305 q 330 280 320 237 q 311 194 313 127 q 315 60 333 -43 q 339 -80 331 -112 q 323 -144 302 -168 q 282 -192 252 -206 q 221 -219 182 -219 l 87 -219 q 108 -218 126 -196 q 144 -173 156 -143 q 167 -113 172 -82 q 176 -51 172 -32 z"},"Z":{"x_min":0,"x_max":1109,"ha":1109,"o":"m 134 1189 q 170 1173 251 1165 q 332 1157 460 1158 q 588 1160 764 1170 q 939 1181 1165 1202 q 1180 1203 1184 1190 q 1189 1178 1186 1158 q 1183 1137 1174 1112 q 1166 1086 1156 1062 q 1145 1039 1134 1020 q 1122 1000 1114 992 q 1099 977 1058 934 q 1017 890 960 827 q 902 764 832 686 q 762 609 688 526 q 615 443 544 359 q 472 275 411 200 q 350 124 304 61 q 258 -2 237 -42 q 231 -54 234 -59 q 238 -64 247 -66 q 256 -67 267 -66 q 278 -66 286 -67 q 300 -69 338 -65 q 376 -61 430 -54 q 484 -46 548 -38 q 613 -29 680 -21 q 747 -13 812 -8 q 876 -3 930 -4 q 983 -4 1021 -12 q 1059 -19 1072 -36 q 1078 -44 1074 -60 q 1071 -75 1061 -92 q 1051 -110 1038 -128 q 1024 -145 1011 -158 q 998 -172 988 -178 q 977 -184 974 -179 q 965 -166 924 -160 q 884 -154 822 -152 q 761 -151 686 -154 q 610 -156 531 -160 q 452 -165 376 -171 q 300 -177 238 -182 q 177 -188 136 -192 q 95 -196 85 -197 q 42 -202 20 -194 q -1 -187 -8 -170 q -14 -154 -8 -130 q -2 -107 10 -79 q 32 -27 79 46 q 126 118 188 202 q 249 286 322 377 q 395 468 470 556 q 545 645 617 726 q 689 808 750 874 q 811 939 856 983 q 900 1027 920 1041 q 931 1049 926 1058 q 921 1066 911 1063 q 908 1062 873 1058 q 838 1054 782 1049 q 726 1044 656 1039 q 585 1034 512 1030 q 438 1027 366 1026 q 295 1026 237 1030 q 179 1035 141 1045 q 103 1055 96 1072 q 85 1098 84 1122 q 82 1146 88 1164 q 94 1181 106 1188 q 118 1196 134 1189 z"},"x":{"x_min":0,"x_max":561,"ha":561,"o":"m 402 465 q 407 469 416 466 q 424 464 430 459 q 437 454 440 448 q 443 441 437 437 q 423 426 402 407 q 382 388 358 362 q 334 336 306 305 q 279 274 251 240 q 256 232 259 228 q 262 223 264 221 q 276 203 297 179 q 318 155 346 136 q 373 117 406 108 q 438 99 474 110 q 512 120 536 135 q 559 150 579 173 l 605 143 q 586 121 561 96 q 536 72 507 51 q 478 30 446 16 q 415 1 384 0 q 339 -2 302 10 q 264 21 235 38 q 206 56 184 76 q 162 97 149 114 q 106 60 72 14 q 37 -32 17 -62 q 9 -74 1 -75 q -7 -76 -13 -71 q -19 -66 -22 -58 q -25 -49 -22 -41 q -5 -3 32 50 q 70 102 118 160 q 107 178 87 212 q 67 245 48 278 q 28 310 14 334 q -1 358 -1 358 q -2 356 4 372 q 10 388 24 410 q 39 431 62 451 q 84 471 116 479 q 122 468 134 446 q 146 423 162 396 q 177 368 194 339 q 210 310 225 285 q 256 319 284 350 q 313 380 336 404 q 360 428 377 444 q 394 460 402 465 z"},"_":{"x_min":0,"x_max":833,"ha":833,"o":"m -9 -165 l 870 -165 l 847 -215 l -32 -215 z"},"v":{"x_min":0,"x_max":535,"ha":535,"o":"m -3 366 q -5 364 6 378 q 17 391 38 408 q 58 426 88 444 q 118 461 155 468 q 154 457 152 435 q 151 413 150 386 q 149 360 148 331 q 147 302 146 278 q 146 253 146 235 q 145 217 146 212 q 147 197 148 180 q 148 162 152 146 q 155 130 164 118 q 172 106 190 104 q 199 104 208 114 q 217 125 226 142 q 234 159 242 180 q 250 202 258 224 q 246 279 247 336 q 248 394 257 438 q 267 490 290 516 q 314 542 340 546 q 365 549 387 531 q 409 513 416 479 q 419 465 412 445 q 405 425 393 402 q 381 380 368 358 q 355 335 346 317 q 342 308 340 290 q 337 273 338 252 q 338 230 342 206 q 347 183 357 164 q 367 144 384 130 q 401 116 426 114 q 439 113 454 114 q 469 115 486 121 q 504 127 522 139 q 540 151 559 173 l 584 143 q 565 121 544 102 q 524 83 500 71 q 475 59 446 56 q 416 53 379 63 q 344 73 319 98 q 294 124 279 159 q 268 130 256 102 q 243 73 228 50 q 213 28 194 14 q 175 0 151 0 q 114 0 88 12 q 61 23 44 40 q 26 56 16 76 q 7 96 2 113 q -3 130 -4 142 q -5 153 -4 153 q -5 155 -4 172 q -4 189 -4 213 q -4 237 -4 264 q -3 291 -3 314 q -3 336 -3 351 q -3 366 -3 366 z"},"O":{"x_min":0,"x_max":1254,"ha":1254,"o":"m 11 473 q 10 614 46 742 q 82 869 156 966 q 229 1064 340 1125 q 451 1186 599 1194 q 749 1202 864 1152 q 978 1103 1055 1013 q 1132 923 1172 801 q 1212 679 1214 541 l 1214 516 q 1214 373 1172 246 q 1130 119 1048 24 q 967 -72 848 -128 q 729 -183 575 -183 q 441 -183 337 -132 q 233 -82 162 6 q 90 95 52 214 q 13 334 11 473 z m 167 500 q 180 385 224 284 q 269 184 337 108 q 405 32 493 -14 q 581 -61 680 -67 q 793 -63 874 -14 q 954 34 1004 113 q 1053 192 1072 294 q 1092 396 1083 507 q 1069 577 1046 646 q 1023 715 990 778 q 956 842 912 896 q 867 951 811 992 q 755 1032 688 1056 q 620 1080 540 1082 q 419 1077 340 1030 q 262 982 218 903 q 175 824 164 720 q 153 617 167 500 z"},"C":{"x_min":0,"x_max":1294,"ha":1294,"o":"m 445 -186 q 327 -174 242 -120 q 157 -66 102 12 q 46 90 20 183 q -7 276 -7 367 q -7 468 21 569 q 49 670 99 762 q 149 854 218 934 q 288 1014 370 1072 q 453 1131 546 1164 q 638 1198 735 1198 q 820 1199 884 1177 q 949 1155 992 1119 q 1035 1083 1058 1038 q 1080 992 1082 945 q 1084 898 1066 854 q 1047 810 1009 777 q 995 765 966 752 q 937 738 906 730 q 875 722 848 722 q 822 722 814 736 q 808 748 813 763 q 818 778 828 799 q 838 820 850 847 q 862 874 869 909 q 873 928 868 954 q 863 980 846 1004 q 828 1027 798 1045 q 769 1063 724 1068 q 629 1078 550 1057 q 472 1036 410 992 q 348 949 302 886 q 257 822 228 748 q 200 675 188 594 q 177 513 184 433 q 191 337 215 248 q 239 158 284 88 q 330 18 400 -24 q 469 -67 568 -69 q 631 -70 690 -44 q 749 -19 802 22 q 854 62 898 112 q 942 162 974 210 q 1007 257 1026 296 q 1046 335 1049 355 q 1050 365 1058 372 q 1066 378 1075 380 q 1084 381 1092 377 q 1099 373 1099 361 q 1100 322 1077 264 q 1054 205 1010 141 q 967 77 906 14 q 846 -48 772 -96 q 699 -143 616 -169 q 533 -195 445 -186 z"},"W":{"x_min":0,"x_max":1615,"ha":1615,"o":"m 1061 963 q 1050 978 1056 1001 q 1063 1024 1080 1047 q 1096 1070 1119 1088 q 1142 1105 1164 1110 q 1187 1114 1206 1100 q 1224 1086 1231 1045 q 1245 989 1256 926 q 1266 864 1274 797 l 1276 795 l 1274 792 q 1285 699 1292 602 q 1298 506 1302 416 q 1307 325 1309 246 q 1311 166 1314 108 q 1316 50 1319 18 q 1322 -15 1327 -12 q 1343 -2 1358 47 q 1374 96 1390 171 q 1405 246 1421 341 q 1437 436 1454 540 q 1472 644 1491 750 q 1510 856 1530 952 q 1551 1048 1574 1129 q 1597 1210 1623 1263 q 1631 1279 1652 1288 q 1672 1296 1692 1298 q 1712 1299 1724 1292 q 1736 1285 1728 1270 q 1667 1102 1626 946 q 1584 789 1556 650 q 1527 512 1509 394 q 1491 275 1478 182 q 1466 89 1455 25 q 1444 -39 1430 -68 q 1412 -96 1386 -122 q 1359 -149 1330 -169 q 1301 -189 1272 -200 q 1243 -211 1220 -206 q 1197 -202 1182 -180 q 1167 -157 1167 -111 q 1165 40 1155 193 q 1145 346 1131 487 q 1056 332 997 220 q 938 107 895 32 q 852 -44 826 -86 q 799 -128 789 -142 q 769 -170 740 -186 q 711 -202 680 -206 q 649 -211 618 -203 q 588 -195 566 -175 q 543 -155 531 -122 q 519 -89 524 -43 q 545 139 564 308 q 582 477 592 618 q 602 760 600 868 q 599 976 580 1035 q 578 1043 566 1044 q 554 1045 528 1039 q 460 1025 394 1001 q 327 977 271 946 q 215 914 176 878 q 136 841 124 802 q 112 764 132 724 q 151 685 213 649 q 226 641 226 624 q 225 608 216 588 q 206 569 190 549 q 173 529 156 514 q 138 499 121 492 q 104 485 94 491 q 36 525 12 585 q -12 645 -1 716 q 10 787 56 862 q 103 938 186 1003 q 268 1068 386 1115 q 505 1162 661 1177 q 678 1179 700 1175 q 722 1171 737 1154 l 738 1154 q 745 1147 746 1142 q 766 1078 774 996 q 782 913 782 820 q 782 728 776 632 q 769 535 759 443 q 749 351 738 269 q 726 187 716 124 q 707 60 701 20 q 695 -19 696 -25 q 701 -61 724 -50 q 748 -38 782 6 q 817 51 860 122 q 903 194 948 278 q 992 363 1036 454 q 1079 545 1115 629 q 1102 731 1088 816 q 1075 901 1061 963 z"},"A":{"x_min":0,"x_max":1648,"ha":1648,"o":"m 1338 1193 q 1363 1219 1392 1230 q 1421 1242 1445 1242 q 1469 1242 1484 1234 q 1499 1225 1496 1210 q 1492 1182 1490 1134 q 1487 1086 1486 1024 q 1484 963 1484 890 q 1485 816 1486 738 q 1488 659 1492 577 q 1495 495 1500 416 q 1549 405 1583 395 q 1617 385 1633 375 q 1639 376 1634 369 q 1629 362 1619 354 q 1609 346 1596 340 q 1583 334 1571 336 q 1554 338 1538 340 q 1522 343 1505 346 q 1511 266 1518 194 q 1526 122 1536 64 q 1546 6 1558 -36 q 1569 -77 1583 -95 q 1591 -106 1585 -118 q 1579 -129 1564 -138 q 1549 -148 1528 -154 q 1508 -161 1487 -162 q 1466 -162 1446 -156 q 1426 -150 1414 -134 q 1398 -114 1386 -66 q 1373 -18 1362 50 q 1352 117 1344 200 q 1337 284 1332 374 l 1165 400 q 1102 290 1025 188 q 948 87 856 9 q 765 -69 658 -116 q 552 -163 430 -165 q 306 -167 224 -144 q 143 -121 94 -83 q 45 -45 22 2 q 0 50 -6 97 q -11 134 -3 176 q 5 217 30 258 q 54 300 97 340 q 140 380 206 413 q 271 446 360 470 q 450 494 569 505 q 606 508 657 508 q 708 508 768 506 q 828 503 894 498 q 961 493 1030 486 q 1072 564 1108 643 q 1145 722 1176 796 q 1207 870 1233 936 q 1259 1001 1278 1053 q 1298 1105 1312 1140 q 1326 1175 1334 1188 z m 423 -69 q 510 -66 589 -26 q 668 15 740 82 q 812 149 876 237 q 939 325 995 422 q 875 436 766 442 q 657 447 554 437 q 432 426 342 392 q 253 359 194 313 q 135 267 107 214 q 79 162 81 112 q 83 64 110 29 q 136 -6 182 -28 q 227 -51 289 -61 q 351 -71 423 -69 z m 1328 448 q 1325 517 1323 586 q 1321 654 1319 720 q 1294 658 1265 594 q 1236 531 1201 466 z"},"f":{"x_min":0,"x_max":350,"ha":350,"o":"m 156 902 q 164 899 170 861 q 177 823 180 758 q 184 693 184 606 q 184 520 181 421 q 184 377 184 306 q 184 235 182 146 q 188 132 198 122 q 209 112 223 107 q 242 104 263 110 q 301 120 324 135 q 348 150 368 173 l 394 143 q 375 122 350 98 q 326 73 298 52 q 270 31 240 16 q 209 2 178 0 q 166 -100 170 -208 q 174 -315 197 -413 q 200 -424 188 -432 q 175 -441 158 -446 q 142 -452 126 -454 q 111 -457 106 -456 q 101 -455 92 -455 q 83 -455 72 -452 q 62 -449 52 -440 q 42 -432 36 -415 q 20 -369 14 -284 q 7 -200 6 -92 q 4 15 6 138 q 8 260 10 383 q 11 506 10 622 q 9 737 2 829 q 1 845 20 860 q 39 876 65 886 q 91 897 117 902 q 143 906 156 902 z"},"Q":{"x_min":0,"x_max":1254,"ha":1254,"o":"m 11 473 q 10 614 46 742 q 82 869 156 966 q 229 1064 340 1125 q 451 1186 599 1194 q 749 1202 864 1152 q 978 1103 1055 1013 q 1132 923 1172 801 q 1212 679 1214 541 l 1214 516 q 1214 373 1172 246 q 1130 119 1048 24 q 967 -72 848 -128 q 729 -183 575 -183 q 441 -183 337 -132 q 233 -82 162 6 q 90 95 52 214 q 13 334 11 473 z m 167 500 q 180 385 224 284 q 269 184 337 108 q 405 32 493 -14 q 581 -61 680 -67 q 793 -63 874 -14 q 954 34 1004 113 q 1053 192 1072 294 q 1092 396 1083 507 q 1069 577 1046 646 q 1023 715 990 778 q 956 842 912 896 q 867 951 811 992 q 755 1032 688 1056 q 620 1080 540 1082 q 419 1077 340 1030 q 262 982 218 903 q 175 824 164 720 q 153 617 167 500 z"},"w":{"x_min":0,"x_max":817,"ha":817,"o":"m 274 366 q 272 364 283 378 q 294 391 314 408 q 335 426 365 444 q 395 461 433 468 q 432 457 430 435 q 429 413 428 386 q 426 360 425 331 q 424 302 424 278 q 423 253 422 235 q 422 217 423 212 q 424 197 424 180 q 425 162 428 146 q 432 130 441 118 q 450 106 468 104 q 477 104 486 114 q 495 125 503 142 q 511 159 519 180 q 527 202 535 224 q 523 280 524 337 q 525 394 534 438 q 544 490 568 516 q 591 542 616 546 q 642 549 664 531 q 686 513 694 479 q 697 465 690 445 q 682 425 670 402 q 659 380 646 358 q 633 335 624 317 q 620 308 617 290 q 614 273 614 252 q 615 230 620 206 q 624 183 634 164 q 644 144 661 130 q 678 116 703 114 q 716 113 731 114 q 746 115 764 121 q 781 127 799 139 q 817 151 836 173 q 842 165 848 158 q 855 151 862 143 q 843 121 822 102 q 802 83 778 71 q 753 59 724 56 q 694 53 657 63 q 622 73 597 98 q 572 124 556 159 q 545 130 533 102 q 521 73 506 50 q 490 28 471 14 q 452 0 428 0 q 380 0 351 17 q 322 34 305 57 q 274 33 240 16 q 206 0 171 0 q 134 0 108 12 q 81 23 64 40 q 46 56 36 76 q 26 96 22 113 q 17 130 16 142 q 15 153 15 153 l 16 153 q 15 155 15 172 q 15 189 16 213 q 16 237 16 264 q 16 291 16 314 q 17 336 17 351 q 17 366 17 366 q 15 364 26 378 q 37 391 58 408 q 78 426 108 444 q 138 461 175 468 q 174 457 172 435 q 171 413 170 386 q 169 360 168 331 q 167 302 166 278 q 166 253 166 235 q 165 217 166 212 q 168 181 180 150 q 192 118 223 107 q 242 104 263 110 l 279 114 q 274 131 273 142 q 272 152 273 153 l 274 153 q 273 155 273 172 q 273 189 274 213 q 274 237 274 264 q 274 291 274 314 q 275 336 274 351 q 274 366 274 366 z"},"E":{"x_min":0,"x_max":1147,"ha":1147,"o":"m 1074 -107 q 920 -141 803 -144 q 686 -146 602 -122 q 518 -99 463 -52 q 408 -5 378 60 q 347 126 338 207 q 329 288 336 379 q 314 375 294 372 q 274 369 254 365 q 252 415 260 446 q 268 478 282 497 q 296 516 313 524 q 330 532 346 535 l 358 537 q 375 631 402 729 q 430 827 462 925 q 464 932 477 942 q 490 952 508 963 q 527 974 550 984 q 572 994 594 1001 q 506 990 426 972 q 345 955 281 932 q 217 908 176 878 q 134 849 124 815 q 115 781 143 742 q 171 703 246 661 q 260 653 260 636 q 259 620 248 600 q 238 581 222 561 q 205 541 186 526 q 168 511 150 504 q 133 497 122 503 q 60 538 33 600 q 6 663 17 738 q 28 812 78 890 q 127 969 217 1034 q 307 1100 438 1144 q 570 1189 745 1197 q 813 1200 884 1201 q 956 1202 1026 1201 q 1097 1200 1164 1196 q 1231 1193 1291 1187 q 1304 1188 1312 1176 q 1321 1165 1323 1146 q 1325 1128 1321 1106 q 1317 1084 1304 1064 q 1292 1045 1272 1032 q 1251 1018 1220 1017 q 1185 1013 1136 1014 q 1087 1014 1027 1015 q 967 1016 898 1016 q 828 1017 752 1014 q 728 1012 704 1010 q 680 1009 657 1007 q 681 1002 678 974 q 640 865 612 762 q 584 659 567 563 q 667 571 764 572 q 862 573 937 570 q 946 571 952 561 q 959 551 962 536 q 965 521 963 503 q 961 485 954 470 q 947 454 933 443 q 919 432 898 431 q 869 429 830 426 q 792 424 746 421 q 701 418 651 414 q 601 410 549 405 q 543 276 572 178 q 602 80 676 28 q 750 -24 874 -22 q 998 -21 1181 48 q 1200 49 1204 30 q 1209 11 1196 -15 q 1184 -41 1154 -68 q 1124 -94 1074 -107 z"},"s":{"x_min":0,"x_max":429,"ha":429,"o":"m 157 307 q 149 293 132 266 q 115 240 96 212 q 77 185 58 160 q 40 136 29 127 l -2 154 q 4 159 9 164 q 14 170 19 176 q 29 187 46 214 q 64 240 85 274 q 106 308 129 345 q 152 382 172 413 q 192 444 207 466 q 222 487 228 491 q 231 493 240 468 q 249 444 276 401 q 283 390 299 369 q 315 348 332 325 q 348 302 360 282 q 372 262 369 253 q 366 244 362 238 q 359 231 350 218 q 341 205 326 181 q 310 157 285 114 l 271 91 q 290 91 311 94 q 332 96 354 105 q 377 114 400 130 q 423 146 445 173 l 471 143 q 450 115 420 88 q 390 62 353 41 q 316 20 274 7 q 233 -6 189 -6 q 179 -6 167 -4 q 155 -2 143 0 q 137 0 126 3 q 114 6 101 13 q 88 20 78 31 q 67 42 64 58 q 61 74 75 102 q 89 130 108 154 q 126 178 142 190 q 158 201 159 184 q 159 167 174 153 q 188 139 206 131 q 224 123 240 124 q 257 124 263 137 q 268 150 252 178 q 237 206 216 235 q 191 268 157 307 z"},"l":{"x_min":0,"x_max":334,"ha":334,"o":"m 31 824 q 28 833 43 852 q 58 870 82 884 q 106 899 134 903 q 162 907 185 888 q 182 883 178 855 q 175 827 171 784 q 167 740 164 686 q 160 631 156 573 q 153 515 150 458 q 148 400 147 351 q 146 302 146 265 q 147 228 150 212 q 153 197 156 180 q 160 164 166 150 q 173 135 183 124 q 193 112 208 107 q 227 104 248 110 q 285 120 308 135 q 332 150 353 173 l 379 143 q 360 121 334 96 q 309 71 280 50 q 250 28 218 14 q 186 0 155 0 q 118 0 92 12 q 66 23 48 40 q 31 56 21 76 q 11 96 6 113 q 2 130 1 142 q 0 153 0 153 l 1 153 q -3 171 -4 210 q -5 248 -5 298 q -5 349 -3 408 q -1 466 2 524 q 5 582 8 636 q 12 690 16 732 q 20 773 24 798 q 27 823 31 824 z"},"8":{"x_min":0,"x_max":813,"ha":813,"o":"m 572 568 l 481 485 l 505 361 l 398 424 l 288 361 l 314 482 l 222 568 l 346 581 l 398 695 l 448 582 z m 443 431 l 414 603 l 379 603 l 349 431 l 364 422 l 377 431 l 383 470 l 409 470 l 416 431 l 430 422 z m 407 495 l 387 495 l 396 563 z m 395 61 l 409 61 l 404 73 q 403 75 403 76 q 403 78 401 80 q 401 77 399 73 z m 223 44 l 223 49 l 230 49 l 230 44 z m 551 44 l 551 86 l 556 86 l 556 48 l 577 48 l 577 44 z m 513 44 l 513 86 l 543 86 l 543 80 l 518 80 l 518 67 l 541 67 l 541 62 l 518 62 l 518 48 l 543 48 l 543 44 z m 365 44 l 365 61 l 349 86 l 356 86 l 364 73 q 366 67 368 66 q 369 67 370 69 q 371 71 373 73 l 381 86 l 387 86 l 370 61 l 370 44 z m 239 44 l 239 86 l 255 86 q 257 86 258 85 q 260 84 261 84 q 265 83 266 80 q 268 78 268 74 q 268 71 266 70 q 265 66 262 66 q 265 65 268 62 q 270 58 270 56 q 270 54 270 53 q 269 52 269 51 q 268 47 265 47 q 264 45 263 45 q 262 45 261 44 l 255 44 z m 125 44 l 113 86 l 119 86 l 125 58 q 126 55 126 53 q 126 51 127 49 q 128 54 128 57 l 136 86 l 143 86 l 149 64 q 152 55 152 49 q 153 51 153 53 q 153 55 154 58 l 161 86 l 166 86 l 154 44 l 149 44 l 141 75 q 140 78 140 80 q 139 78 139 75 l 130 44 z m 70 44 l 58 86 l 65 86 l 70 58 q 71 55 71 53 q 71 51 73 49 q 74 54 74 57 l 82 86 l 88 86 l 95 64 q 96 59 96 56 q 97 53 97 49 q 99 51 99 53 q 99 55 100 58 l 106 86 l 112 86 l 100 44 l 95 44 l 87 75 q 86 78 86 80 q 84 78 84 75 l 75 44 z m 244 67 l 253 67 q 257 67 258 69 q 261 69 261 70 q 262 71 262 74 q 262 77 261 78 l 260 78 q 259 78 259 78 q 259 79 258 79 q 257 80 252 80 l 244 80 z m 178 44 l 167 86 l 173 86 l 179 58 q 180 55 180 53 q 180 51 182 49 q 182 53 182 54 q 183 56 183 57 l 191 86 l 197 86 l 204 64 q 205 59 206 56 q 206 53 206 49 q 208 51 208 53 q 208 55 209 58 l 216 86 l 221 86 l 209 44 l 204 44 l 196 75 q 195 78 195 80 q 193 78 193 75 l 184 44 z m 431 66 l 443 66 q 445 66 446 66 q 448 67 450 67 q 452 67 452 70 q 453 71 453 74 q 453 77 451 79 q 450 80 444 80 l 431 80 z m 244 48 l 255 48 q 257 48 258 49 l 261 49 q 262 51 264 52 l 264 56 q 264 58 262 60 q 262 62 260 62 l 253 62 l 244 62 z m 278 44 l 278 86 l 283 86 l 283 44 z m 645 64 q 645 55 648 52 q 652 48 659 48 q 666 48 669 52 q 673 55 673 65 q 673 70 672 73 q 670 78 667 79 q 664 80 659 80 q 653 80 650 77 q 645 73 645 64 z m 639 64 q 639 75 645 80 q 649 86 659 86 q 662 86 664 85 q 667 84 669 83 q 672 82 674 80 q 675 78 677 75 q 678 73 678 65 q 678 56 676 53 q 673 48 669 45 q 665 43 659 43 q 656 43 654 44 q 651 44 648 45 q 646 47 644 49 q 643 51 642 53 q 641 56 640 58 q 639 61 639 64 z m 383 44 l 399 86 l 405 86 l 422 44 l 416 44 l 411 56 l 394 56 l 388 44 z m 294 44 l 294 86 l 299 86 l 299 48 l 318 48 l 318 44 z m 583 44 l 583 49 l 590 49 l 590 44 z m 487 60 l 487 65 l 504 65 l 504 49 q 500 45 496 44 q 494 44 492 44 q 489 43 487 43 q 481 43 477 45 q 474 47 472 48 q 470 50 469 53 q 468 56 467 58 q 466 61 466 64 q 466 68 467 70 q 468 72 469 75 q 471 81 476 83 q 478 84 481 85 q 484 86 487 86 q 492 86 495 84 q 499 83 500 80 q 503 77 504 74 l 499 73 q 499 74 496 77 q 496 79 492 80 l 487 80 l 481 80 q 478 79 476 77 q 476 76 473 73 q 473 71 472 69 q 472 67 472 65 q 472 58 474 56 q 478 50 479 49 q 482 48 487 48 q 491 48 494 49 q 496 51 497 51 q 498 51 499 52 l 499 60 z m 426 44 l 426 86 l 444 86 q 447 86 449 85 q 451 84 453 84 q 456 83 457 80 q 459 78 459 74 q 459 69 456 66 q 455 65 452 64 q 450 64 447 62 q 449 62 450 62 q 450 61 451 61 q 452 59 455 54 l 463 44 l 456 44 l 450 52 q 448 54 448 56 q 447 57 446 58 q 446 60 445 60 q 444 60 443 61 l 442 61 q 441 61 441 62 q 441 62 440 62 l 438 62 l 431 62 l 431 44 z m 325 44 l 325 86 l 331 86 l 331 48 l 351 48 l 351 44 z m 629 58 l 634 57 q 632 49 628 47 q 624 43 617 43 q 611 43 607 45 q 604 47 603 49 q 602 51 600 53 q 598 61 598 65 q 598 69 600 77 q 605 82 607 83 q 610 84 612 85 q 614 86 617 86 q 620 86 623 85 q 626 84 628 83 q 630 81 632 79 q 633 77 634 74 l 628 73 q 628 77 624 79 q 622 80 617 80 q 611 80 609 79 q 607 78 606 76 q 606 75 604 73 q 604 71 604 69 q 603 67 603 65 q 603 59 606 56 q 606 54 607 52 q 608 51 609 49 q 612 48 617 48 q 622 48 625 51 q 628 54 629 58 z m 686 44 l 686 86 l 694 86 l 704 56 q 704 54 705 52 q 706 51 706 49 q 706 50 708 56 l 717 86 l 725 86 l 725 44 l 720 44 l 720 78 l 708 44 l 703 44 l 691 79 l 691 44 z m 395 61 l 409 61 l 404 73 q 403 75 403 76 q 403 78 401 80 q 401 77 399 73 z m 223 44 l 223 49 l 230 49 l 230 44 z m 551 44 l 551 86 l 556 86 l 556 48 l 577 48 l 577 44 z m 513 44 l 513 86 l 543 86 l 543 80 l 518 80 l 518 67 l 541 67 l 541 62 l 518 62 l 518 48 l 543 48 l 543 44 z m 365 44 l 365 61 l 349 86 l 356 86 l 364 73 q 366 67 368 66 q 369 67 370 69 q 371 71 373 73 l 381 86 l 387 86 l 370 61 l 370 44 z m 239 44 l 239 86 l 255 86 q 257 86 258 85 q 260 84 261 84 q 265 83 266 80 q 268 78 268 74 q 268 71 266 70 q 265 66 262 66 q 265 65 268 62 q 270 58 270 56 q 270 54 270 53 q 269 52 269 51 q 268 47 265 47 q 264 45 263 45 q 262 45 261 44 l 255 44 z m 125 44 l 113 86 l 119 86 l 125 58 q 126 55 126 53 q 126 51 127 49 q 128 54 128 57 l 136 86 l 143 86 l 149 64 q 152 55 152 49 q 153 51 153 53 q 153 55 154 58 l 161 86 l 166 86 l 154 44 l 149 44 l 141 75 q 140 78 140 80 q 139 78 139 75 l 130 44 z m 70 44 l 58 86 l 65 86 l 70 58 q 71 55 71 53 q 71 51 73 49 q 74 54 74 57 l 82 86 l 88 86 l 95 64 q 96 59 96 56 q 97 53 97 49 q 99 51 99 53 q 99 55 100 58 l 106 86 l 112 86 l 100 44 l 95 44 l 87 75 q 86 78 86 80 q 84 78 84 75 l 75 44 z m 244 67 l 253 67 q 257 67 258 69 q 261 69 261 70 q 262 71 262 74 q 262 77 261 78 l 260 78 q 259 78 259 78 q 259 79 258 79 q 257 80 252 80 l 244 80 z m 178 44 l 167 86 l 173 86 l 179 58 q 180 55 180 53 q 180 51 182 49 q 182 53 182 54 q 183 56 183 57 l 191 86 l 197 86 l 204 64 q 205 59 206 56 q 206 53 206 49 q 208 51 208 53 q 208 55 209 58 l 216 86 l 221 86 l 209 44 l 204 44 l 196 75 q 195 78 195 80 q 193 78 193 75 l 184 44 z m 431 66 l 443 66 q 445 66 446 66 q 448 67 450 67 q 452 67 452 70 q 453 71 453 74 q 453 77 451 79 q 450 80 444 80 l 431 80 z m 244 48 l 255 48 q 257 48 258 49 l 261 49 q 262 51 264 52 l 264 56 q 264 58 262 60 q 262 62 260 62 l 253 62 l 244 62 z m 278 44 l 278 86 l 283 86 l 283 44 z m 645 64 q 645 55 648 52 q 652 48 659 48 q 666 48 669 52 q 673 55 673 65 q 673 70 672 73 q 670 78 667 79 q 664 80 659 80 q 653 80 650 77 q 645 73 645 64 z m 639 64 q 639 75 645 80 q 649 86 659 86 q 662 86 664 85 q 667 84 669 83 q 672 82 674 80 q 675 78 677 75 q 678 73 678 65 q 678 56 676 53 q 673 48 669 45 q 665 43 659 43 q 656 43 654 44 q 651 44 648 45 q 646 47 644 49 q 643 51 642 53 q 641 56 640 58 q 639 61 639 64 z m 383 44 l 399 86 l 405 86 l 422 44 l 416 44 l 411 56 l 394 56 l 388 44 z m 294 44 l 294 86 l 299 86 l 299 48 l 318 48 l 318 44 z m 583 44 l 583 49 l 590 49 l 590 44 z m 487 60 l 487 65 l 504 65 l 504 49 q 500 45 496 44 q 494 44 492 44 q 489 43 487 43 q 481 43 477 45 q 474 47 472 48 q 470 50 469 53 q 468 56 467 58 q 466 61 466 64 q 466 68 467 70 q 468 72 469 75 q 471 81 476 83 q 478 84 481 85 q 484 86 487 86 q 492 86 495 84 q 499 83 500 80 q 503 77 504 74 l 499 73 q 499 74 496 77 q 496 79 492 80 l 487 80 l 481 80 q 478 79 476 77 q 476 76 473 73 q 473 71 472 69 q 472 67 472 65 q 472 58 474 56 q 478 50 479 49 q 482 48 487 48 q 491 48 494 49 q 496 51 497 51 q 498 51 499 52 l 499 60 z m 426 44 l 426 86 l 444 86 q 447 86 449 85 q 451 84 453 84 q 456 83 457 80 q 459 78 459 74 q 459 69 456 66 q 455 65 452 64 q 450 64 447 62 q 449 62 450 62 q 450 61 451 61 q 452 59 455 54 l 463 44 l 456 44 l 450 52 q 448 54 448 56 q 447 57 446 58 q 446 60 445 60 q 444 60 443 61 l 442 61 q 441 61 441 62 q 441 62 440 62 l 438 62 l 431 62 l 431 44 z m 325 44 l 325 86 l 331 86 l 331 48 l 351 48 l 351 44 z m 629 58 l 634 57 q 632 49 628 47 q 624 43 617 43 q 611 43 607 45 q 604 47 603 49 q 602 51 600 53 q 598 61 598 65 q 598 69 600 77 q 605 82 607 83 q 610 84 612 85 q 614 86 617 86 q 620 86 623 85 q 626 84 628 83 q 630 81 632 79 q 633 77 634 74 l 628 73 q 628 77 624 79 q 622 80 617 80 q 611 80 609 79 q 607 78 606 76 q 606 75 604 73 q 604 71 604 69 q 603 67 603 65 q 603 59 606 56 q 606 54 607 52 q 608 51 609 49 q 612 48 617 48 q 622 48 625 51 q 628 54 629 58 z m 686 44 l 686 86 l 694 86 l 704 56 q 704 54 705 52 q 706 51 706 49 q 706 50 708 56 l 717 86 l 725 86 l 725 44 l 720 44 l 720 78 l 708 44 l 703 44 l 691 79 l 691 44 z m 395 61 l 409 61 l 404 73 q 403 75 403 76 q 403 78 401 80 q 401 77 399 73 z m 223 44 l 223 49 l 230 49 l 230 44 z m 551 44 l 551 86 l 556 86 l 556 48 l 577 48 l 577 44 z m 513 44 l 513 86 l 543 86 l 543 80 l 518 80 l 518 67 l 541 67 l 541 62 l 518 62 l 518 48 l 543 48 l 543 44 z m 365 44 l 365 61 l 349 86 l 356 86 l 364 73 q 366 67 368 66 q 369 67 370 69 q 371 71 373 73 l 381 86 l 387 86 l 370 61 l 370 44 z m 239 44 l 239 86 l 255 86 q 257 86 258 85 q 260 84 261 84 q 265 83 266 80 q 268 78 268 74 q 268 71 266 70 q 265 66 262 66 q 265 65 268 62 q 270 58 270 56 q 270 54 270 53 q 269 52 269 51 q 268 47 265 47 q 264 45 263 45 q 262 45 261 44 l 255 44 z m 125 44 l 113 86 l 119 86 l 125 58 q 126 55 126 53 q 126 51 127 49 q 128 54 128 57 l 136 86 l 143 86 l 149 64 q 152 55 152 49 q 153 51 153 53 q 153 55 154 58 l 161 86 l 166 86 l 154 44 l 149 44 l 141 75 q 140 78 140 80 q 139 78 139 75 l 130 44 z m 70 44 l 58 86 l 65 86 l 70 58 q 71 55 71 53 q 71 51 73 49 q 74 54 74 57 l 82 86 l 88 86 l 95 64 q 96 59 96 56 q 97 53 97 49 q 99 51 99 53 q 99 55 100 58 l 106 86 l 112 86 l 100 44 l 95 44 l 87 75 q 86 78 86 80 q 84 78 84 75 l 75 44 z m 244 67 l 253 67 q 257 67 258 69 q 261 69 261 70 q 262 71 262 74 q 262 77 261 78 l 260 78 q 259 78 259 78 q 259 79 258 79 q 257 80 252 80 l 244 80 z m 178 44 l 167 86 l 173 86 l 179 58 q 180 55 180 53 q 180 51 182 49 q 182 53 182 54 q 183 56 183 57 l 191 86 l 197 86 l 204 64 q 205 59 206 56 q 206 53 206 49 q 208 51 208 53 q 208 55 209 58 l 216 86 l 221 86 l 209 44 l 204 44 l 196 75 q 195 78 195 80 q 193 78 193 75 l 184 44 z m 431 66 l 443 66 q 445 66 446 66 q 448 67 450 67 q 452 67 452 70 q 453 71 453 74 q 453 77 451 79 q 450 80 444 80 l 431 80 z m 244 48 l 255 48 q 257 48 258 49 l 261 49 q 262 51 264 52 l 264 56 q 264 58 262 60 q 262 62 260 62 l 253 62 l 244 62 z m 278 44 l 278 86 l 283 86 l 283 44 z m 645 64 q 645 55 648 52 q 652 48 659 48 q 666 48 669 52 q 673 55 673 65 q 673 70 672 73 q 670 78 667 79 q 664 80 659 80 q 653 80 650 77 q 645 73 645 64 z m 639 64 q 639 75 645 80 q 649 86 659 86 q 662 86 664 85 q 667 84 669 83 q 672 82 674 80 q 675 78 677 75 q 678 73 678 65 q 678 56 676 53 q 673 48 669 45 q 665 43 659 43 q 656 43 654 44 q 651 44 648 45 q 646 47 644 49 q 643 51 642 53 q 641 56 640 58 q 639 61 639 64 z m 383 44 l 399 86 l 405 86 l 422 44 l 416 44 l 411 56 l 394 56 l 388 44 z m 294 44 l 294 86 l 299 86 l 299 48 l 318 48 l 318 44 z m 583 44 l 583 49 l 590 49 l 590 44 z m 487 60 l 487 65 l 504 65 l 504 49 q 500 45 496 44 q 494 44 492 44 q 489 43 487 43 q 481 43 477 45 q 474 47 472 48 q 470 50 469 53 q 468 56 467 58 q 466 61 466 64 q 466 68 467 70 q 468 72 469 75 q 471 81 476 83 q 478 84 481 85 q 484 86 487 86 q 492 86 495 84 q 499 83 500 80 q 503 77 504 74 l 499 73 q 499 74 496 77 q 496 79 492 80 l 487 80 l 481 80 q 478 79 476 77 q 476 76 473 73 q 473 71 472 69 q 472 67 472 65 q 472 58 474 56 q 478 50 479 49 q 482 48 487 48 q 491 48 494 49 q 496 51 497 51 q 498 51 499 52 l 499 60 z m 426 44 l 426 86 l 444 86 q 447 86 449 85 q 451 84 453 84 q 456 83 457 80 q 459 78 459 74 q 459 69 456 66 q 455 65 452 64 q 450 64 447 62 q 449 62 450 62 q 450 61 451 61 q 452 59 455 54 l 463 44 l 456 44 l 450 52 q 448 54 448 56 q 447 57 446 58 q 446 60 445 60 q 444 60 443 61 l 442 61 q 441 61 441 62 q 441 62 440 62 l 438 62 l 431 62 l 431 44 z m 325 44 l 325 86 l 331 86 l 331 48 l 351 48 l 351 44 z m 629 58 l 634 57 q 632 49 628 47 q 624 43 617 43 q 611 43 607 45 q 604 47 603 49 q 602 51 600 53 q 598 61 598 65 q 598 69 600 77 q 605 82 607 83 q 610 84 612 85 q 614 86 617 86 q 620 86 623 85 q 626 84 628 83 q 630 81 632 79 q 633 77 634 74 l 628 73 q 628 77 624 79 q 622 80 617 80 q 611 80 609 79 q 607 78 606 76 q 606 75 604 73 q 604 71 604 69 q 603 67 603 65 q 603 59 606 56 q 606 54 607 52 q 608 51 609 49 q 612 48 617 48 q 622 48 625 51 q 628 54 629 58 z m 686 44 l 686 86 l 694 86 l 704 56 q 704 54 705 52 q 706 51 706 49 q 706 50 708 56 l 717 86 l 725 86 l 725 44 l 720 44 l 720 78 l 708 44 l 703 44 l 691 79 l 691 44 z m 105 121 l 113 118 q 111 109 104 103 q 96 97 87 97 q 78 97 70 101 q 62 107 61 113 q 57 120 57 130 q 57 141 61 148 q 64 155 71 158 q 78 162 87 162 q 98 162 102 157 q 109 155 112 144 l 104 143 q 100 151 97 152 q 94 156 87 156 q 79 156 75 152 q 69 148 67 143 q 66 139 66 130 q 66 121 69 117 q 71 110 75 108 q 80 104 86 104 q 94 104 99 109 q 101 111 102 114 q 104 117 105 121 z m 121 129 q 121 137 123 143 q 125 149 130 153 q 134 158 140 160 q 145 162 151 162 q 160 162 167 158 q 173 155 178 147 q 182 137 182 130 q 182 125 181 121 q 180 117 178 113 q 173 105 166 101 q 158 97 151 97 q 146 97 142 98 q 139 99 135 101 q 128 105 125 113 q 121 120 121 129 z m 130 129 q 130 117 135 110 q 142 104 151 104 q 161 104 166 112 q 173 119 173 130 q 173 134 172 137 q 171 140 170 143 q 168 150 162 152 q 159 156 151 156 q 143 156 136 149 q 130 144 130 129 z m 192 99 l 192 161 l 204 161 l 219 117 q 222 111 222 108 q 224 110 226 118 l 242 161 l 252 161 l 252 99 l 244 99 l 244 151 l 226 99 l 218 99 l 200 152 l 200 99 z m 266 99 l 266 161 l 290 161 l 299 161 q 304 161 307 158 q 308 157 312 152 q 313 150 314 148 q 314 146 314 143 q 314 137 309 130 q 304 125 290 125 l 274 125 l 274 99 z m 274 131 l 291 131 q 300 131 301 135 q 305 136 305 143 q 305 148 304 149 q 300 153 297 153 q 296 155 290 155 l 274 155 z m 325 99 l 325 161 l 333 161 l 333 105 l 364 105 l 364 99 z m 374 99 l 374 161 l 420 161 l 420 155 l 382 155 l 382 135 l 417 135 l 417 127 l 382 127 l 382 105 l 421 105 l 421 99 z m 448 99 l 448 155 l 427 155 l 427 161 l 478 161 l 478 155 l 457 155 l 457 99 z m 487 99 l 487 161 l 533 161 l 533 155 l 495 155 l 495 135 l 530 135 l 530 127 l 495 127 l 495 105 l 534 105 l 534 99 z m 568 118 l 576 119 q 576 114 578 112 q 580 108 585 106 q 587 105 594 105 q 596 105 598 105 q 601 105 603 106 q 606 106 608 110 q 609 112 609 116 q 609 119 608 121 q 607 122 606 122 q 604 123 602 125 q 601 125 591 127 q 586 129 583 130 q 580 130 578 131 q 574 133 572 138 q 570 139 570 141 q 569 143 569 145 q 569 151 573 155 q 574 157 576 158 q 578 159 581 161 q 583 162 593 162 q 600 162 604 160 q 607 158 609 157 q 611 156 612 153 q 616 150 616 144 l 608 143 q 606 151 603 152 q 600 155 593 155 q 583 155 581 152 q 578 149 578 145 q 578 142 581 140 q 581 140 593 135 q 598 134 602 133 q 605 132 607 131 q 610 130 612 128 q 613 127 615 125 q 617 122 617 116 q 617 109 615 106 q 611 102 607 100 q 604 99 601 98 q 598 97 594 97 q 590 97 586 98 q 582 99 580 100 q 575 101 570 108 q 568 112 568 118 z m 629 99 l 629 161 l 674 161 l 674 155 l 638 155 l 638 135 l 673 135 l 673 127 l 638 127 l 638 105 l 676 105 l 676 99 z m 704 99 l 704 155 l 684 155 l 684 161 l 733 161 l 733 155 l 712 155 l 712 99 z m 63 174 l 63 236 l 88 236 l 97 236 q 99 236 105 234 q 106 233 108 231 q 109 229 110 227 q 112 225 112 220 q 112 211 106 205 q 103 200 88 200 l 73 200 l 73 174 z m 73 208 l 88 208 q 97 208 100 210 q 104 214 104 218 q 104 220 103 222 q 102 224 101 226 q 98 229 96 229 q 95 230 88 230 l 73 230 z m 122 174 l 122 236 l 167 236 l 167 230 l 131 230 l 131 210 l 165 210 l 165 203 l 131 203 l 131 182 l 169 182 l 169 174 z m 180 174 l 180 236 l 209 236 q 218 236 222 235 q 227 233 229 230 q 231 222 231 220 q 231 213 227 209 q 223 205 213 203 q 215 201 216 201 q 217 201 218 200 q 223 195 225 191 l 236 174 l 226 174 l 217 187 q 216 190 214 192 q 213 194 212 196 q 210 197 210 198 q 209 200 208 200 q 206 201 204 201 q 203 203 199 203 l 190 203 l 190 174 z m 190 209 l 206 209 q 214 209 216 210 q 219 213 221 214 q 222 216 222 220 q 222 224 219 227 q 216 230 209 230 l 190 230 z m 242 195 l 249 195 q 249 193 250 191 q 251 189 252 187 q 253 186 254 184 q 256 183 258 183 q 264 181 268 181 q 270 181 272 181 q 274 181 275 182 q 281 184 282 186 q 282 187 282 188 q 283 190 283 191 q 283 195 282 196 q 279 198 275 200 q 274 201 272 201 q 269 201 265 203 q 256 204 252 207 q 247 211 245 213 q 244 216 244 221 q 244 223 244 226 q 245 228 247 230 q 248 234 255 236 q 257 238 266 238 q 274 238 278 236 q 284 233 286 229 q 290 223 290 220 l 282 218 q 280 225 277 227 q 273 231 266 231 q 258 231 255 227 q 252 225 252 221 q 252 217 255 216 q 256 214 266 212 q 275 208 281 208 q 283 206 285 204 q 287 203 288 201 q 291 198 291 192 q 291 187 288 183 q 286 180 284 178 q 283 177 281 175 q 273 173 268 173 q 261 173 253 175 q 250 177 248 178 q 246 180 244 183 q 243 186 242 188 q 242 191 242 195 z m 300 205 q 300 219 308 229 q 317 238 330 238 q 334 238 338 237 q 341 236 346 234 q 350 232 352 229 q 354 226 356 222 q 360 215 360 205 q 360 196 356 188 q 352 181 346 177 q 338 173 330 173 q 321 173 314 178 q 305 183 304 190 q 300 195 300 205 z m 308 205 q 308 193 314 187 q 320 181 330 181 q 340 181 346 187 q 351 194 351 205 q 351 209 350 213 q 350 217 348 220 q 345 225 342 227 q 337 231 330 231 q 325 231 322 230 q 319 228 314 225 q 308 219 308 205 z m 370 174 l 370 236 l 379 236 l 412 188 l 412 236 l 420 236 l 420 174 l 412 174 l 378 223 l 378 174 z m 427 174 l 451 236 l 460 236 l 486 174 l 476 174 l 469 194 l 443 194 l 435 174 z m 444 200 l 466 200 l 460 217 q 458 221 457 224 q 456 228 455 230 q 455 227 454 224 q 453 221 452 218 z m 491 174 l 491 236 l 500 236 l 500 182 l 531 182 l 531 174 z m 603 236 l 611 236 l 611 201 q 611 190 609 186 q 607 180 602 177 q 597 173 587 173 q 577 173 573 177 q 570 178 568 180 q 566 183 564 186 q 563 188 563 201 l 563 236 l 570 236 l 570 201 q 570 191 572 188 q 574 184 577 183 q 579 182 581 182 q 583 181 586 181 q 594 181 599 184 q 603 188 603 201 z m 622 195 l 630 195 q 630 193 631 191 q 632 189 633 187 q 634 186 636 184 q 637 183 639 183 q 645 181 648 181 q 655 181 658 182 q 660 183 663 186 q 664 187 664 191 q 664 195 663 196 q 661 197 660 198 q 660 199 658 200 q 656 201 653 201 q 650 201 646 203 q 642 204 638 204 q 635 205 634 207 q 629 209 628 213 q 625 216 625 221 q 625 225 628 230 q 629 234 635 236 q 639 238 647 238 q 650 238 654 238 q 657 238 659 236 q 665 233 668 229 q 669 227 670 224 q 671 222 671 220 l 663 218 q 661 221 660 224 q 660 226 658 227 q 655 231 647 231 q 638 231 637 227 q 633 226 633 221 q 633 218 635 216 q 637 214 647 212 q 658 208 661 208 q 664 206 666 204 q 668 203 669 201 q 672 199 672 192 q 672 186 669 183 q 668 180 666 178 q 664 177 661 175 q 655 173 650 173 q 645 173 642 174 q 638 174 635 175 q 633 177 630 178 q 628 180 626 183 q 624 186 623 188 q 622 191 622 195 z m 684 174 l 684 236 l 729 236 l 729 230 l 693 230 l 693 210 l 726 210 l 726 203 l 693 203 l 693 182 l 730 182 l 730 174 z m 192 312 q 192 322 177 324 q 175 324 172 324 q 169 325 165 325 l 159 318 l 143 301 q 139 296 136 292 q 132 288 127 285 q 133 283 142 282 q 144 282 148 282 q 151 282 154 283 q 169 284 177 291 q 192 303 192 312 z m 203 342 q 203 346 198 346 q 196 346 181 341 l 170 331 q 168 329 166 325 l 183 328 q 187 328 194 333 q 203 339 203 342 z m 216 360 q 216 358 213 358 q 211 358 210 358 q 210 359 208 359 q 198 357 185 344 q 187 346 190 347 q 192 348 194 349 q 201 350 207 349 q 211 349 211 344 l 211 340 q 206 331 183 326 q 201 324 201 314 q 201 302 182 289 q 175 285 168 282 q 160 280 152 279 q 139 276 132 277 q 126 277 119 280 q 113 276 108 276 l 106 276 q 100 278 96 279 l 99 279 q 107 279 112 283 l 112 284 q 105 280 97 280 q 86 280 80 286 q 70 293 70 307 q 70 311 71 314 q 72 318 74 323 q 81 338 98 349 q 103 354 108 356 q 114 357 119 358 q 130 358 134 354 q 129 357 124 357 q 118 357 111 353 q 101 349 100 347 q 90 342 80 330 q 71 316 71 306 q 71 301 72 298 q 73 295 75 292 q 79 286 86 284 q 89 283 91 282 q 93 282 95 282 q 99 282 102 283 q 105 284 109 286 q 98 294 98 308 q 100 321 114 331 l 112 328 q 110 328 108 324 q 102 318 102 311 q 102 298 117 289 q 125 294 125 295 q 127 298 129 300 q 131 302 133 304 q 135 306 136 309 q 136 312 138 315 l 138 314 q 138 309 137 306 l 149 320 q 180 355 200 361 q 191 364 186 364 q 173 363 158 355 q 140 346 140 333 q 140 329 143 326 q 144 325 144 324 q 138 328 138 334 q 138 345 151 356 q 167 368 185 366 q 191 366 203 362 l 207 362 q 212 362 215 360 z m 218 295 q 217 291 210 284 q 203 280 198 280 q 193 280 193 286 q 193 291 199 299 l 198 299 q 197 298 194 298 q 194 298 193 299 q 196 299 203 306 l 204 306 l 207 310 q 210 313 210 315 l 213 315 q 216 315 216 314 q 216 310 210 303 l 203 296 q 197 287 197 284 q 197 281 201 281 q 206 281 213 291 q 214 292 215 292 q 216 293 218 295 z m 223 323 q 219 317 213 317 q 210 317 206 320 l 209 320 q 216 320 218 327 l 218 329 l 223 327 q 224 326 223 323 z m 258 342 q 258 337 227 300 l 226 300 q 217 289 217 283 q 217 280 220 280 q 226 280 233 290 q 234 291 235 292 q 236 292 237 294 q 237 289 229 283 q 224 279 218 279 q 212 280 212 285 q 211 290 232 316 l 244 331 l 250 337 q 253 341 255 347 q 258 345 258 342 z m 275 342 q 275 338 243 300 q 233 288 233 283 q 233 280 237 280 q 241 280 250 290 l 254 294 q 253 289 245 283 q 240 279 234 279 q 228 280 228 285 q 228 291 248 316 l 260 331 l 266 337 q 271 343 272 347 q 275 345 275 342 z m 256 275 q 240 272 231 263 q 224 254 224 252 q 224 248 228 248 q 229 247 235 249 q 237 251 240 254 q 242 256 245 259 z m 285 340 q 283 326 272 315 q 272 314 272 314 q 271 314 271 313 q 268 309 264 306 q 261 302 258 297 q 256 295 256 293 q 255 295 257 299 q 251 290 251 285 q 251 282 254 282 q 255 282 259 284 q 274 296 280 318 l 280 315 l 280 312 q 282 310 282 307 q 282 305 277 297 l 269 284 l 260 272 q 263 274 271 278 l 270 277 q 268 275 264 272 q 261 270 258 265 l 250 255 l 246 250 q 240 244 233 242 q 227 242 224 246 q 218 248 222 255 q 223 256 224 258 q 225 260 227 262 l 228 263 l 221 262 q 238 274 249 275 q 250 275 251 276 q 252 276 253 276 l 254 276 l 256 276 l 262 285 q 258 281 255 280 q 252 280 250 280 q 245 280 245 285 q 245 297 266 316 l 268 317 l 278 327 q 280 331 282 334 q 284 337 285 340 z m 399 355 q 393 357 389 357 q 379 357 370 354 q 362 352 353 347 q 349 345 346 342 q 344 340 341 338 q 353 337 373 325 q 395 347 411 353 z m 420 351 q 416 350 412 348 q 407 347 402 342 q 399 340 387 328 l 380 321 l 390 315 q 392 318 396 322 q 400 327 405 333 z m 429 368 q 429 367 428 366 q 428 359 425 352 l 426 351 l 425 351 q 420 339 412 331 l 396 312 q 398 311 399 311 q 400 311 402 310 q 402 308 401 308 q 399 308 398 308 q 397 309 395 310 q 383 297 382 286 q 380 282 380 280 q 380 276 384 276 q 392 276 401 289 l 405 295 q 415 309 418 320 l 418 323 q 418 322 419 321 l 419 320 q 417 306 409 294 l 396 268 q 396 272 399 281 q 387 272 381 272 q 372 272 374 284 q 374 290 378 298 q 382 305 388 314 l 378 319 l 369 310 q 366 306 360 300 q 355 294 347 284 q 331 268 319 268 l 316 268 q 313 268 307 271 q 307 271 309 271 q 318 269 327 278 q 319 274 308 274 q 297 274 290 279 l 291 279 q 281 286 281 300 q 281 310 285 315 q 291 331 308 342 q 314 347 320 348 q 325 350 331 351 q 341 351 345 347 l 344 347 q 342 349 335 349 q 325 349 310 340 q 299 332 291 323 q 282 309 282 298 q 282 282 297 277 q 303 275 306 275 q 327 276 352 303 l 371 323 q 356 332 337 332 l 336 332 q 334 328 334 323 q 335 323 339 317 q 332 321 332 327 q 332 330 333 332 q 323 330 320 328 q 302 321 304 307 q 304 298 310 291 l 312 289 q 300 301 300 310 q 300 323 312 332 q 322 339 337 339 q 351 355 372 358 q 377 359 388 359 q 393 359 403 357 l 415 354 l 421 354 l 422 353 q 426 360 428 370 l 429 370 z m 442 303 q 442 300 441 298 q 436 293 432 289 q 429 285 426 280 l 427 280 l 428 280 q 427 279 426 279 q 425 279 425 278 q 420 278 420 280 q 420 284 429 293 q 436 302 436 304 q 437 307 433 310 q 421 293 412 289 l 408 287 l 406 288 q 410 288 419 298 q 428 306 431 311 q 431 312 430 312 q 430 312 430 313 q 430 314 437 320 q 437 321 438 321 l 439 320 q 439 319 434 312 q 442 309 442 303 z m 471 306 q 471 312 467 310 q 463 310 461 308 q 458 306 452 298 q 446 290 446 285 q 445 283 448 283 q 454 285 458 290 q 462 298 462 301 q 462 303 461 303 q 465 303 465 298 l 464 296 q 466 298 468 300 q 469 303 471 305 z m 490 315 q 486 315 481 310 q 477 305 473 299 q 469 293 464 285 q 459 275 455 270 q 451 264 450 262 q 437 246 430 246 q 424 245 421 250 q 421 255 421 255 q 421 260 425 264 q 423 263 420 263 q 430 273 442 276 q 443 276 444 276 q 444 277 446 277 l 447 276 q 428 270 424 258 q 423 256 423 253 q 423 252 424 251 q 424 250 425 250 q 433 249 444 265 l 451 275 l 455 281 q 452 280 450 280 q 442 280 442 288 q 442 297 455 309 q 461 315 466 315 q 473 315 473 307 l 474 307 l 479 313 q 484 318 488 318 q 491 318 493 315 z m 508 308 q 508 302 497 296 q 496 295 495 295 l 494 295 q 491 295 488 300 q 490 298 493 298 q 500 302 502 309 l 502 311 l 502 312 l 502 313 q 498 313 489 304 l 489 303 q 486 299 486 296 q 485 294 485 292 q 484 293 484 298 q 482 294 481 291 q 479 287 479 284 q 479 283 480 282 q 480 280 484 280 q 494 284 501 290 q 503 292 506 294 q 504 291 502 288 q 500 286 495 283 q 487 278 481 280 q 481 279 480 280 q 474 280 474 286 q 474 296 485 306 q 491 315 501 315 q 503 315 504 314 q 508 311 508 308 z m 548 342 q 548 338 516 300 q 507 289 507 283 q 507 280 510 280 q 516 280 523 290 q 524 291 525 292 q 526 292 527 294 q 527 289 519 283 q 514 279 507 279 q 502 281 502 285 q 502 293 521 316 l 533 331 l 539 337 q 545 343 545 347 q 548 345 548 342 z m 602 311 q 585 317 584 330 q 579 327 574 324 q 569 322 566 319 q 547 301 547 286 q 547 280 550 279 l 552 279 l 554 279 q 569 279 582 289 q 586 293 592 298 q 597 303 602 311 z m 622 340 l 614 340 q 602 339 585 331 q 587 317 604 314 l 611 323 z m 640 358 q 627 358 616 356 q 606 354 598 349 q 603 354 610 357 q 618 360 627 362 q 607 363 592 350 q 589 348 585 340 q 592 342 598 343 q 605 344 613 343 q 615 343 618 343 q 621 343 626 342 q 628 345 632 349 q 635 353 640 358 z m 703 359 q 701 356 698 354 q 696 351 691 349 q 683 344 676 344 l 674 344 q 673 344 672 345 q 673 346 673 347 q 673 348 675 350 q 666 357 650 357 l 646 352 l 636 340 q 644 339 651 338 q 658 337 664 337 q 678 337 683 340 q 679 336 668 334 q 659 332 650 335 l 634 338 q 630 333 626 330 q 623 326 621 322 l 614 312 l 619 312 q 644 314 648 324 l 649 324 q 646 318 636 313 q 631 311 626 310 q 622 309 618 309 l 613 309 q 606 301 602 295 q 597 289 593 285 q 580 271 569 271 q 564 272 558 272 q 568 272 579 282 q 565 276 557 276 l 551 277 l 559 269 q 551 273 546 278 q 545 278 541 280 q 529 289 528 303 q 528 308 528 312 q 528 316 530 320 q 533 329 538 336 q 543 342 550 349 q 567 364 580 364 q 587 364 592 360 l 591 359 q 588 362 582 362 q 569 360 555 349 q 543 339 537 329 q 529 315 529 303 q 531 285 545 280 q 543 286 544 292 q 546 307 555 318 q 566 332 585 340 q 587 342 587 346 l 596 355 q 609 366 630 366 q 635 366 638 366 q 642 366 647 365 l 648 365 q 655 370 660 372 q 666 375 672 374 q 676 374 678 372 q 667 370 667 370 q 665 369 662 368 q 660 367 657 365 q 661 364 665 364 q 669 363 674 361 q 684 358 690 358 q 699 358 703 359 z m 642 289 q 639 292 639 296 q 639 298 640 300 q 640 301 640 303 q 630 290 631 284 q 631 282 633 282 q 635 282 642 289 z m 655 310 q 655 312 653 312 q 651 312 649 311 q 648 310 646 306 q 641 296 641 293 q 641 290 642 289 l 645 292 l 645 293 l 645 292 q 646 293 646 294 q 646 294 647 295 q 649 301 649 303 q 649 304 648 305 q 650 301 650 300 q 653 303 655 310 z m 659 307 q 659 302 652 292 q 643 283 639 280 l 631 280 q 625 280 625 285 q 625 293 636 306 q 643 315 652 315 q 659 315 659 307 z m 692 309 q 693 307 688 298 q 682 290 680 288 l 668 277 q 661 270 659 262 q 660 274 668 283 q 672 287 674 290 q 676 293 678 297 q 679 298 680 301 l 680 298 q 680 298 679 296 q 681 298 685 306 q 685 307 686 308 q 686 308 686 309 q 686 314 681 312 q 681 312 673 306 q 671 301 668 298 q 664 294 660 289 q 655 283 654 280 q 653 279 649 271 q 649 273 648 276 q 648 278 649 280 q 651 287 658 294 l 664 301 q 669 308 669 312 q 669 313 668 314 q 668 315 668 316 q 674 314 674 310 q 680 315 687 315 q 691 313 692 309 z m 731 323 l 716 323 q 715 321 710 315 q 704 309 696 298 q 694 298 692 293 q 688 288 688 283 q 688 280 690 280 q 695 280 704 290 l 705 291 q 706 292 706 292 q 706 293 707 294 q 707 289 700 283 q 695 279 688 279 q 683 281 682 285 q 682 287 686 295 l 698 309 l 709 323 l 692 325 q 688 326 682 326 l 673 326 q 661 326 649 321 l 648 321 q 658 331 679 331 q 680 331 688 330 q 695 328 709 326 l 712 325 q 715 330 718 334 q 720 337 722 340 q 724 339 724 335 q 724 332 722 330 l 718 324 l 726 323 l 732 323 l 733 323 l 736 323 z m 738 310 q 738 307 731 304 l 730 303 q 733 306 733 311 l 733 315 l 730 315 q 725 315 724 311 q 724 309 727 294 q 728 280 711 280 q 702 280 700 286 q 699 287 699 289 q 699 297 711 299 l 715 298 l 713 298 q 709 298 707 296 q 704 291 704 289 q 704 281 712 281 q 720 281 720 292 q 720 297 719 300 q 718 303 718 307 q 718 317 727 317 q 729 317 730 316 q 731 316 733 316 q 737 314 737 313 q 738 312 738 310 z"},"\\":{"x_min":0,"x_max":361,"ha":361,"o":"m 36 719 q 34 725 28 742 q 21 760 9 780 q -3 801 -20 820 q -38 839 -60 848 l 9 848 q 32 848 52 826 q 71 804 87 772 q 103 739 116 702 q 129 665 140 636 l 376 -65 q 378 -71 385 -88 q 392 -106 404 -126 q 416 -147 433 -166 q 450 -185 473 -194 l 407 -194 q 383 -194 363 -172 q 343 -150 326 -118 q 309 -85 296 -48 q 282 -11 272 18 z"},"e":{"x_min":0,"x_max":409,"ha":409,"o":"m 189 0 q 114 1 64 42 q 14 83 0 155 q -5 184 -2 220 q 0 257 11 294 q 22 330 42 365 q 62 400 92 428 q 121 455 160 472 q 199 488 248 489 q 288 490 308 472 q 328 453 332 424 q 335 394 322 358 q 309 322 282 288 q 256 254 216 226 q 177 198 127 185 q 139 143 163 122 q 187 101 215 93 q 243 85 270 87 q 298 89 315 94 q 353 104 378 127 q 404 150 424 173 l 450 143 q 433 116 406 90 q 378 64 344 44 q 310 24 270 12 q 231 0 189 0 z m 167 425 q 151 425 140 406 q 130 388 124 360 q 119 331 118 296 q 117 260 120 225 l 120 221 q 142 237 160 271 q 177 305 185 340 q 193 374 190 400 q 186 425 167 425 z"},"b":{"x_min":0,"x_max":535,"ha":535,"o":"m 157 951 q 169 934 176 882 q 184 831 188 758 q 191 686 191 600 q 191 514 188 428 q 214 450 246 466 q 278 482 312 484 q 331 485 358 476 q 385 468 410 444 q 434 421 450 380 q 466 338 463 273 q 460 210 440 166 q 420 121 392 90 q 403 84 416 87 q 433 89 452 98 q 472 108 491 120 q 510 133 526 148 q 543 162 554 173 l 580 143 q 560 121 536 96 q 511 71 481 50 q 451 29 416 14 q 382 0 344 0 q 325 0 302 3 q 278 6 254 12 q 230 17 208 25 q 185 33 168 42 q 159 45 157 47 q 154 48 153 50 l 148 49 q 144 35 138 29 q 117 6 88 0 q 58 -5 33 3 q 8 11 -6 32 q -19 52 -8 82 q -1 103 10 171 q 22 239 30 342 q 37 444 36 575 q 34 706 15 853 q 13 861 22 873 q 31 885 46 898 q 60 910 78 922 q 96 934 112 942 q 129 950 141 953 q 153 956 157 951 z m 255 391 q 235 392 218 385 q 200 378 185 367 q 181 300 176 240 q 171 181 165 135 l 167 136 q 194 125 225 134 q 256 144 280 168 q 305 191 320 226 q 335 261 331 300 q 330 307 327 322 q 324 336 316 351 q 308 366 294 378 q 279 389 255 391 z"},"m":{"x_min":0,"x_max":990,"ha":990,"o":"m 8 463 q 16 470 27 473 q 38 476 50 476 q 63 477 75 476 q 87 476 97 477 q 126 479 141 459 q 156 439 163 408 q 170 376 172 339 q 174 302 176 270 q 178 239 183 219 q 188 199 201 201 q 206 202 216 224 q 226 246 240 278 q 253 311 272 348 q 290 385 314 416 q 337 448 366 468 q 394 488 428 486 q 467 484 484 443 q 500 402 494 304 q 493 287 492 272 q 492 256 492 242 q 494 225 499 212 q 504 199 515 201 q 521 202 530 224 q 540 246 554 278 q 568 311 586 348 q 605 385 628 416 q 652 448 680 468 q 709 488 743 486 q 781 484 798 443 q 814 402 808 304 q 805 240 808 202 q 812 165 821 145 q 830 125 844 118 q 857 111 874 110 q 882 108 890 108 q 898 109 904 111 q 941 121 964 136 q 987 151 1007 173 l 1033 143 q 1014 121 988 96 q 963 71 934 50 q 905 28 873 14 q 841 0 810 0 q 773 0 747 11 q 721 22 704 38 q 687 55 676 74 q 666 94 661 111 l 661 110 q 654 145 654 183 q 654 221 654 252 q 653 284 650 304 q 646 323 633 322 q 622 321 608 296 q 593 271 576 235 q 558 199 538 158 q 517 116 494 81 q 472 46 447 24 q 422 1 395 4 q 372 6 360 28 q 349 51 344 84 q 339 116 339 154 q 339 193 339 227 q 339 268 336 296 q 334 324 318 322 q 307 321 292 296 q 278 271 261 235 q 244 199 224 158 q 203 116 180 81 q 158 46 133 24 q 108 1 81 4 q 61 6 48 26 q 35 46 27 80 q 19 113 16 158 q 12 202 10 252 q 9 303 9 356 q 9 410 8 463 z"},"n":{"x_min":0,"x_max":658,"ha":658,"o":"m -6 458 q 2 467 16 472 q 30 478 44 481 q 59 484 72 485 q 84 486 90 486 q 118 486 133 464 q 148 443 154 410 q 160 378 161 340 q 162 303 163 271 q 164 239 168 219 q 173 199 186 201 q 192 202 202 224 q 211 246 225 278 q 239 311 258 348 q 276 385 300 416 q 323 448 352 468 q 380 488 414 486 q 452 484 468 443 q 485 402 479 304 q 476 240 480 202 q 483 165 492 145 q 501 125 514 118 q 528 111 545 110 q 553 108 561 108 q 569 109 575 111 q 612 121 635 136 q 658 151 678 173 l 704 143 q 685 121 660 96 q 634 71 605 50 q 576 28 544 14 q 512 0 481 0 q 444 0 418 11 q 392 22 375 38 q 358 55 348 74 q 337 94 332 111 l 332 110 q 325 145 325 183 q 325 221 324 252 q 324 284 320 304 q 317 323 304 322 q 293 321 278 296 q 264 271 246 235 q 229 199 208 158 q 188 116 166 81 q 143 46 118 24 q 93 1 66 4 q 45 6 32 28 q 19 51 12 87 q 6 123 4 169 q 2 215 1 265 q 0 315 -1 365 q -2 415 -6 458 z"},"h":{"x_min":0,"x_max":637,"ha":637,"o":"m 178 912 q 185 910 188 882 q 191 853 191 805 q 191 757 190 692 q 188 626 185 550 q 182 474 180 390 q 177 306 176 220 q 184 236 194 262 q 205 289 220 319 q 234 349 252 380 q 269 410 290 434 q 311 459 336 474 q 362 488 391 486 q 430 484 446 443 q 463 402 457 304 q 453 240 456 202 q 460 165 469 145 q 478 125 492 118 q 506 111 523 110 q 531 108 539 108 q 547 109 553 111 q 590 121 613 136 q 636 151 656 173 l 682 143 q 663 121 638 96 q 612 71 582 50 q 553 28 521 14 q 489 0 458 0 q 421 0 395 11 q 369 22 352 38 q 335 55 325 74 q 315 94 310 111 l 310 110 q 303 145 302 183 q 302 221 302 252 q 301 284 298 304 q 294 323 281 322 q 272 321 260 304 q 249 287 236 260 q 223 233 208 200 q 192 168 175 135 q 175 109 175 82 q 175 56 176 30 q 176 19 164 10 q 152 2 136 -4 q 120 -9 105 -12 q 90 -14 85 -13 q 80 -12 72 -11 q 65 -10 56 -6 q 46 -3 36 5 q 25 13 15 28 q 10 36 8 67 q 5 98 4 146 q 4 194 4 254 q 4 314 4 379 q 5 444 6 510 q 7 576 7 636 q 7 696 6 746 q 5 796 2 829 q 1 840 11 851 q 21 862 38 872 q 55 883 76 892 q 96 900 116 906 q 136 911 152 913 q 169 915 178 912 z"},"z":{"x_min":0,"x_max":375,"ha":375,"o":"m 20 430 q 5 430 -2 436 q -9 443 -8 452 q -8 461 0 471 q 7 481 20 488 q 54 488 86 488 q 117 488 148 488 q 179 488 212 488 q 244 488 280 488 q 295 488 309 482 q 323 476 332 466 q 340 455 340 440 q 339 424 325 406 q 308 379 288 348 q 269 317 252 288 q 235 260 223 239 q 211 218 208 212 q 200 197 190 178 q 180 160 173 143 q 166 126 166 112 q 166 99 178 94 q 182 93 196 94 q 209 94 226 96 q 242 98 260 102 q 277 105 291 110 q 327 124 352 137 q 376 150 396 173 l 422 143 q 403 121 370 96 q 336 71 291 50 q 246 28 191 14 q 136 0 75 0 q 38 0 18 12 q -2 23 -10 40 q -17 56 -16 76 q -14 96 -10 113 q -5 130 0 142 q 6 153 6 153 l 7 153 q 8 155 18 174 q 28 193 44 221 q 59 249 77 282 q 95 315 112 345 q 128 375 140 398 q 153 421 158 430 z m 161 436 q 160 435 161 435 z"},"B":{"x_min":0,"x_max":1229,"ha":1229,"o":"m 196 60 q 200 84 219 103 q 238 122 258 127 q 279 132 294 118 q 308 105 302 65 q 297 23 310 -7 q 322 -37 346 -58 q 371 -78 405 -90 q 439 -103 476 -109 q 514 -115 552 -116 q 590 -118 622 -117 q 692 -115 750 -96 q 808 -77 850 -48 q 891 -19 914 17 q 936 53 933 88 q 930 122 908 141 q 885 160 853 170 q 821 179 784 182 q 747 184 714 184 q 682 185 660 186 q 637 187 634 194 q 630 203 636 230 q 641 258 655 289 q 669 320 692 347 q 714 374 745 380 q 779 387 820 404 q 862 421 904 447 q 946 473 986 508 q 1026 543 1058 588 q 1089 632 1108 685 q 1128 738 1131 801 q 1132 829 1124 863 q 1117 897 1098 932 q 1078 966 1046 998 q 1014 1030 966 1055 q 918 1080 852 1096 q 787 1111 701 1112 q 556 1113 454 1086 q 351 1060 284 1017 q 218 974 186 921 q 153 868 149 816 q 145 765 166 721 q 188 677 230 652 q 243 644 242 627 q 242 610 232 590 q 222 570 206 550 q 190 529 172 514 q 155 499 138 492 q 121 485 111 491 q 51 526 26 592 q 0 659 10 737 q 21 815 68 896 q 116 978 202 1044 q 288 1111 414 1154 q 539 1196 706 1196 q 820 1196 926 1176 q 1033 1156 1119 1116 q 1205 1076 1264 1014 q 1322 953 1340 871 q 1358 794 1344 730 q 1330 667 1296 616 q 1261 564 1210 524 q 1160 483 1104 452 q 1048 422 992 400 q 936 379 890 366 q 843 352 812 346 q 781 339 775 338 q 776 338 800 338 q 824 338 859 335 q 894 332 936 324 q 977 315 1013 298 q 1049 280 1075 252 q 1101 223 1105 181 q 1109 133 1092 87 q 1076 41 1044 0 q 1011 -42 965 -77 q 919 -112 866 -138 q 813 -165 754 -182 q 696 -198 639 -202 q 522 -210 435 -190 q 348 -171 292 -134 q 236 -96 212 -46 q 188 5 196 60 z m 582 1005 q 592 992 598 948 q 605 904 608 840 q 611 776 611 699 q 611 622 608 542 q 606 462 601 386 q 596 310 590 248 q 584 187 576 146 q 568 106 559 97 q 539 78 505 72 q 471 67 440 74 q 408 81 388 98 q 369 115 379 141 q 383 153 390 192 q 396 231 402 290 q 409 348 414 422 q 419 496 420 578 q 421 660 417 746 q 413 833 402 916 q 400 923 412 934 q 424 944 443 956 q 462 967 485 978 q 508 988 528 996 q 549 1003 564 1006 q 579 1009 582 1005 z"},"K":{"x_min":0,"x_max":1458,"ha":1458,"o":"m 617 -81 q 628 -94 624 -106 q 620 -119 606 -130 q 592 -141 572 -148 q 551 -156 530 -158 q 508 -160 488 -156 q 468 -151 456 -137 q 426 -97 412 -28 q 398 40 396 126 q 395 213 404 313 q 413 413 430 517 q 446 621 467 724 q 488 828 510 921 q 517 951 525 972 q 533 993 534 1004 q 534 1016 523 1018 q 512 1021 482 1015 q 414 1001 350 979 q 286 957 234 928 q 183 900 148 866 q 113 833 105 797 q 97 761 120 724 q 142 686 204 650 q 218 642 217 626 q 216 609 206 590 q 197 570 180 550 q 164 529 146 514 q 129 499 112 492 q 95 485 85 491 q 27 525 3 585 q -21 645 -10 716 q 1 788 48 864 q 94 939 176 1004 q 259 1069 378 1116 q 496 1163 652 1177 q 668 1179 690 1176 q 712 1172 726 1155 q 741 1138 742 1102 q 742 1066 715 1002 q 691 928 670 840 q 648 753 631 660 q 614 568 602 474 q 591 381 585 294 q 650 318 728 370 q 807 422 882 492 q 958 562 1020 644 q 1083 725 1116 808 q 1149 890 1142 968 q 1136 1046 1073 1109 q 1057 1119 1062 1133 q 1067 1147 1085 1159 q 1103 1171 1130 1178 q 1156 1186 1183 1183 q 1265 1141 1300 1086 q 1335 1031 1334 968 q 1333 906 1301 838 q 1269 770 1217 702 q 1165 634 1097 568 q 1029 503 956 446 q 884 388 812 341 q 739 294 678 262 q 693 226 724 191 q 755 156 794 124 q 833 93 876 66 q 919 38 958 16 q 997 -6 1028 -21 q 1059 -36 1074 -42 q 1098 -52 1092 -72 q 1085 -93 1060 -112 q 1036 -132 1000 -144 q 964 -156 928 -150 q 890 -144 854 -126 q 817 -107 783 -81 q 749 -55 719 -24 q 689 7 663 39 q 637 71 616 102 q 595 132 580 157 q 580 76 588 14 q 597 -48 617 -81 z"},"R":{"x_min":0,"x_max":1313,"ha":1313,"o":"m 334 290 q 355 285 380 284 q 405 282 434 282 q 439 353 442 432 q 446 512 446 594 q 445 677 440 759 q 435 841 424 918 q 423 924 434 934 q 446 944 464 955 q 481 966 502 977 q 522 988 540 997 q 557 1006 569 1011 q 581 1016 582 1015 q 592 1003 600 966 q 607 930 611 876 q 615 821 617 752 q 619 684 618 608 q 617 533 614 454 q 611 375 607 300 q 672 313 739 335 q 806 357 869 389 q 932 421 987 464 q 1042 507 1082 561 q 1123 615 1146 680 q 1169 746 1168 824 q 1168 844 1157 874 q 1146 905 1122 939 q 1099 973 1062 1006 q 1026 1040 974 1068 q 922 1095 854 1112 q 787 1129 702 1129 q 579 1129 487 1108 q 395 1086 330 1050 q 264 1015 224 968 q 183 922 163 871 q 143 820 141 769 q 139 718 151 673 q 163 628 187 593 q 211 558 243 540 q 256 532 256 516 q 255 501 245 482 q 235 463 219 444 q 203 424 186 410 q 168 395 151 388 q 134 381 124 387 q 79 412 48 460 q 18 509 6 571 q -7 633 0 704 q 6 775 36 845 q 65 915 120 980 q 174 1045 256 1095 q 338 1145 450 1176 q 563 1207 708 1209 q 822 1210 935 1190 q 1048 1171 1141 1127 q 1234 1083 1296 1013 q 1357 943 1368 843 q 1378 746 1356 666 q 1333 587 1286 524 q 1240 462 1174 414 q 1108 366 1032 332 q 957 297 876 275 q 795 253 718 241 q 745 210 782 180 q 819 151 860 124 q 900 97 941 73 q 982 49 1018 30 q 1054 12 1081 -1 q 1108 -14 1121 -19 q 1145 -28 1139 -50 q 1133 -73 1110 -94 q 1087 -116 1052 -130 q 1017 -144 981 -138 q 927 -129 872 -94 q 816 -59 765 -12 q 714 34 671 86 q 628 137 598 179 q 593 125 588 78 q 583 31 577 -5 q 571 -41 565 -64 q 559 -87 552 -93 q 528 -115 496 -121 q 464 -127 437 -119 q 410 -111 395 -91 q 380 -71 391 -41 q 394 -32 399 -8 q 404 15 409 50 q 414 86 420 132 q 425 178 430 232 q 408 236 392 240 q 375 245 364 251 z"},"T":{"x_min":0,"x_max":797,"ha":797,"o":"m 1333 1187 q 1346 1188 1355 1176 q 1364 1165 1366 1147 q 1369 1129 1364 1108 q 1360 1086 1348 1067 q 1335 1048 1314 1034 q 1292 1021 1260 1020 q 1224 1016 1174 1016 q 1123 1017 1062 1018 q 1000 1019 928 1019 q 857 1019 778 1016 q 699 1013 620 1004 q 542 995 470 982 q 398 968 336 950 q 273 931 228 908 q 182 885 156 858 q 130 832 130 802 q 131 772 161 739 q 191 706 258 670 q 272 662 271 646 q 270 630 260 610 q 249 591 232 572 q 214 552 195 537 q 176 522 158 515 q 140 508 129 514 q 81 540 54 582 q 26 623 20 674 q 14 725 30 782 q 45 839 84 896 q 123 952 184 1004 q 246 1056 332 1097 q 417 1138 526 1164 q 636 1191 771 1197 q 841 1200 914 1201 q 988 1202 1060 1201 q 1133 1200 1202 1196 q 1271 1193 1333 1187 z m 598 -57 q 610 -70 605 -83 q 600 -96 586 -106 q 571 -117 549 -124 q 527 -132 504 -134 q 481 -136 460 -132 q 439 -127 426 -113 q 388 -67 370 6 q 351 79 348 169 q 345 259 356 361 q 366 463 386 566 q 406 670 432 770 q 459 871 489 959 q 492 967 509 970 q 526 974 550 972 q 573 970 599 963 q 625 956 646 944 q 668 933 682 916 q 695 899 692 877 q 661 793 636 701 q 611 609 593 517 q 575 425 565 337 q 555 249 555 174 q 555 98 565 38 q 575 -22 598 -57 z"},"P":{"x_min":0,"x_max":1208,"ha":1208,"o":"m 325 290 q 341 287 360 285 q 378 283 398 282 q 404 351 408 429 q 412 507 412 588 q 413 669 408 750 q 404 831 393 907 q 392 913 404 924 q 417 934 436 945 q 456 956 479 967 q 502 978 522 987 q 542 996 555 1001 q 568 1006 569 1006 q 579 995 586 958 q 593 922 598 868 q 602 815 604 747 q 605 679 604 604 q 604 530 601 452 q 598 374 594 300 q 658 313 724 334 q 790 356 852 388 q 913 420 966 462 q 1020 504 1060 558 q 1100 611 1122 676 q 1145 740 1144 817 q 1144 836 1133 866 q 1122 896 1099 930 q 1076 963 1040 996 q 1004 1030 953 1056 q 902 1083 836 1100 q 770 1117 686 1117 q 565 1117 475 1096 q 385 1075 321 1040 q 257 1005 218 959 q 178 913 158 863 q 138 813 136 763 q 134 713 146 668 q 158 624 182 590 q 205 556 236 538 q 249 530 248 514 q 247 499 238 480 q 228 461 212 442 q 197 423 180 408 q 162 394 146 387 q 130 380 120 386 q 76 411 46 458 q 16 506 4 567 q -9 628 -2 698 q 4 768 33 837 q 62 906 116 970 q 169 1034 250 1084 q 330 1133 440 1164 q 550 1194 692 1196 q 804 1197 909 1177 q 1014 1157 1098 1113 q 1182 1069 1236 999 q 1291 929 1301 831 q 1312 723 1284 638 q 1257 554 1203 488 q 1149 423 1074 376 q 1000 330 918 299 q 835 268 750 251 q 664 234 589 229 q 584 166 578 112 q 573 57 567 15 q 561 -27 554 -54 q 547 -81 540 -88 q 517 -110 481 -114 q 445 -118 413 -108 q 381 -99 362 -78 q 343 -56 354 -26 q 361 -9 372 62 q 384 133 394 237 q 367 243 354 251 z"},"|":{"x_min":0,"x_max":258,"ha":258,"o":"m 119 738 q 119 744 118 763 q 118 782 114 806 q 109 829 99 852 q 89 876 71 892 l 136 869 q 158 861 169 834 q 180 806 184 770 q 189 734 189 695 q 189 656 189 625 l 177 -114 q 177 -120 178 -139 q 179 -158 184 -182 q 188 -205 198 -229 q 208 -253 226 -268 q 206 -261 198 -258 q 189 -255 184 -254 q 180 -252 176 -251 q 173 -250 163 -246 q 140 -238 128 -210 q 117 -183 112 -147 q 108 -111 108 -72 q 107 -32 107 -1 z"},"t":{"x_min":0,"x_max":336,"ha":336,"o":"m 31 824 q 28 833 43 852 q 58 870 82 884 q 106 899 134 903 q 162 907 185 888 q 181 881 176 830 q 170 780 165 706 q 193 704 218 700 q 242 697 260 692 q 278 686 288 678 q 297 670 293 660 q 290 652 272 648 q 253 643 231 641 q 205 638 174 637 l 160 635 q 156 571 152 504 q 149 437 148 378 q 146 320 146 276 q 147 231 150 212 q 153 197 156 180 q 160 164 166 150 q 173 135 183 124 q 193 112 208 107 q 227 104 248 110 q 285 120 308 135 q 332 150 353 173 l 379 143 q 360 121 334 96 q 309 71 280 50 q 250 28 218 14 q 186 0 155 0 q 118 0 92 12 q 66 23 48 40 q 31 56 21 76 q 11 96 6 113 q 2 130 1 142 q 0 153 0 153 l 1 153 q -2 168 -4 197 q -5 226 -5 264 q -5 303 -4 348 q -4 394 -2 442 q 0 490 2 538 q 4 587 7 631 q -28 629 -60 622 q -91 616 -115 600 q -120 597 -131 596 q -142 596 -148 601 q -155 606 -153 619 q -151 632 -129 656 q -100 687 -66 697 q -31 707 13 709 q 18 760 22 792 q 26 823 31 824 z"},"M":{"x_min":0,"x_max":1595,"ha":1595,"o":"m 1288 813 q 1298 837 1318 860 q 1338 882 1363 900 q 1388 918 1415 930 q 1442 943 1466 946 q 1490 950 1508 944 q 1526 937 1534 918 q 1538 907 1536 862 q 1533 818 1526 751 q 1520 684 1511 600 q 1502 517 1494 429 q 1486 341 1480 254 q 1474 167 1473 94 q 1472 21 1478 -34 q 1483 -88 1498 -111 q 1504 -121 1484 -139 q 1463 -157 1432 -170 q 1402 -184 1371 -186 q 1340 -189 1325 -167 q 1309 -143 1302 -94 q 1295 -44 1295 20 q 1295 85 1300 159 q 1305 233 1312 306 q 1320 380 1328 448 q 1336 515 1342 566 q 1348 618 1351 648 q 1354 679 1350 678 q 1334 673 1316 638 q 1297 603 1277 549 q 1257 495 1237 428 q 1217 360 1198 290 q 1154 125 1109 -80 q 1068 -105 1027 -112 q 986 -120 952 -115 q 918 -110 894 -94 q 870 -78 863 -57 q 837 28 830 129 q 824 230 830 333 q 837 436 852 534 q 866 631 880 708 q 895 786 906 836 q 918 886 918 894 q 918 911 904 890 q 889 869 866 821 q 842 773 812 703 q 783 633 752 552 q 721 472 692 386 q 664 301 643 221 q 622 141 610 72 q 599 3 604 -43 l 600 -39 q 606 -63 617 -81 q 628 -94 624 -106 q 620 -119 606 -130 q 592 -141 572 -148 q 551 -156 530 -158 q 508 -160 488 -156 q 468 -151 456 -137 q 426 -97 412 -28 q 398 40 396 126 q 395 213 404 313 q 413 413 430 517 q 446 621 467 724 q 488 828 510 921 q 517 951 525 972 q 533 993 534 1004 q 534 1016 523 1018 q 512 1021 482 1015 q 414 1001 350 979 q 286 957 234 928 q 183 900 148 866 q 113 833 105 797 q 97 761 120 724 q 142 686 204 650 q 218 642 217 626 q 216 609 206 590 q 197 570 180 550 q 164 529 146 514 q 129 499 112 492 q 95 485 85 491 q 27 525 3 585 q -21 645 -10 716 q 1 788 48 864 q 94 939 176 1004 q 259 1069 378 1116 q 496 1163 652 1177 q 668 1179 690 1176 q 712 1172 726 1155 q 741 1138 742 1102 q 742 1066 715 1002 q 691 930 670 846 q 650 761 634 671 q 617 581 604 490 q 592 399 586 314 q 607 378 630 448 q 654 517 678 584 q 701 652 724 715 q 747 778 766 829 q 785 880 799 915 q 813 950 820 962 q 836 992 866 1018 q 896 1043 932 1061 q 968 1079 1004 1088 q 1041 1097 1070 1092 q 1099 1088 1116 1068 q 1132 1049 1128 1011 q 1112 872 1094 744 q 1075 615 1059 504 q 1043 392 1031 301 q 1019 210 1016 147 q 1012 84 1019 52 q 1026 19 1047 24 q 1045 26 1054 66 q 1063 107 1080 172 q 1097 236 1120 318 q 1144 401 1171 488 q 1198 575 1228 660 q 1258 744 1288 813 z"},"g":{"x_min":0,"x_max":612,"ha":612,"o":"m 458 159 q 459 159 467 158 q 475 157 484 154 q 493 151 500 144 q 507 138 506 127 l 500 88 q 516 91 536 100 q 555 110 573 122 q 591 135 606 148 q 622 162 632 173 l 658 143 q 643 126 624 107 q 606 88 584 70 q 563 52 539 36 q 515 21 488 11 q 474 -74 466 -170 q 457 -265 468 -382 q 469 -398 462 -410 q 454 -423 441 -432 q 428 -440 411 -444 q 394 -449 377 -449 q 350 -448 334 -436 q 319 -423 310 -408 q 302 -392 299 -377 q 296 -362 295 -357 q 287 -314 290 -280 q 292 -245 298 -204 q 305 -163 312 -108 q 319 -52 321 34 q 320 36 320 41 q 319 44 312 53 q 306 62 292 64 q 281 66 256 55 q 232 44 205 30 q 178 17 154 5 q 130 -7 120 -7 q 113 -7 94 -3 q 76 1 56 12 q 37 24 22 44 q 6 65 5 99 q 3 137 21 180 q 39 224 70 267 q 100 310 139 350 q 178 389 220 420 q 261 450 300 468 q 339 487 370 487 q 409 487 432 474 q 454 461 466 442 q 478 424 482 404 q 485 385 485 373 q 485 361 476 342 q 468 324 452 307 q 437 290 416 278 q 394 266 369 267 q 349 268 334 284 q 318 301 302 320 q 286 339 266 354 q 246 369 218 367 q 213 367 200 362 q 186 358 171 346 q 156 334 144 312 q 133 290 133 255 q 133 212 150 185 q 167 158 192 143 q 216 128 243 124 q 270 119 288 120 q 299 120 315 124 q 331 127 348 131 q 365 135 381 140 q 397 144 407 147 q 419 153 432 156 q 444 160 458 159 z"},"j":{"x_min":0,"x_max":331,"ha":331,"o":"m 147 479 q 153 477 156 451 q 160 425 161 380 q 162 336 162 276 q 161 216 160 146 q 166 132 176 122 q 187 112 201 107 q 220 104 241 110 q 279 120 302 135 q 326 150 346 173 l 372 143 q 353 122 328 98 q 304 73 276 52 q 248 31 218 16 q 187 2 156 0 q 159 -49 162 -100 q 166 -150 168 -202 q 170 -253 170 -304 q 169 -356 163 -407 q 161 -418 148 -426 q 136 -435 120 -440 q 105 -446 90 -448 q 76 -450 72 -449 q 67 -448 54 -448 q 40 -448 27 -445 q 14 -442 6 -434 q -3 -426 2 -409 q 5 -399 7 -366 q 9 -334 10 -286 q 11 -237 11 -176 q 11 -116 10 -51 q 9 14 8 80 q 6 146 3 205 q 0 264 -4 314 q -8 363 -13 395 q -16 411 4 428 q 24 445 52 458 q 79 470 106 476 q 134 483 147 479 z m -23 701 q -24 703 -14 713 q -5 723 10 736 q 24 750 42 766 q 59 781 74 794 q 90 806 101 814 q 112 823 115 823 q 119 823 128 810 q 138 798 150 780 q 163 762 176 740 q 190 719 200 701 q 210 683 214 671 q 219 659 215 660 q 215 658 206 650 q 197 643 183 632 q 169 622 152 611 q 136 600 122 591 q 108 582 98 576 q 88 571 88 572 q 71 582 52 601 q 33 620 17 640 q 1 660 -10 678 q -22 695 -23 701 z"},"i":{"x_min":0,"x_max":350,"ha":350,"o":"m 17 366 q 15 364 26 378 q 37 391 58 408 q 78 426 108 444 q 138 461 175 468 q 174 457 172 435 q 171 413 170 386 q 169 360 168 331 q 167 302 166 278 q 166 253 166 235 q 165 217 166 212 q 168 181 180 150 q 192 118 223 107 q 242 104 263 110 q 301 120 324 135 q 348 150 368 173 l 394 143 q 375 121 350 96 q 324 71 295 50 q 266 28 234 14 q 202 0 171 0 q 134 0 108 12 q 81 23 64 40 q 46 56 36 76 q 26 96 22 113 q 17 130 16 142 q 15 153 15 153 l 16 153 q 15 155 15 172 q 15 189 16 213 q 16 237 16 264 q 16 291 16 314 q 17 336 17 351 q 17 366 17 366 z m -1 701 q -2 703 8 713 q 17 723 32 736 q 46 750 64 766 q 81 781 96 794 q 112 806 123 814 q 134 823 137 823 q 140 823 150 810 q 160 798 172 780 q 185 762 198 740 q 212 719 222 701 q 232 683 236 671 q 241 659 237 660 q 237 658 228 650 q 219 643 205 632 q 191 622 174 611 q 158 600 144 591 q 130 582 120 576 q 110 571 110 572 q 93 582 74 601 q 55 620 39 640 q 23 660 12 678 q 0 695 -1 701 z"},"y":{"x_min":0,"x_max":627,"ha":627,"o":"m 17 366 q 15 364 26 378 q 37 391 58 408 q 78 426 108 444 q 138 461 175 468 q 174 457 172 435 q 171 413 170 386 q 169 360 168 331 q 167 302 166 278 q 166 253 166 235 q 165 217 166 212 q 168 181 180 150 q 192 118 223 107 q 242 104 263 110 q 288 116 306 125 q 304 212 300 284 q 295 355 287 395 q 284 411 304 428 q 323 444 350 457 q 378 470 406 476 q 434 483 447 479 q 453 477 456 451 q 460 425 461 380 q 462 336 462 276 q 461 216 460 146 q 466 132 476 122 q 487 112 501 107 q 520 104 541 110 q 579 120 602 135 q 626 150 646 173 l 672 143 q 653 122 628 98 q 604 73 576 52 q 548 31 518 16 q 487 2 456 0 q 463 -103 462 -208 q 462 -314 450 -407 q 448 -418 436 -426 q 423 -435 408 -440 q 392 -446 378 -448 q 364 -450 359 -449 q 354 -448 342 -448 q 329 -449 316 -446 q 303 -443 294 -435 q 286 -427 289 -409 q 294 -378 298 -327 q 301 -276 304 -214 q 306 -151 307 -80 q 308 -10 307 59 q 275 34 240 17 q 206 0 171 0 q 134 0 108 12 q 81 23 64 40 q 46 56 36 76 q 26 96 22 113 q 17 130 16 142 q 15 153 15 153 l 16 153 q 15 155 15 172 q 15 189 16 213 q 16 237 16 264 q 16 291 16 314 q 17 336 17 351 q 17 366 17 366 z"},"p":{"x_min":0,"x_max":535,"ha":535,"o":"m 118 550 q 129 536 138 496 q 146 455 152 395 q 166 410 184 426 q 202 441 223 454 q 244 466 266 474 q 289 482 312 484 q 331 485 358 476 q 385 468 410 444 q 434 421 450 380 q 466 338 463 273 q 460 210 440 166 q 420 121 392 90 q 403 84 416 87 q 433 89 452 98 q 472 108 491 120 q 510 133 526 148 q 543 162 554 173 l 580 143 q 560 121 536 96 q 511 71 481 50 q 451 29 416 14 q 382 0 344 0 q 326 0 303 3 q 280 6 256 12 q 233 17 211 24 q 189 31 172 40 q 170 40 170 41 q 171 -42 169 -120 q 167 -199 163 -262 q 159 -325 152 -367 q 145 -409 136 -419 q 115 -442 86 -448 q 56 -453 31 -445 q 6 -437 -8 -416 q -21 -396 -11 -366 q -6 -352 -2 -313 q 2 -274 4 -216 q 7 -158 8 -83 q 8 -8 4 78 q 1 164 -6 258 q -14 353 -26 451 q -27 461 -5 478 q 17 495 44 512 q 71 528 94 540 q 117 551 118 550 z m 255 391 q 240 392 226 388 q 212 383 200 376 q 187 369 176 360 q 165 351 157 343 q 161 295 164 241 q 166 187 168 130 q 195 127 226 140 q 256 152 280 176 q 305 200 320 232 q 335 264 331 300 q 330 307 327 322 q 324 336 316 351 q 308 366 294 378 q 279 389 255 391 z"},"X":{"x_min":0,"x_max":1480,"ha":1480,"o":"m 1559 1103 q 1561 1103 1573 1095 q 1585 1087 1600 1076 q 1616 1064 1632 1050 q 1649 1036 1660 1023 q 1671 1010 1674 1000 q 1676 990 1664 986 q 1636 976 1572 934 q 1507 891 1419 826 q 1331 760 1225 676 q 1119 593 1009 502 q 1071 394 1138 304 q 1206 215 1269 143 q 1332 71 1386 17 q 1440 -37 1476 -73 q 1492 -86 1490 -101 q 1487 -116 1472 -130 q 1457 -143 1433 -154 q 1409 -164 1382 -168 q 1356 -173 1331 -170 q 1306 -168 1288 -154 q 1242 -115 1188 -69 q 1134 -23 1076 38 q 1018 98 958 176 q 898 254 840 358 q 769 297 702 236 q 636 176 576 119 q 517 62 466 10 q 416 -41 378 -85 q 341 -129 318 -164 q 295 -199 290 -222 q 287 -233 275 -233 q 263 -233 246 -226 q 229 -219 211 -208 q 193 -196 178 -185 q 167 -177 184 -146 q 201 -115 240 -67 q 279 -19 336 43 q 393 105 463 176 q 533 248 613 326 q 693 403 777 481 q 732 577 692 692 q 652 808 617 949 q 609 979 600 998 q 592 1016 578 1025 q 565 1034 545 1034 q 525 1034 494 1028 q 427 1014 362 990 q 296 967 244 937 q 191 907 154 872 q 118 837 108 800 q 99 763 120 724 q 142 686 204 650 q 218 642 217 626 q 216 609 206 590 q 197 570 180 550 q 164 529 146 514 q 129 499 112 492 q 95 485 85 491 q 27 525 3 585 q -21 645 -10 716 q 1 788 48 864 q 94 939 176 1004 q 259 1069 378 1116 q 496 1163 652 1177 q 668 1179 689 1178 q 710 1178 731 1164 q 752 1150 772 1115 q 792 1080 807 1013 q 830 907 864 812 q 899 718 941 631 q 1050 728 1152 816 q 1254 903 1338 968 q 1421 1032 1480 1069 q 1538 1106 1559 1103 z"},"Y":{"x_min":0,"x_max":1417,"ha":1417,"o":"m 1338 1161 q 1351 1147 1358 1094 q 1364 1040 1366 959 q 1368 878 1366 777 q 1364 676 1358 566 q 1353 457 1345 346 q 1337 235 1327 135 q 1317 35 1306 -48 q 1294 -131 1282 -184 q 1256 -277 1192 -343 q 1129 -409 1035 -450 q 1010 -461 974 -468 q 937 -474 898 -474 q 858 -473 820 -464 q 781 -455 750 -436 q 720 -417 702 -386 q 683 -355 685 -310 q 686 -280 692 -250 q 699 -219 710 -192 q 722 -165 738 -144 q 753 -124 773 -115 q 798 -102 829 -88 q 860 -74 888 -66 q 917 -57 941 -58 q 965 -58 977 -74 q 981 -80 973 -94 q 965 -107 950 -126 q 936 -146 919 -169 q 902 -192 889 -218 q 876 -243 870 -268 q 864 -294 873 -318 q 884 -350 918 -370 q 951 -391 996 -389 q 1028 -387 1050 -372 q 1072 -358 1086 -336 q 1100 -314 1109 -287 q 1118 -260 1123 -232 q 1128 -205 1132 -180 q 1136 -154 1141 -136 q 1144 -86 1150 -6 q 1156 75 1162 174 q 1167 272 1172 383 q 1176 494 1178 605 q 1126 494 1072 410 q 1019 327 974 269 q 928 211 895 176 q 862 142 850 129 q 823 99 792 82 q 760 65 728 61 q 697 57 669 65 q 641 73 621 94 q 601 115 591 148 q 581 182 586 228 q 607 410 616 537 q 624 664 622 754 q 621 845 610 910 q 599 976 580 1035 q 578 1043 566 1044 q 554 1045 528 1039 q 460 1025 394 1001 q 327 977 271 946 q 215 914 176 878 q 136 841 124 802 q 112 764 132 724 q 151 685 213 649 q 226 641 226 624 q 225 608 216 588 q 206 569 190 549 q 173 529 156 514 q 138 499 121 492 q 104 485 94 491 q 36 525 12 585 q -12 645 -1 716 q 10 787 56 862 q 103 938 186 1003 q 268 1068 386 1115 q 505 1162 661 1177 q 678 1179 700 1175 q 722 1171 737 1154 l 738 1154 q 745 1147 746 1142 q 772 1057 783 960 q 794 862 795 766 q 796 669 790 579 q 783 489 776 418 q 769 346 763 300 q 757 255 758 247 q 764 203 795 211 q 826 219 869 264 q 912 309 962 384 q 1011 458 1055 547 q 1099 636 1132 731 q 1164 826 1174 912 q 1169 988 1162 1051 q 1161 1058 1174 1070 q 1186 1081 1206 1094 q 1225 1106 1248 1118 q 1271 1130 1290 1140 q 1310 1150 1324 1156 q 1337 1161 1338 1161 z"},"c":{"x_min":0,"x_max":405,"ha":405,"o":"m 189 0 q 114 -4 65 40 q 16 83 0 155 q -9 195 4 235 q 17 275 42 312 q 68 349 100 382 q 132 414 161 438 q 190 462 211 476 q 232 489 235 490 q 239 491 256 473 q 273 455 292 434 q 311 413 326 395 q 340 377 339 378 q 338 379 327 364 q 316 350 301 332 q 286 315 270 300 q 255 284 245 283 q 232 282 216 292 q 201 301 187 314 q 173 327 162 340 q 150 353 146 360 q 146 361 141 352 q 136 344 130 326 q 125 309 122 284 q 118 258 120 225 q 121 195 134 166 q 146 137 170 116 q 194 96 230 88 q 266 81 315 94 q 352 103 377 126 q 402 150 423 173 l 449 143 q 432 121 411 97 q 390 73 360 52 q 330 32 288 18 q 246 3 189 0 z"},"[":{"x_min":0,"x_max":352,"ha":352,"o":"m 83 633 q 83 663 84 701 q 84 739 88 772 q 93 805 104 828 q 115 851 138 853 l 206 858 q 187 846 177 826 q 167 805 162 784 q 157 762 156 744 q 155 726 155 720 l 142 -106 q 142 -112 144 -131 q 147 -150 154 -172 q 162 -194 176 -214 q 190 -233 214 -240 q 196 -241 172 -242 q 148 -244 128 -232 q 105 -220 94 -190 q 82 -161 77 -124 q 72 -88 72 -50 q 71 -11 71 19 z"},"6":{"x_min":0,"x_max":813,"ha":813,"o":"m 572 568 l 481 485 l 505 361 l 398 424 l 288 361 l 314 482 l 222 568 l 346 581 l 398 695 l 448 582 z m 443 431 l 414 603 l 379 603 l 349 431 l 364 422 l 377 431 l 383 470 l 409 470 l 416 431 l 430 422 z m 407 495 l 387 495 l 396 563 z m 395 61 l 409 61 l 404 73 q 403 75 403 76 q 403 78 401 80 q 401 77 399 73 z m 223 44 l 223 49 l 230 49 l 230 44 z m 551 44 l 551 86 l 556 86 l 556 48 l 577 48 l 577 44 z m 513 44 l 513 86 l 543 86 l 543 80 l 518 80 l 518 67 l 541 67 l 541 62 l 518 62 l 518 48 l 543 48 l 543 44 z m 365 44 l 365 61 l 349 86 l 356 86 l 364 73 q 366 67 368 66 q 369 67 370 69 q 371 71 373 73 l 381 86 l 387 86 l 370 61 l 370 44 z m 239 44 l 239 86 l 255 86 q 257 86 258 85 q 260 84 261 84 q 265 83 266 80 q 268 78 268 74 q 268 71 266 70 q 265 66 262 66 q 265 65 268 62 q 270 58 270 56 q 270 54 270 53 q 269 52 269 51 q 268 47 265 47 q 264 45 263 45 q 262 45 261 44 l 255 44 z m 125 44 l 113 86 l 119 86 l 125 58 q 126 55 126 53 q 126 51 127 49 q 128 54 128 57 l 136 86 l 143 86 l 149 64 q 152 55 152 49 q 153 51 153 53 q 153 55 154 58 l 161 86 l 166 86 l 154 44 l 149 44 l 141 75 q 140 78 140 80 q 139 78 139 75 l 130 44 z m 70 44 l 58 86 l 65 86 l 70 58 q 71 55 71 53 q 71 51 73 49 q 74 54 74 57 l 82 86 l 88 86 l 95 64 q 96 59 96 56 q 97 53 97 49 q 99 51 99 53 q 99 55 100 58 l 106 86 l 112 86 l 100 44 l 95 44 l 87 75 q 86 78 86 80 q 84 78 84 75 l 75 44 z m 244 67 l 253 67 q 257 67 258 69 q 261 69 261 70 q 262 71 262 74 q 262 77 261 78 l 260 78 q 259 78 259 78 q 259 79 258 79 q 257 80 252 80 l 244 80 z m 178 44 l 167 86 l 173 86 l 179 58 q 180 55 180 53 q 180 51 182 49 q 182 53 182 54 q 183 56 183 57 l 191 86 l 197 86 l 204 64 q 205 59 206 56 q 206 53 206 49 q 208 51 208 53 q 208 55 209 58 l 216 86 l 221 86 l 209 44 l 204 44 l 196 75 q 195 78 195 80 q 193 78 193 75 l 184 44 z m 431 66 l 443 66 q 445 66 446 66 q 448 67 450 67 q 452 67 452 70 q 453 71 453 74 q 453 77 451 79 q 450 80 444 80 l 431 80 z m 244 48 l 255 48 q 257 48 258 49 l 261 49 q 262 51 264 52 l 264 56 q 264 58 262 60 q 262 62 260 62 l 253 62 l 244 62 z m 278 44 l 278 86 l 283 86 l 283 44 z m 645 64 q 645 55 648 52 q 652 48 659 48 q 666 48 669 52 q 673 55 673 65 q 673 70 672 73 q 670 78 667 79 q 664 80 659 80 q 653 80 650 77 q 645 73 645 64 z m 639 64 q 639 75 645 80 q 649 86 659 86 q 662 86 664 85 q 667 84 669 83 q 672 82 674 80 q 675 78 677 75 q 678 73 678 65 q 678 56 676 53 q 673 48 669 45 q 665 43 659 43 q 656 43 654 44 q 651 44 648 45 q 646 47 644 49 q 643 51 642 53 q 641 56 640 58 q 639 61 639 64 z m 383 44 l 399 86 l 405 86 l 422 44 l 416 44 l 411 56 l 394 56 l 388 44 z m 294 44 l 294 86 l 299 86 l 299 48 l 318 48 l 318 44 z m 583 44 l 583 49 l 590 49 l 590 44 z m 487 60 l 487 65 l 504 65 l 504 49 q 500 45 496 44 q 494 44 492 44 q 489 43 487 43 q 481 43 477 45 q 474 47 472 48 q 470 50 469 53 q 468 56 467 58 q 466 61 466 64 q 466 68 467 70 q 468 72 469 75 q 471 81 476 83 q 478 84 481 85 q 484 86 487 86 q 492 86 495 84 q 499 83 500 80 q 503 77 504 74 l 499 73 q 499 74 496 77 q 496 79 492 80 l 487 80 l 481 80 q 478 79 476 77 q 476 76 473 73 q 473 71 472 69 q 472 67 472 65 q 472 58 474 56 q 478 50 479 49 q 482 48 487 48 q 491 48 494 49 q 496 51 497 51 q 498 51 499 52 l 499 60 z m 426 44 l 426 86 l 444 86 q 447 86 449 85 q 451 84 453 84 q 456 83 457 80 q 459 78 459 74 q 459 69 456 66 q 455 65 452 64 q 450 64 447 62 q 449 62 450 62 q 450 61 451 61 q 452 59 455 54 l 463 44 l 456 44 l 450 52 q 448 54 448 56 q 447 57 446 58 q 446 60 445 60 q 444 60 443 61 l 442 61 q 441 61 441 62 q 441 62 440 62 l 438 62 l 431 62 l 431 44 z m 325 44 l 325 86 l 331 86 l 331 48 l 351 48 l 351 44 z m 629 58 l 634 57 q 632 49 628 47 q 624 43 617 43 q 611 43 607 45 q 604 47 603 49 q 602 51 600 53 q 598 61 598 65 q 598 69 600 77 q 605 82 607 83 q 610 84 612 85 q 614 86 617 86 q 620 86 623 85 q 626 84 628 83 q 630 81 632 79 q 633 77 634 74 l 628 73 q 628 77 624 79 q 622 80 617 80 q 611 80 609 79 q 607 78 606 76 q 606 75 604 73 q 604 71 604 69 q 603 67 603 65 q 603 59 606 56 q 606 54 607 52 q 608 51 609 49 q 612 48 617 48 q 622 48 625 51 q 628 54 629 58 z m 686 44 l 686 86 l 694 86 l 704 56 q 704 54 705 52 q 706 51 706 49 q 706 50 708 56 l 717 86 l 725 86 l 725 44 l 720 44 l 720 78 l 708 44 l 703 44 l 691 79 l 691 44 z m 395 61 l 409 61 l 404 73 q 403 75 403 76 q 403 78 401 80 q 401 77 399 73 z m 223 44 l 223 49 l 230 49 l 230 44 z m 551 44 l 551 86 l 556 86 l 556 48 l 577 48 l 577 44 z m 513 44 l 513 86 l 543 86 l 543 80 l 518 80 l 518 67 l 541 67 l 541 62 l 518 62 l 518 48 l 543 48 l 543 44 z m 365 44 l 365 61 l 349 86 l 356 86 l 364 73 q 366 67 368 66 q 369 67 370 69 q 371 71 373 73 l 381 86 l 387 86 l 370 61 l 370 44 z m 239 44 l 239 86 l 255 86 q 257 86 258 85 q 260 84 261 84 q 265 83 266 80 q 268 78 268 74 q 268 71 266 70 q 265 66 262 66 q 265 65 268 62 q 270 58 270 56 q 270 54 270 53 q 269 52 269 51 q 268 47 265 47 q 264 45 263 45 q 262 45 261 44 l 255 44 z m 125 44 l 113 86 l 119 86 l 125 58 q 126 55 126 53 q 126 51 127 49 q 128 54 128 57 l 136 86 l 143 86 l 149 64 q 152 55 152 49 q 153 51 153 53 q 153 55 154 58 l 161 86 l 166 86 l 154 44 l 149 44 l 141 75 q 140 78 140 80 q 139 78 139 75 l 130 44 z m 70 44 l 58 86 l 65 86 l 70 58 q 71 55 71 53 q 71 51 73 49 q 74 54 74 57 l 82 86 l 88 86 l 95 64 q 96 59 96 56 q 97 53 97 49 q 99 51 99 53 q 99 55 100 58 l 106 86 l 112 86 l 100 44 l 95 44 l 87 75 q 86 78 86 80 q 84 78 84 75 l 75 44 z m 244 67 l 253 67 q 257 67 258 69 q 261 69 261 70 q 262 71 262 74 q 262 77 261 78 l 260 78 q 259 78 259 78 q 259 79 258 79 q 257 80 252 80 l 244 80 z m 178 44 l 167 86 l 173 86 l 179 58 q 180 55 180 53 q 180 51 182 49 q 182 53 182 54 q 183 56 183 57 l 191 86 l 197 86 l 204 64 q 205 59 206 56 q 206 53 206 49 q 208 51 208 53 q 208 55 209 58 l 216 86 l 221 86 l 209 44 l 204 44 l 196 75 q 195 78 195 80 q 193 78 193 75 l 184 44 z m 431 66 l 443 66 q 445 66 446 66 q 448 67 450 67 q 452 67 452 70 q 453 71 453 74 q 453 77 451 79 q 450 80 444 80 l 431 80 z m 244 48 l 255 48 q 257 48 258 49 l 261 49 q 262 51 264 52 l 264 56 q 264 58 262 60 q 262 62 260 62 l 253 62 l 244 62 z m 278 44 l 278 86 l 283 86 l 283 44 z m 645 64 q 645 55 648 52 q 652 48 659 48 q 666 48 669 52 q 673 55 673 65 q 673 70 672 73 q 670 78 667 79 q 664 80 659 80 q 653 80 650 77 q 645 73 645 64 z m 639 64 q 639 75 645 80 q 649 86 659 86 q 662 86 664 85 q 667 84 669 83 q 672 82 674 80 q 675 78 677 75 q 678 73 678 65 q 678 56 676 53 q 673 48 669 45 q 665 43 659 43 q 656 43 654 44 q 651 44 648 45 q 646 47 644 49 q 643 51 642 53 q 641 56 640 58 q 639 61 639 64 z m 383 44 l 399 86 l 405 86 l 422 44 l 416 44 l 411 56 l 394 56 l 388 44 z m 294 44 l 294 86 l 299 86 l 299 48 l 318 48 l 318 44 z m 583 44 l 583 49 l 590 49 l 590 44 z m 487 60 l 487 65 l 504 65 l 504 49 q 500 45 496 44 q 494 44 492 44 q 489 43 487 43 q 481 43 477 45 q 474 47 472 48 q 470 50 469 53 q 468 56 467 58 q 466 61 466 64 q 466 68 467 70 q 468 72 469 75 q 471 81 476 83 q 478 84 481 85 q 484 86 487 86 q 492 86 495 84 q 499 83 500 80 q 503 77 504 74 l 499 73 q 499 74 496 77 q 496 79 492 80 l 487 80 l 481 80 q 478 79 476 77 q 476 76 473 73 q 473 71 472 69 q 472 67 472 65 q 472 58 474 56 q 478 50 479 49 q 482 48 487 48 q 491 48 494 49 q 496 51 497 51 q 498 51 499 52 l 499 60 z m 426 44 l 426 86 l 444 86 q 447 86 449 85 q 451 84 453 84 q 456 83 457 80 q 459 78 459 74 q 459 69 456 66 q 455 65 452 64 q 450 64 447 62 q 449 62 450 62 q 450 61 451 61 q 452 59 455 54 l 463 44 l 456 44 l 450 52 q 448 54 448 56 q 447 57 446 58 q 446 60 445 60 q 444 60 443 61 l 442 61 q 441 61 441 62 q 441 62 440 62 l 438 62 l 431 62 l 431 44 z m 325 44 l 325 86 l 331 86 l 331 48 l 351 48 l 351 44 z m 629 58 l 634 57 q 632 49 628 47 q 624 43 617 43 q 611 43 607 45 q 604 47 603 49 q 602 51 600 53 q 598 61 598 65 q 598 69 600 77 q 605 82 607 83 q 610 84 612 85 q 614 86 617 86 q 620 86 623 85 q 626 84 628 83 q 630 81 632 79 q 633 77 634 74 l 628 73 q 628 77 624 79 q 622 80 617 80 q 611 80 609 79 q 607 78 606 76 q 606 75 604 73 q 604 71 604 69 q 603 67 603 65 q 603 59 606 56 q 606 54 607 52 q 608 51 609 49 q 612 48 617 48 q 622 48 625 51 q 628 54 629 58 z m 686 44 l 686 86 l 694 86 l 704 56 q 704 54 705 52 q 706 51 706 49 q 706 50 708 56 l 717 86 l 725 86 l 725 44 l 720 44 l 720 78 l 708 44 l 703 44 l 691 79 l 691 44 z m 395 61 l 409 61 l 404 73 q 403 75 403 76 q 403 78 401 80 q 401 77 399 73 z m 223 44 l 223 49 l 230 49 l 230 44 z m 551 44 l 551 86 l 556 86 l 556 48 l 577 48 l 577 44 z m 513 44 l 513 86 l 543 86 l 543 80 l 518 80 l 518 67 l 541 67 l 541 62 l 518 62 l 518 48 l 543 48 l 543 44 z m 365 44 l 365 61 l 349 86 l 356 86 l 364 73 q 366 67 368 66 q 369 67 370 69 q 371 71 373 73 l 381 86 l 387 86 l 370 61 l 370 44 z m 239 44 l 239 86 l 255 86 q 257 86 258 85 q 260 84 261 84 q 265 83 266 80 q 268 78 268 74 q 268 71 266 70 q 265 66 262 66 q 265 65 268 62 q 270 58 270 56 q 270 54 270 53 q 269 52 269 51 q 268 47 265 47 q 264 45 263 45 q 262 45 261 44 l 255 44 z m 125 44 l 113 86 l 119 86 l 125 58 q 126 55 126 53 q 126 51 127 49 q 128 54 128 57 l 136 86 l 143 86 l 149 64 q 152 55 152 49 q 153 51 153 53 q 153 55 154 58 l 161 86 l 166 86 l 154 44 l 149 44 l 141 75 q 140 78 140 80 q 139 78 139 75 l 130 44 z m 70 44 l 58 86 l 65 86 l 70 58 q 71 55 71 53 q 71 51 73 49 q 74 54 74 57 l 82 86 l 88 86 l 95 64 q 96 59 96 56 q 97 53 97 49 q 99 51 99 53 q 99 55 100 58 l 106 86 l 112 86 l 100 44 l 95 44 l 87 75 q 86 78 86 80 q 84 78 84 75 l 75 44 z m 244 67 l 253 67 q 257 67 258 69 q 261 69 261 70 q 262 71 262 74 q 262 77 261 78 l 260 78 q 259 78 259 78 q 259 79 258 79 q 257 80 252 80 l 244 80 z m 178 44 l 167 86 l 173 86 l 179 58 q 180 55 180 53 q 180 51 182 49 q 182 53 182 54 q 183 56 183 57 l 191 86 l 197 86 l 204 64 q 205 59 206 56 q 206 53 206 49 q 208 51 208 53 q 208 55 209 58 l 216 86 l 221 86 l 209 44 l 204 44 l 196 75 q 195 78 195 80 q 193 78 193 75 l 184 44 z m 431 66 l 443 66 q 445 66 446 66 q 448 67 450 67 q 452 67 452 70 q 453 71 453 74 q 453 77 451 79 q 450 80 444 80 l 431 80 z m 244 48 l 255 48 q 257 48 258 49 l 261 49 q 262 51 264 52 l 264 56 q 264 58 262 60 q 262 62 260 62 l 253 62 l 244 62 z m 278 44 l 278 86 l 283 86 l 283 44 z m 645 64 q 645 55 648 52 q 652 48 659 48 q 666 48 669 52 q 673 55 673 65 q 673 70 672 73 q 670 78 667 79 q 664 80 659 80 q 653 80 650 77 q 645 73 645 64 z m 639 64 q 639 75 645 80 q 649 86 659 86 q 662 86 664 85 q 667 84 669 83 q 672 82 674 80 q 675 78 677 75 q 678 73 678 65 q 678 56 676 53 q 673 48 669 45 q 665 43 659 43 q 656 43 654 44 q 651 44 648 45 q 646 47 644 49 q 643 51 642 53 q 641 56 640 58 q 639 61 639 64 z m 383 44 l 399 86 l 405 86 l 422 44 l 416 44 l 411 56 l 394 56 l 388 44 z m 294 44 l 294 86 l 299 86 l 299 48 l 318 48 l 318 44 z m 583 44 l 583 49 l 590 49 l 590 44 z m 487 60 l 487 65 l 504 65 l 504 49 q 500 45 496 44 q 494 44 492 44 q 489 43 487 43 q 481 43 477 45 q 474 47 472 48 q 470 50 469 53 q 468 56 467 58 q 466 61 466 64 q 466 68 467 70 q 468 72 469 75 q 471 81 476 83 q 478 84 481 85 q 484 86 487 86 q 492 86 495 84 q 499 83 500 80 q 503 77 504 74 l 499 73 q 499 74 496 77 q 496 79 492 80 l 487 80 l 481 80 q 478 79 476 77 q 476 76 473 73 q 473 71 472 69 q 472 67 472 65 q 472 58 474 56 q 478 50 479 49 q 482 48 487 48 q 491 48 494 49 q 496 51 497 51 q 498 51 499 52 l 499 60 z m 426 44 l 426 86 l 444 86 q 447 86 449 85 q 451 84 453 84 q 456 83 457 80 q 459 78 459 74 q 459 69 456 66 q 455 65 452 64 q 450 64 447 62 q 449 62 450 62 q 450 61 451 61 q 452 59 455 54 l 463 44 l 456 44 l 450 52 q 448 54 448 56 q 447 57 446 58 q 446 60 445 60 q 444 60 443 61 l 442 61 q 441 61 441 62 q 441 62 440 62 l 438 62 l 431 62 l 431 44 z m 325 44 l 325 86 l 331 86 l 331 48 l 351 48 l 351 44 z m 629 58 l 634 57 q 632 49 628 47 q 624 43 617 43 q 611 43 607 45 q 604 47 603 49 q 602 51 600 53 q 598 61 598 65 q 598 69 600 77 q 605 82 607 83 q 610 84 612 85 q 614 86 617 86 q 620 86 623 85 q 626 84 628 83 q 630 81 632 79 q 633 77 634 74 l 628 73 q 628 77 624 79 q 622 80 617 80 q 611 80 609 79 q 607 78 606 76 q 606 75 604 73 q 604 71 604 69 q 603 67 603 65 q 603 59 606 56 q 606 54 607 52 q 608 51 609 49 q 612 48 617 48 q 622 48 625 51 q 628 54 629 58 z m 686 44 l 686 86 l 694 86 l 704 56 q 704 54 705 52 q 706 51 706 49 q 706 50 708 56 l 717 86 l 725 86 l 725 44 l 720 44 l 720 78 l 708 44 l 703 44 l 691 79 l 691 44 z m 105 121 l 113 118 q 111 109 104 103 q 96 97 87 97 q 78 97 70 101 q 62 107 61 113 q 57 120 57 130 q 57 141 61 148 q 64 155 71 158 q 78 162 87 162 q 98 162 102 157 q 109 155 112 144 l 104 143 q 100 151 97 152 q 94 156 87 156 q 79 156 75 152 q 69 148 67 143 q 66 139 66 130 q 66 121 69 117 q 71 110 75 108 q 80 104 86 104 q 94 104 99 109 q 101 111 102 114 q 104 117 105 121 z m 121 129 q 121 137 123 143 q 125 149 130 153 q 134 158 140 160 q 145 162 151 162 q 160 162 167 158 q 173 155 178 147 q 182 137 182 130 q 182 125 181 121 q 180 117 178 113 q 173 105 166 101 q 158 97 151 97 q 146 97 142 98 q 139 99 135 101 q 128 105 125 113 q 121 120 121 129 z m 130 129 q 130 117 135 110 q 142 104 151 104 q 161 104 166 112 q 173 119 173 130 q 173 134 172 137 q 171 140 170 143 q 168 150 162 152 q 159 156 151 156 q 143 156 136 149 q 130 144 130 129 z m 192 99 l 192 161 l 204 161 l 219 117 q 222 111 222 108 q 224 110 226 118 l 242 161 l 252 161 l 252 99 l 244 99 l 244 151 l 226 99 l 218 99 l 200 152 l 200 99 z m 266 99 l 266 161 l 290 161 l 299 161 q 304 161 307 158 q 308 157 312 152 q 313 150 314 148 q 314 146 314 143 q 314 137 309 130 q 304 125 290 125 l 274 125 l 274 99 z m 274 131 l 291 131 q 300 131 301 135 q 305 136 305 143 q 305 148 304 149 q 300 153 297 153 q 296 155 290 155 l 274 155 z m 325 99 l 325 161 l 333 161 l 333 105 l 364 105 l 364 99 z m 374 99 l 374 161 l 420 161 l 420 155 l 382 155 l 382 135 l 417 135 l 417 127 l 382 127 l 382 105 l 421 105 l 421 99 z m 448 99 l 448 155 l 427 155 l 427 161 l 478 161 l 478 155 l 457 155 l 457 99 z m 487 99 l 487 161 l 533 161 l 533 155 l 495 155 l 495 135 l 530 135 l 530 127 l 495 127 l 495 105 l 534 105 l 534 99 z m 568 118 l 576 119 q 576 114 578 112 q 580 108 585 106 q 587 105 594 105 q 596 105 598 105 q 601 105 603 106 q 606 106 608 110 q 609 112 609 116 q 609 119 608 121 q 607 122 606 122 q 604 123 602 125 q 601 125 591 127 q 586 129 583 130 q 580 130 578 131 q 574 133 572 138 q 570 139 570 141 q 569 143 569 145 q 569 151 573 155 q 574 157 576 158 q 578 159 581 161 q 583 162 593 162 q 600 162 604 160 q 607 158 609 157 q 611 156 612 153 q 616 150 616 144 l 608 143 q 606 151 603 152 q 600 155 593 155 q 583 155 581 152 q 578 149 578 145 q 578 142 581 140 q 581 140 593 135 q 598 134 602 133 q 605 132 607 131 q 610 130 612 128 q 613 127 615 125 q 617 122 617 116 q 617 109 615 106 q 611 102 607 100 q 604 99 601 98 q 598 97 594 97 q 590 97 586 98 q 582 99 580 100 q 575 101 570 108 q 568 112 568 118 z m 629 99 l 629 161 l 674 161 l 674 155 l 638 155 l 638 135 l 673 135 l 673 127 l 638 127 l 638 105 l 676 105 l 676 99 z m 704 99 l 704 155 l 684 155 l 684 161 l 733 161 l 733 155 l 712 155 l 712 99 z m 63 174 l 63 236 l 88 236 l 97 236 q 99 236 105 234 q 106 233 108 231 q 109 229 110 227 q 112 225 112 220 q 112 211 106 205 q 103 200 88 200 l 73 200 l 73 174 z m 73 208 l 88 208 q 97 208 100 210 q 104 214 104 218 q 104 220 103 222 q 102 224 101 226 q 98 229 96 229 q 95 230 88 230 l 73 230 z m 122 174 l 122 236 l 167 236 l 167 230 l 131 230 l 131 210 l 165 210 l 165 203 l 131 203 l 131 182 l 169 182 l 169 174 z m 180 174 l 180 236 l 209 236 q 218 236 222 235 q 227 233 229 230 q 231 222 231 220 q 231 213 227 209 q 223 205 213 203 q 215 201 216 201 q 217 201 218 200 q 223 195 225 191 l 236 174 l 226 174 l 217 187 q 216 190 214 192 q 213 194 212 196 q 210 197 210 198 q 209 200 208 200 q 206 201 204 201 q 203 203 199 203 l 190 203 l 190 174 z m 190 209 l 206 209 q 214 209 216 210 q 219 213 221 214 q 222 216 222 220 q 222 224 219 227 q 216 230 209 230 l 190 230 z m 242 195 l 249 195 q 249 193 250 191 q 251 189 252 187 q 253 186 254 184 q 256 183 258 183 q 264 181 268 181 q 270 181 272 181 q 274 181 275 182 q 281 184 282 186 q 282 187 282 188 q 283 190 283 191 q 283 195 282 196 q 279 198 275 200 q 274 201 272 201 q 269 201 265 203 q 256 204 252 207 q 247 211 245 213 q 244 216 244 221 q 244 223 244 226 q 245 228 247 230 q 248 234 255 236 q 257 238 266 238 q 274 238 278 236 q 284 233 286 229 q 290 223 290 220 l 282 218 q 280 225 277 227 q 273 231 266 231 q 258 231 255 227 q 252 225 252 221 q 252 217 255 216 q 256 214 266 212 q 275 208 281 208 q 283 206 285 204 q 287 203 288 201 q 291 198 291 192 q 291 187 288 183 q 286 180 284 178 q 283 177 281 175 q 273 173 268 173 q 261 173 253 175 q 250 177 248 178 q 246 180 244 183 q 243 186 242 188 q 242 191 242 195 z m 300 205 q 300 219 308 229 q 317 238 330 238 q 334 238 338 237 q 341 236 346 234 q 350 232 352 229 q 354 226 356 222 q 360 215 360 205 q 360 196 356 188 q 352 181 346 177 q 338 173 330 173 q 321 173 314 178 q 305 183 304 190 q 300 195 300 205 z m 308 205 q 308 193 314 187 q 320 181 330 181 q 340 181 346 187 q 351 194 351 205 q 351 209 350 213 q 350 217 348 220 q 345 225 342 227 q 337 231 330 231 q 325 231 322 230 q 319 228 314 225 q 308 219 308 205 z m 370 174 l 370 236 l 379 236 l 412 188 l 412 236 l 420 236 l 420 174 l 412 174 l 378 223 l 378 174 z m 427 174 l 451 236 l 460 236 l 486 174 l 476 174 l 469 194 l 443 194 l 435 174 z m 444 200 l 466 200 l 460 217 q 458 221 457 224 q 456 228 455 230 q 455 227 454 224 q 453 221 452 218 z m 491 174 l 491 236 l 500 236 l 500 182 l 531 182 l 531 174 z m 603 236 l 611 236 l 611 201 q 611 190 609 186 q 607 180 602 177 q 597 173 587 173 q 577 173 573 177 q 570 178 568 180 q 566 183 564 186 q 563 188 563 201 l 563 236 l 570 236 l 570 201 q 570 191 572 188 q 574 184 577 183 q 579 182 581 182 q 583 181 586 181 q 594 181 599 184 q 603 188 603 201 z m 622 195 l 630 195 q 630 193 631 191 q 632 189 633 187 q 634 186 636 184 q 637 183 639 183 q 645 181 648 181 q 655 181 658 182 q 660 183 663 186 q 664 187 664 191 q 664 195 663 196 q 661 197 660 198 q 660 199 658 200 q 656 201 653 201 q 650 201 646 203 q 642 204 638 204 q 635 205 634 207 q 629 209 628 213 q 625 216 625 221 q 625 225 628 230 q 629 234 635 236 q 639 238 647 238 q 650 238 654 238 q 657 238 659 236 q 665 233 668 229 q 669 227 670 224 q 671 222 671 220 l 663 218 q 661 221 660 224 q 660 226 658 227 q 655 231 647 231 q 638 231 637 227 q 633 226 633 221 q 633 218 635 216 q 637 214 647 212 q 658 208 661 208 q 664 206 666 204 q 668 203 669 201 q 672 199 672 192 q 672 186 669 183 q 668 180 666 178 q 664 177 661 175 q 655 173 650 173 q 645 173 642 174 q 638 174 635 175 q 633 177 630 178 q 628 180 626 183 q 624 186 623 188 q 622 191 622 195 z m 684 174 l 684 236 l 729 236 l 729 230 l 693 230 l 693 210 l 726 210 l 726 203 l 693 203 l 693 182 l 730 182 l 730 174 z m 192 312 q 192 322 177 324 q 175 324 172 324 q 169 325 165 325 l 159 318 l 143 301 q 139 296 136 292 q 132 288 127 285 q 133 283 142 282 q 144 282 148 282 q 151 282 154 283 q 169 284 177 291 q 192 303 192 312 z m 203 342 q 203 346 198 346 q 196 346 181 341 l 170 331 q 168 329 166 325 l 183 328 q 187 328 194 333 q 203 339 203 342 z m 216 360 q 216 358 213 358 q 211 358 210 358 q 210 359 208 359 q 198 357 185 344 q 187 346 190 347 q 192 348 194 349 q 201 350 207 349 q 211 349 211 344 l 211 340 q 206 331 183 326 q 201 324 201 314 q 201 302 182 289 q 175 285 168 282 q 160 280 152 279 q 139 276 132 277 q 126 277 119 280 q 113 276 108 276 l 106 276 q 100 278 96 279 l 99 279 q 107 279 112 283 l 112 284 q 105 280 97 280 q 86 280 80 286 q 70 293 70 307 q 70 311 71 314 q 72 318 74 323 q 81 338 98 349 q 103 354 108 356 q 114 357 119 358 q 130 358 134 354 q 129 357 124 357 q 118 357 111 353 q 101 349 100 347 q 90 342 80 330 q 71 316 71 306 q 71 301 72 298 q 73 295 75 292 q 79 286 86 284 q 89 283 91 282 q 93 282 95 282 q 99 282 102 283 q 105 284 109 286 q 98 294 98 308 q 100 321 114 331 l 112 328 q 110 328 108 324 q 102 318 102 311 q 102 298 117 289 q 125 294 125 295 q 127 298 129 300 q 131 302 133 304 q 135 306 136 309 q 136 312 138 315 l 138 314 q 138 309 137 306 l 149 320 q 180 355 200 361 q 191 364 186 364 q 173 363 158 355 q 140 346 140 333 q 140 329 143 326 q 144 325 144 324 q 138 328 138 334 q 138 345 151 356 q 167 368 185 366 q 191 366 203 362 l 207 362 q 212 362 215 360 z m 218 295 q 217 291 210 284 q 203 280 198 280 q 193 280 193 286 q 193 291 199 299 l 198 299 q 197 298 194 298 q 194 298 193 299 q 196 299 203 306 l 204 306 l 207 310 q 210 313 210 315 l 213 315 q 216 315 216 314 q 216 310 210 303 l 203 296 q 197 287 197 284 q 197 281 201 281 q 206 281 213 291 q 214 292 215 292 q 216 293 218 295 z m 223 323 q 219 317 213 317 q 210 317 206 320 l 209 320 q 216 320 218 327 l 218 329 l 223 327 q 224 326 223 323 z m 258 342 q 258 337 227 300 l 226 300 q 217 289 217 283 q 217 280 220 280 q 226 280 233 290 q 234 291 235 292 q 236 292 237 294 q 237 289 229 283 q 224 279 218 279 q 212 280 212 285 q 211 290 232 316 l 244 331 l 250 337 q 253 341 255 347 q 258 345 258 342 z m 275 342 q 275 338 243 300 q 233 288 233 283 q 233 280 237 280 q 241 280 250 290 l 254 294 q 253 289 245 283 q 240 279 234 279 q 228 280 228 285 q 228 291 248 316 l 260 331 l 266 337 q 271 343 272 347 q 275 345 275 342 z m 256 275 q 240 272 231 263 q 224 254 224 252 q 224 248 228 248 q 229 247 235 249 q 237 251 240 254 q 242 256 245 259 z m 285 340 q 283 326 272 315 q 272 314 272 314 q 271 314 271 313 q 268 309 264 306 q 261 302 258 297 q 256 295 256 293 q 255 295 257 299 q 251 290 251 285 q 251 282 254 282 q 255 282 259 284 q 274 296 280 318 l 280 315 l 280 312 q 282 310 282 307 q 282 305 277 297 l 269 284 l 260 272 q 263 274 271 278 l 270 277 q 268 275 264 272 q 261 270 258 265 l 250 255 l 246 250 q 240 244 233 242 q 227 242 224 246 q 218 248 222 255 q 223 256 224 258 q 225 260 227 262 l 228 263 l 221 262 q 238 274 249 275 q 250 275 251 276 q 252 276 253 276 l 254 276 l 256 276 l 262 285 q 258 281 255 280 q 252 280 250 280 q 245 280 245 285 q 245 297 266 316 l 268 317 l 278 327 q 280 331 282 334 q 284 337 285 340 z m 399 355 q 393 357 389 357 q 379 357 370 354 q 362 352 353 347 q 349 345 346 342 q 344 340 341 338 q 353 337 373 325 q 395 347 411 353 z m 420 351 q 416 350 412 348 q 407 347 402 342 q 399 340 387 328 l 380 321 l 390 315 q 392 318 396 322 q 400 327 405 333 z m 429 368 q 429 367 428 366 q 428 359 425 352 l 426 351 l 425 351 q 420 339 412 331 l 396 312 q 398 311 399 311 q 400 311 402 310 q 402 308 401 308 q 399 308 398 308 q 397 309 395 310 q 383 297 382 286 q 380 282 380 280 q 380 276 384 276 q 392 276 401 289 l 405 295 q 415 309 418 320 l 418 323 q 418 322 419 321 l 419 320 q 417 306 409 294 l 396 268 q 396 272 399 281 q 387 272 381 272 q 372 272 374 284 q 374 290 378 298 q 382 305 388 314 l 378 319 l 369 310 q 366 306 360 300 q 355 294 347 284 q 331 268 319 268 l 316 268 q 313 268 307 271 q 307 271 309 271 q 318 269 327 278 q 319 274 308 274 q 297 274 290 279 l 291 279 q 281 286 281 300 q 281 310 285 315 q 291 331 308 342 q 314 347 320 348 q 325 350 331 351 q 341 351 345 347 l 344 347 q 342 349 335 349 q 325 349 310 340 q 299 332 291 323 q 282 309 282 298 q 282 282 297 277 q 303 275 306 275 q 327 276 352 303 l 371 323 q 356 332 337 332 l 336 332 q 334 328 334 323 q 335 323 339 317 q 332 321 332 327 q 332 330 333 332 q 323 330 320 328 q 302 321 304 307 q 304 298 310 291 l 312 289 q 300 301 300 310 q 300 323 312 332 q 322 339 337 339 q 351 355 372 358 q 377 359 388 359 q 393 359 403 357 l 415 354 l 421 354 l 422 353 q 426 360 428 370 l 429 370 z m 442 303 q 442 300 441 298 q 436 293 432 289 q 429 285 426 280 l 427 280 l 428 280 q 427 279 426 279 q 425 279 425 278 q 420 278 420 280 q 420 284 429 293 q 436 302 436 304 q 437 307 433 310 q 421 293 412 289 l 408 287 l 406 288 q 410 288 419 298 q 428 306 431 311 q 431 312 430 312 q 430 312 430 313 q 430 314 437 320 q 437 321 438 321 l 439 320 q 439 319 434 312 q 442 309 442 303 z m 471 306 q 471 312 467 310 q 463 310 461 308 q 458 306 452 298 q 446 290 446 285 q 445 283 448 283 q 454 285 458 290 q 462 298 462 301 q 462 303 461 303 q 465 303 465 298 l 464 296 q 466 298 468 300 q 469 303 471 305 z m 490 315 q 486 315 481 310 q 477 305 473 299 q 469 293 464 285 q 459 275 455 270 q 451 264 450 262 q 437 246 430 246 q 424 245 421 250 q 421 255 421 255 q 421 260 425 264 q 423 263 420 263 q 430 273 442 276 q 443 276 444 276 q 444 277 446 277 l 447 276 q 428 270 424 258 q 423 256 423 253 q 423 252 424 251 q 424 250 425 250 q 433 249 444 265 l 451 275 l 455 281 q 452 280 450 280 q 442 280 442 288 q 442 297 455 309 q 461 315 466 315 q 473 315 473 307 l 474 307 l 479 313 q 484 318 488 318 q 491 318 493 315 z m 508 308 q 508 302 497 296 q 496 295 495 295 l 494 295 q 491 295 488 300 q 490 298 493 298 q 500 302 502 309 l 502 311 l 502 312 l 502 313 q 498 313 489 304 l 489 303 q 486 299 486 296 q 485 294 485 292 q 484 293 484 298 q 482 294 481 291 q 479 287 479 284 q 479 283 480 282 q 480 280 484 280 q 494 284 501 290 q 503 292 506 294 q 504 291 502 288 q 500 286 495 283 q 487 278 481 280 q 481 279 480 280 q 474 280 474 286 q 474 296 485 306 q 491 315 501 315 q 503 315 504 314 q 508 311 508 308 z m 548 342 q 548 338 516 300 q 507 289 507 283 q 507 280 510 280 q 516 280 523 290 q 524 291 525 292 q 526 292 527 294 q 527 289 519 283 q 514 279 507 279 q 502 281 502 285 q 502 293 521 316 l 533 331 l 539 337 q 545 343 545 347 q 548 345 548 342 z m 602 311 q 585 317 584 330 q 579 327 574 324 q 569 322 566 319 q 547 301 547 286 q 547 280 550 279 l 552 279 l 554 279 q 569 279 582 289 q 586 293 592 298 q 597 303 602 311 z m 622 340 l 614 340 q 602 339 585 331 q 587 317 604 314 l 611 323 z m 640 358 q 627 358 616 356 q 606 354 598 349 q 603 354 610 357 q 618 360 627 362 q 607 363 592 350 q 589 348 585 340 q 592 342 598 343 q 605 344 613 343 q 615 343 618 343 q 621 343 626 342 q 628 345 632 349 q 635 353 640 358 z m 703 359 q 701 356 698 354 q 696 351 691 349 q 683 344 676 344 l 674 344 q 673 344 672 345 q 673 346 673 347 q 673 348 675 350 q 666 357 650 357 l 646 352 l 636 340 q 644 339 651 338 q 658 337 664 337 q 678 337 683 340 q 679 336 668 334 q 659 332 650 335 l 634 338 q 630 333 626 330 q 623 326 621 322 l 614 312 l 619 312 q 644 314 648 324 l 649 324 q 646 318 636 313 q 631 311 626 310 q 622 309 618 309 l 613 309 q 606 301 602 295 q 597 289 593 285 q 580 271 569 271 q 564 272 558 272 q 568 272 579 282 q 565 276 557 276 l 551 277 l 559 269 q 551 273 546 278 q 545 278 541 280 q 529 289 528 303 q 528 308 528 312 q 528 316 530 320 q 533 329 538 336 q 543 342 550 349 q 567 364 580 364 q 587 364 592 360 l 591 359 q 588 362 582 362 q 569 360 555 349 q 543 339 537 329 q 529 315 529 303 q 531 285 545 280 q 543 286 544 292 q 546 307 555 318 q 566 332 585 340 q 587 342 587 346 l 596 355 q 609 366 630 366 q 635 366 638 366 q 642 366 647 365 l 648 365 q 655 370 660 372 q 666 375 672 374 q 676 374 678 372 q 667 370 667 370 q 665 369 662 368 q 660 367 657 365 q 661 364 665 364 q 669 363 674 361 q 684 358 690 358 q 699 358 703 359 z m 642 289 q 639 292 639 296 q 639 298 640 300 q 640 301 640 303 q 630 290 631 284 q 631 282 633 282 q 635 282 642 289 z m 655 310 q 655 312 653 312 q 651 312 649 311 q 648 310 646 306 q 641 296 641 293 q 641 290 642 289 l 645 292 l 645 293 l 645 292 q 646 293 646 294 q 646 294 647 295 q 649 301 649 303 q 649 304 648 305 q 650 301 650 300 q 653 303 655 310 z m 659 307 q 659 302 652 292 q 643 283 639 280 l 631 280 q 625 280 625 285 q 625 293 636 306 q 643 315 652 315 q 659 315 659 307 z m 692 309 q 693 307 688 298 q 682 290 680 288 l 668 277 q 661 270 659 262 q 660 274 668 283 q 672 287 674 290 q 676 293 678 297 q 679 298 680 301 l 680 298 q 680 298 679 296 q 681 298 685 306 q 685 307 686 308 q 686 308 686 309 q 686 314 681 312 q 681 312 673 306 q 671 301 668 298 q 664 294 660 289 q 655 283 654 280 q 653 279 649 271 q 649 273 648 276 q 648 278 649 280 q 651 287 658 294 l 664 301 q 669 308 669 312 q 669 313 668 314 q 668 315 668 316 q 674 314 674 310 q 680 315 687 315 q 691 313 692 309 z m 731 323 l 716 323 q 715 321 710 315 q 704 309 696 298 q 694 298 692 293 q 688 288 688 283 q 688 280 690 280 q 695 280 704 290 l 705 291 q 706 292 706 292 q 706 293 707 294 q 707 289 700 283 q 695 279 688 279 q 683 281 682 285 q 682 287 686 295 l 698 309 l 709 323 l 692 325 q 688 326 682 326 l 673 326 q 661 326 649 321 l 648 321 q 658 331 679 331 q 680 331 688 330 q 695 328 709 326 l 712 325 q 715 330 718 334 q 720 337 722 340 q 724 339 724 335 q 724 332 722 330 l 718 324 l 726 323 l 732 323 l 733 323 l 736 323 z m 738 310 q 738 307 731 304 l 730 303 q 733 306 733 311 l 733 315 l 730 315 q 725 315 724 311 q 724 309 727 294 q 728 280 711 280 q 702 280 700 286 q 699 287 699 289 q 699 297 711 299 l 715 298 l 713 298 q 709 298 707 296 q 704 291 704 289 q 704 281 712 281 q 720 281 720 292 q 720 297 719 300 q 718 303 718 307 q 718 317 727 317 q 729 317 730 316 q 731 316 733 316 q 737 314 737 313 q 738 312 738 310 z"},"r":{"x_min":0,"x_max":519,"ha":519,"o":"m 341 0 q 292 0 261 22 q 230 43 225 97 q 222 125 230 163 q 237 201 242 238 q 248 274 247 302 q 246 330 227 339 q 216 340 202 339 q 189 338 176 336 q 162 334 150 331 q 138 328 130 325 q 131 303 118 272 q 106 241 88 211 q 71 181 54 157 q 37 133 29 127 l -1 154 q 20 170 36 201 q 53 232 63 262 q 73 291 76 312 q 78 333 71 329 q 61 338 54 355 q 47 369 42 392 q 37 414 38 448 q 39 470 53 499 q 67 528 86 554 q 106 579 129 597 q 152 615 171 615 q 186 616 198 608 q 209 601 216 588 q 222 574 222 556 q 222 538 215 519 q 212 510 204 494 q 197 478 190 462 q 183 445 179 432 q 175 420 178 419 q 181 418 202 425 q 224 432 251 438 q 278 444 304 444 q 329 445 338 431 q 346 419 347 390 q 348 360 346 324 q 344 287 342 248 q 339 210 341 179 q 343 153 355 133 q 367 113 393 107 q 413 104 433 108 q 453 113 472 122 q 491 132 508 145 q 524 158 538 173 l 564 143 q 545 121 520 96 q 494 71 465 50 q 436 28 404 14 q 372 0 341 0 z"},"2":{"x_min":0,"x_max":813,"ha":813,"o":"m 572 568 l 481 485 l 505 361 l 398 424 l 288 361 l 314 482 l 222 568 l 346 581 l 398 695 l 448 582 z m 443 431 l 414 603 l 379 603 l 349 431 l 364 422 l 377 431 l 383 470 l 409 470 l 416 431 l 430 422 z m 407 495 l 387 495 l 396 563 z m 395 61 l 409 61 l 404 73 q 403 75 403 76 q 403 78 401 80 q 401 77 399 73 z m 223 44 l 223 49 l 230 49 l 230 44 z m 551 44 l 551 86 l 556 86 l 556 48 l 577 48 l 577 44 z m 513 44 l 513 86 l 543 86 l 543 80 l 518 80 l 518 67 l 541 67 l 541 62 l 518 62 l 518 48 l 543 48 l 543 44 z m 365 44 l 365 61 l 349 86 l 356 86 l 364 73 q 366 67 368 66 q 369 67 370 69 q 371 71 373 73 l 381 86 l 387 86 l 370 61 l 370 44 z m 239 44 l 239 86 l 255 86 q 257 86 258 85 q 260 84 261 84 q 265 83 266 80 q 268 78 268 74 q 268 71 266 70 q 265 66 262 66 q 265 65 268 62 q 270 58 270 56 q 270 54 270 53 q 269 52 269 51 q 268 47 265 47 q 264 45 263 45 q 262 45 261 44 l 255 44 z m 125 44 l 113 86 l 119 86 l 125 58 q 126 55 126 53 q 126 51 127 49 q 128 54 128 57 l 136 86 l 143 86 l 149 64 q 152 55 152 49 q 153 51 153 53 q 153 55 154 58 l 161 86 l 166 86 l 154 44 l 149 44 l 141 75 q 140 78 140 80 q 139 78 139 75 l 130 44 z m 70 44 l 58 86 l 65 86 l 70 58 q 71 55 71 53 q 71 51 73 49 q 74 54 74 57 l 82 86 l 88 86 l 95 64 q 96 59 96 56 q 97 53 97 49 q 99 51 99 53 q 99 55 100 58 l 106 86 l 112 86 l 100 44 l 95 44 l 87 75 q 86 78 86 80 q 84 78 84 75 l 75 44 z m 244 67 l 253 67 q 257 67 258 69 q 261 69 261 70 q 262 71 262 74 q 262 77 261 78 l 260 78 q 259 78 259 78 q 259 79 258 79 q 257 80 252 80 l 244 80 z m 178 44 l 167 86 l 173 86 l 179 58 q 180 55 180 53 q 180 51 182 49 q 182 53 182 54 q 183 56 183 57 l 191 86 l 197 86 l 204 64 q 205 59 206 56 q 206 53 206 49 q 208 51 208 53 q 208 55 209 58 l 216 86 l 221 86 l 209 44 l 204 44 l 196 75 q 195 78 195 80 q 193 78 193 75 l 184 44 z m 431 66 l 443 66 q 445 66 446 66 q 448 67 450 67 q 452 67 452 70 q 453 71 453 74 q 453 77 451 79 q 450 80 444 80 l 431 80 z m 244 48 l 255 48 q 257 48 258 49 l 261 49 q 262 51 264 52 l 264 56 q 264 58 262 60 q 262 62 260 62 l 253 62 l 244 62 z m 278 44 l 278 86 l 283 86 l 283 44 z m 645 64 q 645 55 648 52 q 652 48 659 48 q 666 48 669 52 q 673 55 673 65 q 673 70 672 73 q 670 78 667 79 q 664 80 659 80 q 653 80 650 77 q 645 73 645 64 z m 639 64 q 639 75 645 80 q 649 86 659 86 q 662 86 664 85 q 667 84 669 83 q 672 82 674 80 q 675 78 677 75 q 678 73 678 65 q 678 56 676 53 q 673 48 669 45 q 665 43 659 43 q 656 43 654 44 q 651 44 648 45 q 646 47 644 49 q 643 51 642 53 q 641 56 640 58 q 639 61 639 64 z m 383 44 l 399 86 l 405 86 l 422 44 l 416 44 l 411 56 l 394 56 l 388 44 z m 294 44 l 294 86 l 299 86 l 299 48 l 318 48 l 318 44 z m 583 44 l 583 49 l 590 49 l 590 44 z m 487 60 l 487 65 l 504 65 l 504 49 q 500 45 496 44 q 494 44 492 44 q 489 43 487 43 q 481 43 477 45 q 474 47 472 48 q 470 50 469 53 q 468 56 467 58 q 466 61 466 64 q 466 68 467 70 q 468 72 469 75 q 471 81 476 83 q 478 84 481 85 q 484 86 487 86 q 492 86 495 84 q 499 83 500 80 q 503 77 504 74 l 499 73 q 499 74 496 77 q 496 79 492 80 l 487 80 l 481 80 q 478 79 476 77 q 476 76 473 73 q 473 71 472 69 q 472 67 472 65 q 472 58 474 56 q 478 50 479 49 q 482 48 487 48 q 491 48 494 49 q 496 51 497 51 q 498 51 499 52 l 499 60 z m 426 44 l 426 86 l 444 86 q 447 86 449 85 q 451 84 453 84 q 456 83 457 80 q 459 78 459 74 q 459 69 456 66 q 455 65 452 64 q 450 64 447 62 q 449 62 450 62 q 450 61 451 61 q 452 59 455 54 l 463 44 l 456 44 l 450 52 q 448 54 448 56 q 447 57 446 58 q 446 60 445 60 q 444 60 443 61 l 442 61 q 441 61 441 62 q 441 62 440 62 l 438 62 l 431 62 l 431 44 z m 325 44 l 325 86 l 331 86 l 331 48 l 351 48 l 351 44 z m 629 58 l 634 57 q 632 49 628 47 q 624 43 617 43 q 611 43 607 45 q 604 47 603 49 q 602 51 600 53 q 598 61 598 65 q 598 69 600 77 q 605 82 607 83 q 610 84 612 85 q 614 86 617 86 q 620 86 623 85 q 626 84 628 83 q 630 81 632 79 q 633 77 634 74 l 628 73 q 628 77 624 79 q 622 80 617 80 q 611 80 609 79 q 607 78 606 76 q 606 75 604 73 q 604 71 604 69 q 603 67 603 65 q 603 59 606 56 q 606 54 607 52 q 608 51 609 49 q 612 48 617 48 q 622 48 625 51 q 628 54 629 58 z m 686 44 l 686 86 l 694 86 l 704 56 q 704 54 705 52 q 706 51 706 49 q 706 50 708 56 l 717 86 l 725 86 l 725 44 l 720 44 l 720 78 l 708 44 l 703 44 l 691 79 l 691 44 z m 395 61 l 409 61 l 404 73 q 403 75 403 76 q 403 78 401 80 q 401 77 399 73 z m 223 44 l 223 49 l 230 49 l 230 44 z m 551 44 l 551 86 l 556 86 l 556 48 l 577 48 l 577 44 z m 513 44 l 513 86 l 543 86 l 543 80 l 518 80 l 518 67 l 541 67 l 541 62 l 518 62 l 518 48 l 543 48 l 543 44 z m 365 44 l 365 61 l 349 86 l 356 86 l 364 73 q 366 67 368 66 q 369 67 370 69 q 371 71 373 73 l 381 86 l 387 86 l 370 61 l 370 44 z m 239 44 l 239 86 l 255 86 q 257 86 258 85 q 260 84 261 84 q 265 83 266 80 q 268 78 268 74 q 268 71 266 70 q 265 66 262 66 q 265 65 268 62 q 270 58 270 56 q 270 54 270 53 q 269 52 269 51 q 268 47 265 47 q 264 45 263 45 q 262 45 261 44 l 255 44 z m 125 44 l 113 86 l 119 86 l 125 58 q 126 55 126 53 q 126 51 127 49 q 128 54 128 57 l 136 86 l 143 86 l 149 64 q 152 55 152 49 q 153 51 153 53 q 153 55 154 58 l 161 86 l 166 86 l 154 44 l 149 44 l 141 75 q 140 78 140 80 q 139 78 139 75 l 130 44 z m 70 44 l 58 86 l 65 86 l 70 58 q 71 55 71 53 q 71 51 73 49 q 74 54 74 57 l 82 86 l 88 86 l 95 64 q 96 59 96 56 q 97 53 97 49 q 99 51 99 53 q 99 55 100 58 l 106 86 l 112 86 l 100 44 l 95 44 l 87 75 q 86 78 86 80 q 84 78 84 75 l 75 44 z m 244 67 l 253 67 q 257 67 258 69 q 261 69 261 70 q 262 71 262 74 q 262 77 261 78 l 260 78 q 259 78 259 78 q 259 79 258 79 q 257 80 252 80 l 244 80 z m 178 44 l 167 86 l 173 86 l 179 58 q 180 55 180 53 q 180 51 182 49 q 182 53 182 54 q 183 56 183 57 l 191 86 l 197 86 l 204 64 q 205 59 206 56 q 206 53 206 49 q 208 51 208 53 q 208 55 209 58 l 216 86 l 221 86 l 209 44 l 204 44 l 196 75 q 195 78 195 80 q 193 78 193 75 l 184 44 z m 431 66 l 443 66 q 445 66 446 66 q 448 67 450 67 q 452 67 452 70 q 453 71 453 74 q 453 77 451 79 q 450 80 444 80 l 431 80 z m 244 48 l 255 48 q 257 48 258 49 l 261 49 q 262 51 264 52 l 264 56 q 264 58 262 60 q 262 62 260 62 l 253 62 l 244 62 z m 278 44 l 278 86 l 283 86 l 283 44 z m 645 64 q 645 55 648 52 q 652 48 659 48 q 666 48 669 52 q 673 55 673 65 q 673 70 672 73 q 670 78 667 79 q 664 80 659 80 q 653 80 650 77 q 645 73 645 64 z m 639 64 q 639 75 645 80 q 649 86 659 86 q 662 86 664 85 q 667 84 669 83 q 672 82 674 80 q 675 78 677 75 q 678 73 678 65 q 678 56 676 53 q 673 48 669 45 q 665 43 659 43 q 656 43 654 44 q 651 44 648 45 q 646 47 644 49 q 643 51 642 53 q 641 56 640 58 q 639 61 639 64 z m 383 44 l 399 86 l 405 86 l 422 44 l 416 44 l 411 56 l 394 56 l 388 44 z m 294 44 l 294 86 l 299 86 l 299 48 l 318 48 l 318 44 z m 583 44 l 583 49 l 590 49 l 590 44 z m 487 60 l 487 65 l 504 65 l 504 49 q 500 45 496 44 q 494 44 492 44 q 489 43 487 43 q 481 43 477 45 q 474 47 472 48 q 470 50 469 53 q 468 56 467 58 q 466 61 466 64 q 466 68 467 70 q 468 72 469 75 q 471 81 476 83 q 478 84 481 85 q 484 86 487 86 q 492 86 495 84 q 499 83 500 80 q 503 77 504 74 l 499 73 q 499 74 496 77 q 496 79 492 80 l 487 80 l 481 80 q 478 79 476 77 q 476 76 473 73 q 473 71 472 69 q 472 67 472 65 q 472 58 474 56 q 478 50 479 49 q 482 48 487 48 q 491 48 494 49 q 496 51 497 51 q 498 51 499 52 l 499 60 z m 426 44 l 426 86 l 444 86 q 447 86 449 85 q 451 84 453 84 q 456 83 457 80 q 459 78 459 74 q 459 69 456 66 q 455 65 452 64 q 450 64 447 62 q 449 62 450 62 q 450 61 451 61 q 452 59 455 54 l 463 44 l 456 44 l 450 52 q 448 54 448 56 q 447 57 446 58 q 446 60 445 60 q 444 60 443 61 l 442 61 q 441 61 441 62 q 441 62 440 62 l 438 62 l 431 62 l 431 44 z m 325 44 l 325 86 l 331 86 l 331 48 l 351 48 l 351 44 z m 629 58 l 634 57 q 632 49 628 47 q 624 43 617 43 q 611 43 607 45 q 604 47 603 49 q 602 51 600 53 q 598 61 598 65 q 598 69 600 77 q 605 82 607 83 q 610 84 612 85 q 614 86 617 86 q 620 86 623 85 q 626 84 628 83 q 630 81 632 79 q 633 77 634 74 l 628 73 q 628 77 624 79 q 622 80 617 80 q 611 80 609 79 q 607 78 606 76 q 606 75 604 73 q 604 71 604 69 q 603 67 603 65 q 603 59 606 56 q 606 54 607 52 q 608 51 609 49 q 612 48 617 48 q 622 48 625 51 q 628 54 629 58 z m 686 44 l 686 86 l 694 86 l 704 56 q 704 54 705 52 q 706 51 706 49 q 706 50 708 56 l 717 86 l 725 86 l 725 44 l 720 44 l 720 78 l 708 44 l 703 44 l 691 79 l 691 44 z m 395 61 l 409 61 l 404 73 q 403 75 403 76 q 403 78 401 80 q 401 77 399 73 z m 223 44 l 223 49 l 230 49 l 230 44 z m 551 44 l 551 86 l 556 86 l 556 48 l 577 48 l 577 44 z m 513 44 l 513 86 l 543 86 l 543 80 l 518 80 l 518 67 l 541 67 l 541 62 l 518 62 l 518 48 l 543 48 l 543 44 z m 365 44 l 365 61 l 349 86 l 356 86 l 364 73 q 366 67 368 66 q 369 67 370 69 q 371 71 373 73 l 381 86 l 387 86 l 370 61 l 370 44 z m 239 44 l 239 86 l 255 86 q 257 86 258 85 q 260 84 261 84 q 265 83 266 80 q 268 78 268 74 q 268 71 266 70 q 265 66 262 66 q 265 65 268 62 q 270 58 270 56 q 270 54 270 53 q 269 52 269 51 q 268 47 265 47 q 264 45 263 45 q 262 45 261 44 l 255 44 z m 125 44 l 113 86 l 119 86 l 125 58 q 126 55 126 53 q 126 51 127 49 q 128 54 128 57 l 136 86 l 143 86 l 149 64 q 152 55 152 49 q 153 51 153 53 q 153 55 154 58 l 161 86 l 166 86 l 154 44 l 149 44 l 141 75 q 140 78 140 80 q 139 78 139 75 l 130 44 z m 70 44 l 58 86 l 65 86 l 70 58 q 71 55 71 53 q 71 51 73 49 q 74 54 74 57 l 82 86 l 88 86 l 95 64 q 96 59 96 56 q 97 53 97 49 q 99 51 99 53 q 99 55 100 58 l 106 86 l 112 86 l 100 44 l 95 44 l 87 75 q 86 78 86 80 q 84 78 84 75 l 75 44 z m 244 67 l 253 67 q 257 67 258 69 q 261 69 261 70 q 262 71 262 74 q 262 77 261 78 l 260 78 q 259 78 259 78 q 259 79 258 79 q 257 80 252 80 l 244 80 z m 178 44 l 167 86 l 173 86 l 179 58 q 180 55 180 53 q 180 51 182 49 q 182 53 182 54 q 183 56 183 57 l 191 86 l 197 86 l 204 64 q 205 59 206 56 q 206 53 206 49 q 208 51 208 53 q 208 55 209 58 l 216 86 l 221 86 l 209 44 l 204 44 l 196 75 q 195 78 195 80 q 193 78 193 75 l 184 44 z m 431 66 l 443 66 q 445 66 446 66 q 448 67 450 67 q 452 67 452 70 q 453 71 453 74 q 453 77 451 79 q 450 80 444 80 l 431 80 z m 244 48 l 255 48 q 257 48 258 49 l 261 49 q 262 51 264 52 l 264 56 q 264 58 262 60 q 262 62 260 62 l 253 62 l 244 62 z m 278 44 l 278 86 l 283 86 l 283 44 z m 645 64 q 645 55 648 52 q 652 48 659 48 q 666 48 669 52 q 673 55 673 65 q 673 70 672 73 q 670 78 667 79 q 664 80 659 80 q 653 80 650 77 q 645 73 645 64 z m 639 64 q 639 75 645 80 q 649 86 659 86 q 662 86 664 85 q 667 84 669 83 q 672 82 674 80 q 675 78 677 75 q 678 73 678 65 q 678 56 676 53 q 673 48 669 45 q 665 43 659 43 q 656 43 654 44 q 651 44 648 45 q 646 47 644 49 q 643 51 642 53 q 641 56 640 58 q 639 61 639 64 z m 383 44 l 399 86 l 405 86 l 422 44 l 416 44 l 411 56 l 394 56 l 388 44 z m 294 44 l 294 86 l 299 86 l 299 48 l 318 48 l 318 44 z m 583 44 l 583 49 l 590 49 l 590 44 z m 487 60 l 487 65 l 504 65 l 504 49 q 500 45 496 44 q 494 44 492 44 q 489 43 487 43 q 481 43 477 45 q 474 47 472 48 q 470 50 469 53 q 468 56 467 58 q 466 61 466 64 q 466 68 467 70 q 468 72 469 75 q 471 81 476 83 q 478 84 481 85 q 484 86 487 86 q 492 86 495 84 q 499 83 500 80 q 503 77 504 74 l 499 73 q 499 74 496 77 q 496 79 492 80 l 487 80 l 481 80 q 478 79 476 77 q 476 76 473 73 q 473 71 472 69 q 472 67 472 65 q 472 58 474 56 q 478 50 479 49 q 482 48 487 48 q 491 48 494 49 q 496 51 497 51 q 498 51 499 52 l 499 60 z m 426 44 l 426 86 l 444 86 q 447 86 449 85 q 451 84 453 84 q 456 83 457 80 q 459 78 459 74 q 459 69 456 66 q 455 65 452 64 q 450 64 447 62 q 449 62 450 62 q 450 61 451 61 q 452 59 455 54 l 463 44 l 456 44 l 450 52 q 448 54 448 56 q 447 57 446 58 q 446 60 445 60 q 444 60 443 61 l 442 61 q 441 61 441 62 q 441 62 440 62 l 438 62 l 431 62 l 431 44 z m 325 44 l 325 86 l 331 86 l 331 48 l 351 48 l 351 44 z m 629 58 l 634 57 q 632 49 628 47 q 624 43 617 43 q 611 43 607 45 q 604 47 603 49 q 602 51 600 53 q 598 61 598 65 q 598 69 600 77 q 605 82 607 83 q 610 84 612 85 q 614 86 617 86 q 620 86 623 85 q 626 84 628 83 q 630 81 632 79 q 633 77 634 74 l 628 73 q 628 77 624 79 q 622 80 617 80 q 611 80 609 79 q 607 78 606 76 q 606 75 604 73 q 604 71 604 69 q 603 67 603 65 q 603 59 606 56 q 606 54 607 52 q 608 51 609 49 q 612 48 617 48 q 622 48 625 51 q 628 54 629 58 z m 686 44 l 686 86 l 694 86 l 704 56 q 704 54 705 52 q 706 51 706 49 q 706 50 708 56 l 717 86 l 725 86 l 725 44 l 720 44 l 720 78 l 708 44 l 703 44 l 691 79 l 691 44 z m 105 121 l 113 118 q 111 109 104 103 q 96 97 87 97 q 78 97 70 101 q 62 107 61 113 q 57 120 57 130 q 57 141 61 148 q 64 155 71 158 q 78 162 87 162 q 98 162 102 157 q 109 155 112 144 l 104 143 q 100 151 97 152 q 94 156 87 156 q 79 156 75 152 q 69 148 67 143 q 66 139 66 130 q 66 121 69 117 q 71 110 75 108 q 80 104 86 104 q 94 104 99 109 q 101 111 102 114 q 104 117 105 121 z m 121 129 q 121 137 123 143 q 125 149 130 153 q 134 158 140 160 q 145 162 151 162 q 160 162 167 158 q 173 155 178 147 q 182 137 182 130 q 182 125 181 121 q 180 117 178 113 q 173 105 166 101 q 158 97 151 97 q 146 97 142 98 q 139 99 135 101 q 128 105 125 113 q 121 120 121 129 z m 130 129 q 130 117 135 110 q 142 104 151 104 q 161 104 166 112 q 173 119 173 130 q 173 134 172 137 q 171 140 170 143 q 168 150 162 152 q 159 156 151 156 q 143 156 136 149 q 130 144 130 129 z m 192 99 l 192 161 l 204 161 l 219 117 q 222 111 222 108 q 224 110 226 118 l 242 161 l 252 161 l 252 99 l 244 99 l 244 151 l 226 99 l 218 99 l 200 152 l 200 99 z m 266 99 l 266 161 l 290 161 l 299 161 q 304 161 307 158 q 308 157 312 152 q 313 150 314 148 q 314 146 314 143 q 314 137 309 130 q 304 125 290 125 l 274 125 l 274 99 z m 274 131 l 291 131 q 300 131 301 135 q 305 136 305 143 q 305 148 304 149 q 300 153 297 153 q 296 155 290 155 l 274 155 z m 325 99 l 325 161 l 333 161 l 333 105 l 364 105 l 364 99 z m 374 99 l 374 161 l 420 161 l 420 155 l 382 155 l 382 135 l 417 135 l 417 127 l 382 127 l 382 105 l 421 105 l 421 99 z m 448 99 l 448 155 l 427 155 l 427 161 l 478 161 l 478 155 l 457 155 l 457 99 z m 487 99 l 487 161 l 533 161 l 533 155 l 495 155 l 495 135 l 530 135 l 530 127 l 495 127 l 495 105 l 534 105 l 534 99 z m 568 118 l 576 119 q 576 114 578 112 q 580 108 585 106 q 587 105 594 105 q 596 105 598 105 q 601 105 603 106 q 606 106 608 110 q 609 112 609 116 q 609 119 608 121 q 607 122 606 122 q 604 123 602 125 q 601 125 591 127 q 586 129 583 130 q 580 130 578 131 q 574 133 572 138 q 570 139 570 141 q 569 143 569 145 q 569 151 573 155 q 574 157 576 158 q 578 159 581 161 q 583 162 593 162 q 600 162 604 160 q 607 158 609 157 q 611 156 612 153 q 616 150 616 144 l 608 143 q 606 151 603 152 q 600 155 593 155 q 583 155 581 152 q 578 149 578 145 q 578 142 581 140 q 581 140 593 135 q 598 134 602 133 q 605 132 607 131 q 610 130 612 128 q 613 127 615 125 q 617 122 617 116 q 617 109 615 106 q 611 102 607 100 q 604 99 601 98 q 598 97 594 97 q 590 97 586 98 q 582 99 580 100 q 575 101 570 108 q 568 112 568 118 z m 629 99 l 629 161 l 674 161 l 674 155 l 638 155 l 638 135 l 673 135 l 673 127 l 638 127 l 638 105 l 676 105 l 676 99 z m 704 99 l 704 155 l 684 155 l 684 161 l 733 161 l 733 155 l 712 155 l 712 99 z m 63 174 l 63 236 l 88 236 l 97 236 q 99 236 105 234 q 106 233 108 231 q 109 229 110 227 q 112 225 112 220 q 112 211 106 205 q 103 200 88 200 l 73 200 l 73 174 z m 73 208 l 88 208 q 97 208 100 210 q 104 214 104 218 q 104 220 103 222 q 102 224 101 226 q 98 229 96 229 q 95 230 88 230 l 73 230 z m 122 174 l 122 236 l 167 236 l 167 230 l 131 230 l 131 210 l 165 210 l 165 203 l 131 203 l 131 182 l 169 182 l 169 174 z m 180 174 l 180 236 l 209 236 q 218 236 222 235 q 227 233 229 230 q 231 222 231 220 q 231 213 227 209 q 223 205 213 203 q 215 201 216 201 q 217 201 218 200 q 223 195 225 191 l 236 174 l 226 174 l 217 187 q 216 190 214 192 q 213 194 212 196 q 210 197 210 198 q 209 200 208 200 q 206 201 204 201 q 203 203 199 203 l 190 203 l 190 174 z m 190 209 l 206 209 q 214 209 216 210 q 219 213 221 214 q 222 216 222 220 q 222 224 219 227 q 216 230 209 230 l 190 230 z m 242 195 l 249 195 q 249 193 250 191 q 251 189 252 187 q 253 186 254 184 q 256 183 258 183 q 264 181 268 181 q 270 181 272 181 q 274 181 275 182 q 281 184 282 186 q 282 187 282 188 q 283 190 283 191 q 283 195 282 196 q 279 198 275 200 q 274 201 272 201 q 269 201 265 203 q 256 204 252 207 q 247 211 245 213 q 244 216 244 221 q 244 223 244 226 q 245 228 247 230 q 248 234 255 236 q 257 238 266 238 q 274 238 278 236 q 284 233 286 229 q 290 223 290 220 l 282 218 q 280 225 277 227 q 273 231 266 231 q 258 231 255 227 q 252 225 252 221 q 252 217 255 216 q 256 214 266 212 q 275 208 281 208 q 283 206 285 204 q 287 203 288 201 q 291 198 291 192 q 291 187 288 183 q 286 180 284 178 q 283 177 281 175 q 273 173 268 173 q 261 173 253 175 q 250 177 248 178 q 246 180 244 183 q 243 186 242 188 q 242 191 242 195 z m 300 205 q 300 219 308 229 q 317 238 330 238 q 334 238 338 237 q 341 236 346 234 q 350 232 352 229 q 354 226 356 222 q 360 215 360 205 q 360 196 356 188 q 352 181 346 177 q 338 173 330 173 q 321 173 314 178 q 305 183 304 190 q 300 195 300 205 z m 308 205 q 308 193 314 187 q 320 181 330 181 q 340 181 346 187 q 351 194 351 205 q 351 209 350 213 q 350 217 348 220 q 345 225 342 227 q 337 231 330 231 q 325 231 322 230 q 319 228 314 225 q 308 219 308 205 z m 370 174 l 370 236 l 379 236 l 412 188 l 412 236 l 420 236 l 420 174 l 412 174 l 378 223 l 378 174 z m 427 174 l 451 236 l 460 236 l 486 174 l 476 174 l 469 194 l 443 194 l 435 174 z m 444 200 l 466 200 l 460 217 q 458 221 457 224 q 456 228 455 230 q 455 227 454 224 q 453 221 452 218 z m 491 174 l 491 236 l 500 236 l 500 182 l 531 182 l 531 174 z m 603 236 l 611 236 l 611 201 q 611 190 609 186 q 607 180 602 177 q 597 173 587 173 q 577 173 573 177 q 570 178 568 180 q 566 183 564 186 q 563 188 563 201 l 563 236 l 570 236 l 570 201 q 570 191 572 188 q 574 184 577 183 q 579 182 581 182 q 583 181 586 181 q 594 181 599 184 q 603 188 603 201 z m 622 195 l 630 195 q 630 193 631 191 q 632 189 633 187 q 634 186 636 184 q 637 183 639 183 q 645 181 648 181 q 655 181 658 182 q 660 183 663 186 q 664 187 664 191 q 664 195 663 196 q 661 197 660 198 q 660 199 658 200 q 656 201 653 201 q 650 201 646 203 q 642 204 638 204 q 635 205 634 207 q 629 209 628 213 q 625 216 625 221 q 625 225 628 230 q 629 234 635 236 q 639 238 647 238 q 650 238 654 238 q 657 238 659 236 q 665 233 668 229 q 669 227 670 224 q 671 222 671 220 l 663 218 q 661 221 660 224 q 660 226 658 227 q 655 231 647 231 q 638 231 637 227 q 633 226 633 221 q 633 218 635 216 q 637 214 647 212 q 658 208 661 208 q 664 206 666 204 q 668 203 669 201 q 672 199 672 192 q 672 186 669 183 q 668 180 666 178 q 664 177 661 175 q 655 173 650 173 q 645 173 642 174 q 638 174 635 175 q 633 177 630 178 q 628 180 626 183 q 624 186 623 188 q 622 191 622 195 z m 684 174 l 684 236 l 729 236 l 729 230 l 693 230 l 693 210 l 726 210 l 726 203 l 693 203 l 693 182 l 730 182 l 730 174 z m 192 312 q 192 322 177 324 q 175 324 172 324 q 169 325 165 325 l 159 318 l 143 301 q 139 296 136 292 q 132 288 127 285 q 133 283 142 282 q 144 282 148 282 q 151 282 154 283 q 169 284 177 291 q 192 303 192 312 z m 203 342 q 203 346 198 346 q 196 346 181 341 l 170 331 q 168 329 166 325 l 183 328 q 187 328 194 333 q 203 339 203 342 z m 216 360 q 216 358 213 358 q 211 358 210 358 q 210 359 208 359 q 198 357 185 344 q 187 346 190 347 q 192 348 194 349 q 201 350 207 349 q 211 349 211 344 l 211 340 q 206 331 183 326 q 201 324 201 314 q 201 302 182 289 q 175 285 168 282 q 160 280 152 279 q 139 276 132 277 q 126 277 119 280 q 113 276 108 276 l 106 276 q 100 278 96 279 l 99 279 q 107 279 112 283 l 112 284 q 105 280 97 280 q 86 280 80 286 q 70 293 70 307 q 70 311 71 314 q 72 318 74 323 q 81 338 98 349 q 103 354 108 356 q 114 357 119 358 q 130 358 134 354 q 129 357 124 357 q 118 357 111 353 q 101 349 100 347 q 90 342 80 330 q 71 316 71 306 q 71 301 72 298 q 73 295 75 292 q 79 286 86 284 q 89 283 91 282 q 93 282 95 282 q 99 282 102 283 q 105 284 109 286 q 98 294 98 308 q 100 321 114 331 l 112 328 q 110 328 108 324 q 102 318 102 311 q 102 298 117 289 q 125 294 125 295 q 127 298 129 300 q 131 302 133 304 q 135 306 136 309 q 136 312 138 315 l 138 314 q 138 309 137 306 l 149 320 q 180 355 200 361 q 191 364 186 364 q 173 363 158 355 q 140 346 140 333 q 140 329 143 326 q 144 325 144 324 q 138 328 138 334 q 138 345 151 356 q 167 368 185 366 q 191 366 203 362 l 207 362 q 212 362 215 360 z m 218 295 q 217 291 210 284 q 203 280 198 280 q 193 280 193 286 q 193 291 199 299 l 198 299 q 197 298 194 298 q 194 298 193 299 q 196 299 203 306 l 204 306 l 207 310 q 210 313 210 315 l 213 315 q 216 315 216 314 q 216 310 210 303 l 203 296 q 197 287 197 284 q 197 281 201 281 q 206 281 213 291 q 214 292 215 292 q 216 293 218 295 z m 223 323 q 219 317 213 317 q 210 317 206 320 l 209 320 q 216 320 218 327 l 218 329 l 223 327 q 224 326 223 323 z m 258 342 q 258 337 227 300 l 226 300 q 217 289 217 283 q 217 280 220 280 q 226 280 233 290 q 234 291 235 292 q 236 292 237 294 q 237 289 229 283 q 224 279 218 279 q 212 280 212 285 q 211 290 232 316 l 244 331 l 250 337 q 253 341 255 347 q 258 345 258 342 z m 275 342 q 275 338 243 300 q 233 288 233 283 q 233 280 237 280 q 241 280 250 290 l 254 294 q 253 289 245 283 q 240 279 234 279 q 228 280 228 285 q 228 291 248 316 l 260 331 l 266 337 q 271 343 272 347 q 275 345 275 342 z m 256 275 q 240 272 231 263 q 224 254 224 252 q 224 248 228 248 q 229 247 235 249 q 237 251 240 254 q 242 256 245 259 z m 285 340 q 283 326 272 315 q 272 314 272 314 q 271 314 271 313 q 268 309 264 306 q 261 302 258 297 q 256 295 256 293 q 255 295 257 299 q 251 290 251 285 q 251 282 254 282 q 255 282 259 284 q 274 296 280 318 l 280 315 l 280 312 q 282 310 282 307 q 282 305 277 297 l 269 284 l 260 272 q 263 274 271 278 l 270 277 q 268 275 264 272 q 261 270 258 265 l 250 255 l 246 250 q 240 244 233 242 q 227 242 224 246 q 218 248 222 255 q 223 256 224 258 q 225 260 227 262 l 228 263 l 221 262 q 238 274 249 275 q 250 275 251 276 q 252 276 253 276 l 254 276 l 256 276 l 262 285 q 258 281 255 280 q 252 280 250 280 q 245 280 245 285 q 245 297 266 316 l 268 317 l 278 327 q 280 331 282 334 q 284 337 285 340 z m 399 355 q 393 357 389 357 q 379 357 370 354 q 362 352 353 347 q 349 345 346 342 q 344 340 341 338 q 353 337 373 325 q 395 347 411 353 z m 420 351 q 416 350 412 348 q 407 347 402 342 q 399 340 387 328 l 380 321 l 390 315 q 392 318 396 322 q 400 327 405 333 z m 429 368 q 429 367 428 366 q 428 359 425 352 l 426 351 l 425 351 q 420 339 412 331 l 396 312 q 398 311 399 311 q 400 311 402 310 q 402 308 401 308 q 399 308 398 308 q 397 309 395 310 q 383 297 382 286 q 380 282 380 280 q 380 276 384 276 q 392 276 401 289 l 405 295 q 415 309 418 320 l 418 323 q 418 322 419 321 l 419 320 q 417 306 409 294 l 396 268 q 396 272 399 281 q 387 272 381 272 q 372 272 374 284 q 374 290 378 298 q 382 305 388 314 l 378 319 l 369 310 q 366 306 360 300 q 355 294 347 284 q 331 268 319 268 l 316 268 q 313 268 307 271 q 307 271 309 271 q 318 269 327 278 q 319 274 308 274 q 297 274 290 279 l 291 279 q 281 286 281 300 q 281 310 285 315 q 291 331 308 342 q 314 347 320 348 q 325 350 331 351 q 341 351 345 347 l 344 347 q 342 349 335 349 q 325 349 310 340 q 299 332 291 323 q 282 309 282 298 q 282 282 297 277 q 303 275 306 275 q 327 276 352 303 l 371 323 q 356 332 337 332 l 336 332 q 334 328 334 323 q 335 323 339 317 q 332 321 332 327 q 332 330 333 332 q 323 330 320 328 q 302 321 304 307 q 304 298 310 291 l 312 289 q 300 301 300 310 q 300 323 312 332 q 322 339 337 339 q 351 355 372 358 q 377 359 388 359 q 393 359 403 357 l 415 354 l 421 354 l 422 353 q 426 360 428 370 l 429 370 z m 442 303 q 442 300 441 298 q 436 293 432 289 q 429 285 426 280 l 427 280 l 428 280 q 427 279 426 279 q 425 279 425 278 q 420 278 420 280 q 420 284 429 293 q 436 302 436 304 q 437 307 433 310 q 421 293 412 289 l 408 287 l 406 288 q 410 288 419 298 q 428 306 431 311 q 431 312 430 312 q 430 312 430 313 q 430 314 437 320 q 437 321 438 321 l 439 320 q 439 319 434 312 q 442 309 442 303 z m 471 306 q 471 312 467 310 q 463 310 461 308 q 458 306 452 298 q 446 290 446 285 q 445 283 448 283 q 454 285 458 290 q 462 298 462 301 q 462 303 461 303 q 465 303 465 298 l 464 296 q 466 298 468 300 q 469 303 471 305 z m 490 315 q 486 315 481 310 q 477 305 473 299 q 469 293 464 285 q 459 275 455 270 q 451 264 450 262 q 437 246 430 246 q 424 245 421 250 q 421 255 421 255 q 421 260 425 264 q 423 263 420 263 q 430 273 442 276 q 443 276 444 276 q 444 277 446 277 l 447 276 q 428 270 424 258 q 423 256 423 253 q 423 252 424 251 q 424 250 425 250 q 433 249 444 265 l 451 275 l 455 281 q 452 280 450 280 q 442 280 442 288 q 442 297 455 309 q 461 315 466 315 q 473 315 473 307 l 474 307 l 479 313 q 484 318 488 318 q 491 318 493 315 z m 508 308 q 508 302 497 296 q 496 295 495 295 l 494 295 q 491 295 488 300 q 490 298 493 298 q 500 302 502 309 l 502 311 l 502 312 l 502 313 q 498 313 489 304 l 489 303 q 486 299 486 296 q 485 294 485 292 q 484 293 484 298 q 482 294 481 291 q 479 287 479 284 q 479 283 480 282 q 480 280 484 280 q 494 284 501 290 q 503 292 506 294 q 504 291 502 288 q 500 286 495 283 q 487 278 481 280 q 481 279 480 280 q 474 280 474 286 q 474 296 485 306 q 491 315 501 315 q 503 315 504 314 q 508 311 508 308 z m 548 342 q 548 338 516 300 q 507 289 507 283 q 507 280 510 280 q 516 280 523 290 q 524 291 525 292 q 526 292 527 294 q 527 289 519 283 q 514 279 507 279 q 502 281 502 285 q 502 293 521 316 l 533 331 l 539 337 q 545 343 545 347 q 548 345 548 342 z m 602 311 q 585 317 584 330 q 579 327 574 324 q 569 322 566 319 q 547 301 547 286 q 547 280 550 279 l 552 279 l 554 279 q 569 279 582 289 q 586 293 592 298 q 597 303 602 311 z m 622 340 l 614 340 q 602 339 585 331 q 587 317 604 314 l 611 323 z m 640 358 q 627 358 616 356 q 606 354 598 349 q 603 354 610 357 q 618 360 627 362 q 607 363 592 350 q 589 348 585 340 q 592 342 598 343 q 605 344 613 343 q 615 343 618 343 q 621 343 626 342 q 628 345 632 349 q 635 353 640 358 z m 703 359 q 701 356 698 354 q 696 351 691 349 q 683 344 676 344 l 674 344 q 673 344 672 345 q 673 346 673 347 q 673 348 675 350 q 666 357 650 357 l 646 352 l 636 340 q 644 339 651 338 q 658 337 664 337 q 678 337 683 340 q 679 336 668 334 q 659 332 650 335 l 634 338 q 630 333 626 330 q 623 326 621 322 l 614 312 l 619 312 q 644 314 648 324 l 649 324 q 646 318 636 313 q 631 311 626 310 q 622 309 618 309 l 613 309 q 606 301 602 295 q 597 289 593 285 q 580 271 569 271 q 564 272 558 272 q 568 272 579 282 q 565 276 557 276 l 551 277 l 559 269 q 551 273 546 278 q 545 278 541 280 q 529 289 528 303 q 528 308 528 312 q 528 316 530 320 q 533 329 538 336 q 543 342 550 349 q 567 364 580 364 q 587 364 592 360 l 591 359 q 588 362 582 362 q 569 360 555 349 q 543 339 537 329 q 529 315 529 303 q 531 285 545 280 q 543 286 544 292 q 546 307 555 318 q 566 332 585 340 q 587 342 587 346 l 596 355 q 609 366 630 366 q 635 366 638 366 q 642 366 647 365 l 648 365 q 655 370 660 372 q 666 375 672 374 q 676 374 678 372 q 667 370 667 370 q 665 369 662 368 q 660 367 657 365 q 661 364 665 364 q 669 363 674 361 q 684 358 690 358 q 699 358 703 359 z m 642 289 q 639 292 639 296 q 639 298 640 300 q 640 301 640 303 q 630 290 631 284 q 631 282 633 282 q 635 282 642 289 z m 655 310 q 655 312 653 312 q 651 312 649 311 q 648 310 646 306 q 641 296 641 293 q 641 290 642 289 l 645 292 l 645 293 l 645 292 q 646 293 646 294 q 646 294 647 295 q 649 301 649 303 q 649 304 648 305 q 650 301 650 300 q 653 303 655 310 z m 659 307 q 659 302 652 292 q 643 283 639 280 l 631 280 q 625 280 625 285 q 625 293 636 306 q 643 315 652 315 q 659 315 659 307 z m 692 309 q 693 307 688 298 q 682 290 680 288 l 668 277 q 661 270 659 262 q 660 274 668 283 q 672 287 674 290 q 676 293 678 297 q 679 298 680 301 l 680 298 q 680 298 679 296 q 681 298 685 306 q 685 307 686 308 q 686 308 686 309 q 686 314 681 312 q 681 312 673 306 q 671 301 668 298 q 664 294 660 289 q 655 283 654 280 q 653 279 649 271 q 649 273 648 276 q 648 278 649 280 q 651 287 658 294 l 664 301 q 669 308 669 312 q 669 313 668 314 q 668 315 668 316 q 674 314 674 310 q 680 315 687 315 q 691 313 692 309 z m 731 323 l 716 323 q 715 321 710 315 q 704 309 696 298 q 694 298 692 293 q 688 288 688 283 q 688 280 690 280 q 695 280 704 290 l 705 291 q 706 292 706 292 q 706 293 707 294 q 707 289 700 283 q 695 279 688 279 q 683 281 682 285 q 682 287 686 295 l 698 309 l 709 323 l 692 325 q 688 326 682 326 l 673 326 q 661 326 649 321 l 648 321 q 658 331 679 331 q 680 331 688 330 q 695 328 709 326 l 712 325 q 715 330 718 334 q 720 337 722 340 q 724 339 724 335 q 724 332 722 330 l 718 324 l 726 323 l 732 323 l 733 323 l 736 323 z m 738 310 q 738 307 731 304 l 730 303 q 733 306 733 311 l 733 315 l 730 315 q 725 315 724 311 q 724 309 727 294 q 728 280 711 280 q 702 280 700 286 q 699 287 699 289 q 699 297 711 299 l 715 298 l 713 298 q 709 298 707 296 q 704 291 704 289 q 704 281 712 281 q 720 281 720 292 q 720 297 719 300 q 718 303 718 307 q 718 317 727 317 q 729 317 730 316 q 731 316 733 316 q 737 314 737 313 q 738 312 738 310 z"},"{":{"x_min":0,"x_max":422,"ha":422,"o":"m 319 750 q 337 675 335 618 q 333 562 318 520 q 302 479 278 451 q 254 423 228 406 q 202 388 178 379 q 155 370 142 368 q 155 361 177 349 q 199 337 220 316 q 242 295 260 262 q 277 229 282 181 q 287 133 276 67 q 265 1 230 -87 q 226 -98 226 -116 q 226 -133 232 -152 q 237 -171 250 -188 q 262 -206 282 -215 l 229 -215 q 179 -215 146 -190 q 113 -164 96 -128 q 79 -91 77 -51 q 75 -11 87 18 q 116 86 135 132 q 154 178 163 210 q 172 242 172 262 q 172 283 163 300 q 154 316 137 331 q 120 346 95 368 q 121 388 141 413 q 161 438 170 481 q 180 524 178 590 q 176 657 159 761 q 153 798 161 830 q 169 862 189 886 q 209 910 240 924 q 270 937 309 937 l 405 937 q 383 935 366 913 q 348 891 336 861 q 324 831 319 800 q 314 769 319 750 z"}}}
